<svg xmlns="http://www.w3.org/2000/svg" xmlns:xlink="http://www.w3.org/1999/xlink" fill="none" version="1.1" width="200" height="200" viewBox="0 0 200 200"><defs><clipPath id="master_svg0_229_4492"><rect x="0" y="0" width="200" height="200" rx="0"/></clipPath></defs><g clip-path="url(#master_svg0_229_4492)"><path d="M55.161110125,97.2583770078125C55.688881125,95.6237470078125,55.102760125,93.8352580078125,53.709869125,92.8300620078125L35.501572124999996,79.5926023678125C34.112841125,78.5825738878125,32.231424125000004,78.5825738878125,30.842689125,79.5926023678125L12.620828525,92.8300620078125C11.229287575,93.8362360078125,10.648007215,95.6266960078125,11.183152585,97.2583770078125L15.143541325000001,109.4650590078125L13.787243625,118.31490300781249C13.553929325,119.8049390078125,14.706817125,121.1510510078125,16.215017324999998,121.1495630078125L23.267765125,121.1495630078125C24.305041125000002,121.1483960078125,25.261285125,120.5886420078125,25.770135125,119.6847610078125L27.017929125,117.4875560078125L39.319548125,117.4875560078125L40.567339125000004,119.7118840078125C41.076193125,120.6157680078125,42.032438125,121.1755180078125,43.069710125,121.1766780078125L50.129246125,121.1766780078125C51.637440125,121.1781810078125,52.790329125,119.83206900781249,52.557014125,118.3420260078125L51.200722125,109.4921820078125L55.161110125,97.2583770078125Z" fill="#FF8022" fill-opacity="1" style="mix-blend-mode:passthrough"/><path d="M27.4221009765625,98.8401641390625C27.4146165765625,101.2690930390625,25.4408344765625,103.2327642390625,23.0119018765625,103.2277813390625C20.5829649765625,103.2227897390625,18.6172654628625,101.2510285390625,18.6197529633839,98.8220920390625C18.6222523846625,96.3931471390625,20.5919871765625,94.4254150390625,23.020914076562498,94.4254150390625C25.4553703765625,94.4291582105625,27.425849876562502,96.4057117390625,27.4221009765625,98.8401641390625Z" fill="#211714" fill-opacity="1" style="mix-blend-mode:passthrough"/><path d="M48.0167331640625,98.8401641390625C48.0129899640625,101.2737341390625,46.0378198640625,103.2438421390625,43.6042494640625,103.2413473390625C41.1706834640625,103.2388515390625,39.1995579402625,101.2646899390625,39.2008056640625,98.8311281390625C39.2020533878625,96.3975498390625,41.1752015640625,94.4254150390625,43.6087674640625,94.4254150390625C46.0458741640625,94.4254150390625,48.0204887640625,96.4030653390625,48.0167331640625,98.8401641390625Z" fill="#211714" fill-opacity="1" style="mix-blend-mode:passthrough"/><path d="M33.1661390859375,111.422506775C29.2735645859375,111.422506775,27.2052098859375,109.950923875,27.1238336459375,109.889888705C26.8956452219375,109.724998415,26.8442044259375,109.406415615,27.0088980199375,109.178082135C27.1735935759375,108.949756621,27.4921367159375,108.898043633,27.7206032859375,109.062544495C27.7545103459375,109.062544495,29.6397654859375,110.418844175,33.1457957859375,110.418844175C36.651826885937496,110.418844175,38.1098435859375,109.130358695,38.1301885859375,109.116800625C38.328329585937496,108.881195389,38.6887125859375,108.874241512,38.8957905859375,109.102034565C39.1028685859375,109.329819645,39.0617015859375,109.687908475,38.8083385859375,109.862764655C38.7879935859375,109.917012815,37.0994015859375,111.422506775,33.1661390859375,111.422506775Z" fill="#070507" fill-opacity="1" style="mix-blend-mode:passthrough"/><path d="M26.021393025000002,96.8889147015625C26.288392025,97.4351237015625,26.079463925,98.0947404015625,25.546689725,98.3876219015625C24.938227715,98.5271602015625,24.331593515,98.1480112015625,24.190392095,97.5399405015625C23.919649925,96.9940096115625,24.12942449,96.3317305115625,24.665095385,96.0412333795625C25.273555525,95.9016949415625,25.880189625,96.2808440315625,26.021393025000002,96.8889147015625Z" fill="#FFFFFF" fill-opacity="1" style="mix-blend-mode:passthrough"/><path d="M47.1303810140625,96.8934147934375C47.4866619140625,97.4236815234375,47.2549467140625,98.1475601234375,46.6569692140625,98.3723569234375C46.0589915540625,98.5971617234375,45.4077909740625,98.2052176234375,45.3265061340625,97.5715647234375C44.9702293140625,97.0412979234375,45.2019483220625,96.3174273034375,45.7999259240625,96.0926224364375C46.3979035140625,95.8678175634375,47.0491001140625,96.2597697534375,47.1303810140625,96.8934147934375Z" fill="#FFFFFF" fill-opacity="1" style="mix-blend-mode:passthrough"/><path d="M29.1733114890625,85.2577514765625C28.5257110890625,85.2863616765625,27.9068955890625,84.9884099765625,27.5254100590625,84.4643182765625C27.3510883490625,84.2317332765625,27.0230998690625,84.1805762765625,26.7862290490625,84.3490352765625C26.5302847230625,84.5302648765625,26.4777650830625,84.8886399765625,26.6709437290625,85.1356892765625C27.2947758390625,85.9442062765625,28.2755205890625,86.3952941765625,29.2953798890625,86.3427943765625C30.1354178890625,86.3895163765625,30.9495853890625,86.0438093765625,31.4993629890625,85.4069456765625C31.4061469890625,85.3215999765625,31.3178467890625,85.2310328765625,31.2348851890625,85.1356892765625C31.0414242890625,84.8929314765625,31.0841626890625,84.5387925765625,31.3298253890625,84.3490352765625C31.5398263890625,84.2028526765625,31.8238820890625,84.2255820765625,32.0079750890625,84.4032830765625C32.1387896890625,83.9630832765625,32.205034289062496,83.5062174765625,32.2046389890625,83.0469913765625L32.2046389890625,78.9713134765625C31.764983189062498,79.0795078165625,31.3473968890625,79.2630662965625,30.9704074890625,79.5138349565625L30.9704074890625,82.9045760765625C30.9636244890625,84.5796017765625,30.3736357890625,85.2577514765625,29.1733114890625,85.2577514765625Z" fill="#040000" fill-opacity="1" style="mix-blend-mode:passthrough"/><path d="M35.5128893734375,82.9006044609375C35.5128893734375,84.5756378609375,34.9161195734375,85.2537879609375,33.7157933734375,85.2537879609375C33.0684451734375,85.2811660609375,32.4501821434375,84.9834766609375,32.0678958934375,84.4603466609375C32.0470223434375,84.4381580609375,32.0243387834375,84.4177493609375,32.0000796934375,84.3993196609375C31.8952331234375,84.7655620609375,31.7176371334375,85.1069059609375,31.4779052734375,85.4029741609375C32.0914814434375,86.0300388609375,32.9407462734375,86.3697457609375,33.8175186734375,86.3388228609375C35.9129991734375,86.3388228609375,36.7403397734375,84.8536739609375,36.7403397734375,83.0158955609375L36.7403397734375,80.4931808709375L35.5128893734375,79.5980224609375L35.5128893734375,82.9006044609375Z" fill="#040000" fill-opacity="1" style="mix-blend-mode:passthrough"/><path d="M31.332542495,84.3489726335C31.080287695,84.5324436675,31.028256819,84.8874807375,31.217257175,85.1356267375C31.300218895,85.2309703275,31.388521195,85.3215375875,31.481734905,85.4068834875C31.723884705,85.1113954775,31.903807285,84.7700039175,32.010692295,84.4032208075C31.826601385,84.2255194985,31.542543565,84.2027902645,31.332542495,84.3489726335Z" fill="#040000" fill-opacity="1" style="mix-blend-mode:passthrough"/><path d="M15.1385365984375,109.4808349609375L13.7822389194375,118.33067796093749C13.5540574484375,119.8192609609375,14.7040455984375,121.1619859609375,16.2100114984375,121.1653399609375L23.2695407984375,121.1653399609375C24.3068158984375,121.1641799609375,25.2630638984375,120.6044279609375,25.7719128984375,119.7005359609375L27.0197038984375,117.4897756609375L20.6247596984375,117.4897756609375C18.9128169984375,117.4935741609375,17.3908478984375,116.4005999609375,16.8474721984375,114.7771763609375L15.1385365984375,109.4808349609375Z" fill="#211714" fill-opacity="1" style="mix-blend-mode:passthrough"/><path d="M51.2040439765625,109.4888916015625L52.5603439765625,118.3048239015625C52.7936559765625,119.7948686015625,51.6407719765625,121.14097960156249,50.1325709765625,121.1394926015625L43.0730411765625,121.1394926015625C42.0378038765625,121.1373086015625,41.0840580765625,120.5775016015625,40.5774543765625,119.6746896015625L39.3228759765625,117.4910450015625L45.7178182765625,117.4910450015625C47.4399080765625,117.4887090015625,48.9659337765625,116.3811116015625,49.5018899765625,114.7445431015625L51.2040439765625,109.4888916015625Z" fill="#211714" fill-opacity="1" style="mix-blend-mode:passthrough"/><path d="M102.3371281015625,116.3266903984375L102.3371281015625,116.1300273984375C102.3371281015625,116.1300273984375,94.3417511015625,114.9839553984375,89.0589691015625,106.5070953984375C88.0061761015625,104.7424083984375,87.1315781015625,102.8773553984375,86.4481031015625,100.9394973984375C86.2310941015625,100.3155953984375,86.0344311015625,99.6713563984375,85.8513341015625,98.99320639843751C85.7902981015625,98.7558523984375,85.7360501015625,98.51171939843749,85.6750141015625,98.27436639843751C85.49909410156249,97.4898813984375,85.37450410156251,96.6947643984375,85.30202510156249,95.8940663984375L102.1472511015625,95.8940663984375L102.1472511015625,90.84863709843751L84.7459371015625,90.84863709843751L84.7459371015625,83.8704833984375L79.6462671015625,83.8704833984375L79.6462671015625,90.84863709843751L62.1568034415625,90.84863709843751L62.1568034415625,95.8737143984375L79.05626910156249,95.8737143984375C78.9519691015625,97.0394533984375,78.7385441015625,98.1928343984375,78.4188101015625,99.3187113984375C78.4188101015625,99.3797463984375,78.4188101015625,99.4407813984375,78.3645611015625,99.5018163984375L78.2831821015625,99.7730733984375L78.1814561015625,100.1121443984375C77.4494071015625,102.3963773984375,76.4501311015625,104.5861393984375,75.2043871015625,106.63593639843751C69.9216113015625,114.9771693984375,62.0279541015625,116.1300273984375,62.0279541015625,116.1300273984375L62.0279541015625,121.1754573984375C77.3880311015625,119.16135039843749,82.1893201015625,104.0928843984375,82.1893201015625,104.0928843984375C82.1893201015625,104.0928843984375,82.2774791015625,104.2624243984375,82.3181691015625,104.3505823984375C82.9963191015625,106.3375553984375,88.1909431015625,119.3173253984375,102.3642501015625,121.1551093984375L102.3642501015625,116.7267953984375L102.3642501015625,116.37415739843749L102.3371281015625,116.3266903984375Z" fill="#000000" fill-opacity="1" style="mix-blend-mode:passthrough"/><path d="M159.1550273984375,92.1954402609375L188.9935723984375,92.1954402609375L188.9935723984375,87.4009299609375L161.0538403984375,87.4009299609375L162.4576173984375,83.8948974609375L157.3918427984375,83.8948974609375L155.9812788984375,87.4009299609375L149.1048583984375,87.4009299609375L149.1048583984375,92.1954402609375L154.0756949984375,92.1954402609375L150.3526458984375,101.4386024609375C149.7520535584375,102.9319614609375,150.8520849984375,104.55902446093751,152.4616963984375,104.5580944609375L167.0147663984375,104.5580944609375L167.0147663984375,108.8304294609375L149.1048583984375,108.8304294609375L149.1048583984375,113.6724074609375L167.0147663984375,113.6724074609375L167.0147663984375,121.13204546093749L171.8499733984375,121.13204546093749L171.8499733984375,113.6724074609375L189.0139353984375,113.6724074609375L189.0139353984375,108.8304294609375L171.8499733984375,108.8304294609375L171.8499733984375,104.5580944609375L187.77968939843748,104.5580944609375L187.77968939843748,99.71610746093751L171.8499733984375,99.71610746093751L171.8499733984375,93.4703597609375L167.0147663984375,93.4703597609375L167.0147663984375,99.71610746093751L156.5102505984375,99.71610746093751C156.3331212984375,99.7202394609375,156.2107328984375,99.5402424609375,156.2796678984375,99.3770364609375L159.1550273984375,92.1954402609375Z" fill="#000000" fill-opacity="1" style="mix-blend-mode:passthrough"/><path d="M142.7262463125,86.4921240765625L128.1257053125,86.4921240765625L128.1257053125,83.8541259765625L123.28372031250001,83.8541259765625L123.28372031250001,86.4785580765625L108.6967468125,86.4785580765625C106.9829384125,86.4822933765625,105.5945555368,87.8706760765625,105.5908203125,89.5844845765625L105.5908203125,95.2402419765625L110.4938345125,95.2402419765625L110.4938345125,91.8495006765625C110.4938106125,91.5225414765625,110.7568817125,91.2564425765625,111.0838175125,91.2527308765625L140.3459553125,91.2527308765625C140.6739993125,91.2563948765625,140.9390453125,91.5214447765625,140.94271431250002,91.8495006765625L140.94271431250002,95.2402419765625L145.8457303125,95.2402419765625L145.8457303125,89.5912637765625C145.83826031249998,87.8748168765625,144.44271431250002,86.4883730765625,142.7262463125,86.4921240765625Z" fill="#000000" fill-opacity="1" style="mix-blend-mode:passthrough"/><path d="M129.6597157109375,103.24947742656249C129.6597157109375,103.1477518265625,129.5919017109375,103.0392475265625,129.5512127109375,102.9307508265625L129.33420371093752,102.3475399265625C129.1782307109375,101.9474334265625,129.0086897109375,101.5676646265625,128.8391587109375,101.2082486265625C128.6696207109375,100.8488326265625,128.4933017109375,100.5300984265625,128.3169747109375,100.1910276265625L128.0457177109375,99.7298865265625L127.7609027109375,99.2755241265625L129.9241947109375,98.4820909265625L139.1538047109375,98.4820909265625L139.1538047109375,94.1080322265625L112.31266741093751,94.1080322265625L112.31266741093751,98.3939318265625L119.3722007109375,98.3939318265625L105.4769287109375,104.4972722265625L105.4769287109375,108.3559422265625L123.3597127109375,100.8284874265625C123.4305537109375,100.9125776265625,123.4962307109375,101.0009036265625,123.55636771093751,101.0929651265625C123.6188817109375,101.1676140265625,123.6755697109375,101.2469678265625,123.7259067109375,101.3303189265625C123.86832271093749,101.5337615265625,124.0039497109375,101.7372040265625,124.1328007109375,101.9609914265625C124.2220327109375,102.0917563265625,124.3035397109375,102.2276230265625,124.3769317109375,102.3678846265625L105.4769287109375,110.2615342265625L105.4769287109375,114.0998592265625L125.8213917109375,105.6569092265625C125.8213917109375,105.7857582265625,125.89599271093749,105.9146072265625,125.9299047109375,106.0502362265625C125.9638077109375,106.1858642265625,125.9977187109375,106.2808032265625,126.0316217109375,106.4028732265625C126.0655177109375,106.5249352265625,126.0316217109375,106.4706872265625,126.0316217109375,106.5045972265625C126.0316217109375,106.5385012265625,126.09264971093751,106.7487302265625,126.1197817109375,106.8707922265625C126.1469137109375,106.9928622265625,126.1876027109375,107.1488362265625,126.2147197109375,107.2980312265625L105.4769287109375,115.8969532265625L105.4769287109375,119.7624032265625L126.2689747109375,111.1770382265625C126.2718447109375,111.1972792265625,126.2718447109375,111.2178302265625,126.2689747109375,111.2380732265625Q126.2079387109375,111.4618602265625,126.1265607109375,111.6856482265625C126.1191447109375,111.7281342265625,126.1054287109375,111.76927722656251,126.0858687109375,111.8077182265625C126.0200897109375,111.9842582265625,125.9430807109375,112.1564042265625,125.85530271093751,112.3231072265625C125.7942757109375,112.44517722656249,125.7264537109375,112.5604612265625,125.6654187109375,112.6757452265625L125.4551967109375,113.0080452265625C125.38060371093749,113.1097622265625,125.3060017109375,113.2182652265625,125.2246307109375,113.3199822265625L125.0347457109375,113.5641232265625L124.9601517109375,113.6454962265625C124.8427867109375,113.7852022265625,124.7182927109375,113.9187472265625,124.5871697109375,114.0456102265625C124.4515417109375,114.1744522265625,124.3226927109375,114.2965222265625,124.1870647109375,114.4118062265625C124.0514357109375,114.52709622656249,123.8073027109375,114.7237602265625,123.6174187109375,114.8593882265625L123.3325957109375,115.0560512265625C123.2376577109375,115.1170792265625,123.1427197109375,115.1848922265625,123.0410027109375,115.2391492265625L122.7697447109375,115.3951222265625C122.6748067109375,115.4493792265625,122.5798607109375,115.5036282265625,122.4781437109375,115.55109622656249C122.14407871093749,115.7292502265625,121.79990571093751,115.8877602265625,121.4473567109375,116.0258042265625C121.3988777109375,116.0490892265625,121.3490647109375,116.0694652265625,121.2981627109375,116.0868302265625C120.9116147109375,116.2360252265625,120.5589857109375,116.3513162265625,120.2741627109375,116.4326892265625L120.1724457109375,116.4326892265625L119.9689947109375,116.4869442265625L119.8265787109375,116.4869442265625L119.5214197109375,116.55476022656251L119.44681871093749,120.9898532265625C119.6095787109375,120.9898532265625,124.4176537109375,120.3659592265625,127.7405737109375,117.1447412265625L127.9033337109375,116.9819892265625C128.18075771093748,116.7040572265625,128.4411907109375,116.4096582265625,128.6832007109375,116.1003972265625C128.8323957109375,115.9105202265625,128.9748037109375,115.7138572265625,129.1104397109375,115.5171852265625L129.3816967109375,115.10352122656249L129.6258297109375,114.6695042265625C129.7004227109375,114.5203092265625,129.7818027109375,114.3711152265625,129.8563957109375,114.21514122656251C129.9309977109375,114.0591682265625,129.9988197109375,113.9031942265625,130.0666257109375,113.7404422265625C130.3073407109375,113.14597722656251,130.4934727109375,112.5308492265625,130.6227057109375,111.9026562265625C130.6633947109375,111.71277222656249,130.6905267109375,111.5228962265625,130.7244297109375,111.3262312265625C130.8312897109375,110.5739502265625,130.8743877109375,109.8139742265625,130.8532787109375,109.0544292265625C130.8532787109375,108.6475442265625,130.81258971093752,108.2270932265625,130.7651117109375,107.7862962265625L130.7651117109375,107.6438882265625L130.7651117109375,107.4946942265625C130.7651117109375,107.3319342265625,130.7244297109375,107.1623942265625,130.7040847109375,107.0064212265625L132.7385277109375,106.2604572265625C133.99272771093752,112.9993492265625,139.2157137109375,118.3001822265625,145.9353027109375,119.6539062265625L145.9353027109375,114.93398122656251C145.9353027109375,114.93398122656251,138.6587867109375,114.4118062265625,137.2210907109375,104.7210602265625L145.9353027109375,101.2557177265625L145.9353027109375,97.4174010265625L129.9174387109375,103.5207414265625C129.7410967109375,103.4393615265625,129.7004067109375,103.3308573265625,129.6597157109375,103.24947742656249Z" fill="#000000" fill-opacity="1" style="mix-blend-mode:passthrough"/></g></svg>