<svg xmlns="http://www.w3.org/2000/svg" xmlns:xlink="http://www.w3.org/1999/xlink" fill="none" version="1.1" width="200" height="200" viewBox="0 0 200 200"><defs><clipPath id="master_svg0_229_4831"><rect x="0" y="0" width="200" height="200" rx="0"/></clipPath></defs><g clip-path="url(#master_svg0_229_4831)"><path d="M14.746750627890625,121.67796535546876C14.642262696890626,121.69434535546876,14.552108685890625,121.60419035546875,14.568493008490625,121.49970835546875L14.587591329890625,99.96866734546875C14.571305354090626,99.86244392346875,14.662807419890624,99.77093887446875,14.769032817890626,99.78722286216875L22.583744037890625,99.78722286216875C23.407328637890625,99.78414726256875,24.228581437890625,99.87492115746875,25.031609837890628,100.05779614546876C25.945332837890625,100.31013834546874,26.794938837890626,100.75393068546875,27.524040837890624,101.35971245546875C27.878193837890628,101.64006105546875,28.198650837890625,101.96051145546875,28.478995837890626,102.31466625546875C28.773812837890624,102.68282435546875,29.032825837890627,103.07826545546875,29.252509837890624,103.49563285546876C29.481426837890623,103.95886425546875,29.652480837890625,104.44851255546875,29.761819837890627,104.95353075546875C29.885699837890627,105.51156525546875,29.946562837890625,106.08173515546875,29.943257837890627,106.65334365546875Q29.943257837890627,109.01209065546875,28.163860837890624,111.16073435546875Q26.384461837890626,113.30937835546875,23.007107737890625,113.28709435546875L18.356479437890624,113.28709435546875C18.267318737890626,113.28707835546875,18.195534937890624,113.36029635546875,18.197320937890623,113.44943335546876L18.197320937890623,121.36600335546875C18.182235037890624,121.54532635546875,18.030259137890624,121.68196335546875,17.850352537890625,121.67796535546876L14.746750627890625,121.67796535546876ZM18.206869637890627,103.40331725546875L18.206869637890627,109.66463375546874C18.208562337890626,109.75182345546875,18.278838437890624,109.82210135546875,18.366028037890626,109.82379435546875L22.873414037890626,109.82379435546875C24.025725337890627,109.82379435546875,24.882001837890627,109.48001095546874,25.445423837890623,108.78925605546875C25.999805837890626,108.16958235546875,26.305863837890627,107.36703395546876,26.304883837890625,106.53556485546875Q26.304883837890625,104.67340465546874,24.983861837890625,103.81394575546875C24.314270937890626,103.40645645546876,23.538735437890622,103.20703525546875,22.755635237890623,103.24097015546874L18.366028037890626,103.24097015546874C18.274256737890624,103.24080325546875,18.201360237890626,103.31808255546875,18.206869637890627,103.40331725546875L18.206869637890627,103.40331725546875Z" fill="#323232" fill-opacity="1" style="mix-blend-mode:passthrough"/><path d="M33.75715811203125,121.7006287421875C33.65267117303125,121.7170147421875,33.56251716703125,121.6268537421875,33.57890049613125,121.5223697421875L33.59799782403125,99.9849637321875C33.58170986173125,99.8787403101875,33.67321491203125,99.7872352611875,33.77943833203125,99.8035192488875L42.20850463203125,99.8035192488875C43.06620313203125,99.7918367385875,43.92001133203125,99.9208768121875,44.73595133203125,100.1854975821875C45.45419933203125,100.4247108721875,46.12139433203125,100.7960954921875,46.70315533203125,101.2805143421875C47.33064533203125,101.8670797421875,47.85094133203125,102.5586524421875,48.24063333203125,103.3241190421875C48.44941633203125,103.7292876421875,48.61275333203125,104.1563110421875,48.72765933203125,104.5973935421875C48.84784133203125,105.0534882421875,48.90882133203125,105.5231490421875,48.90910333203125,105.9948043421875C48.90735933203125,106.68092534218749,48.79999533203125,107.3626833421875,48.59078333203125,108.0161247421875C48.39276033203125,108.6457882421875,48.10776633203125,109.2447042421875,47.744054332031254,109.7955226421875C47.37866733203125,110.3019147421875,46.94357633203125,110.75415574218749,46.45168333203125,111.1388287421875C45.99374133203125,111.4945007421875,45.487947332031254,111.78382974218749,44.94922133203125,111.9982867421875C44.86130033203125,112.0317217421875,44.82139333203125,112.1337017421875,44.863279332031254,112.2179267421875L47.25384633203125,116.7635117421875Q48.48573933203125,119.11269774218749,49.698530332031254,121.44597274218751C49.73022433203125,121.5045607421875,49.73022433203125,121.5751877421875,49.698530332031254,121.6337757421875C49.66957133203125,121.6886747421875,49.610817332031246,121.72117274218749,49.54892333203125,121.7165377421875L45.66225533203125,121.7165377421875C45.62874633203125,121.7157267421875,45.59682933203125,121.7020507421875,45.57312633203125,121.6783427421875L45.49673333203125,121.6114907421875L41.14532423203125,112.6030837421875C41.11854603203125,112.5484377421875,41.06294293203125,112.5138437421875,41.00208233203125,112.5139627421875L37.38598423203125,112.5139627421875C37.29684333203125,112.5121747421875,37.22362113203125,112.5839547421875,37.22364093203125,112.6731237421875L37.22364093203125,121.5319157421875C37.23752883203125,121.6368977421875,37.14692183203125,121.7259157421875,37.04220033203125,121.7101727421875L33.75715811203125,121.7006287421875ZM37.21727923203125,103.2381770421875L37.21727923203125,109.0952234421875C37.21727923203125,109.1831283421875,37.28853443203125,109.2543840421875,37.37643553203125,109.2543840421875L41.97295093203125,109.2543840421875C43.13799473203125,109.2543840421875,44.00700233203125,108.9360628421875,44.59270533203125,108.2994299421875C45.47068633203125,107.3073544421875,45.707761332031254,105.9021868421875,45.20388033203125,104.67696954218749C45.03465833203125,104.2997198421875,44.77299033203125,103.9712667421875,44.44309833203125,103.7220158421875C44.136075332031254,103.5055954421875,43.795013332031246,103.3420560421875,43.43402763203125,103.2381770421875C43.02478213203125,103.1241414421875,42.60149383203125,103.0684230421875,42.17667583203125,103.0726511421875L37.37962223203125,103.0726511421875C37.29636263203125,103.0705609421875,37.22557993203125,103.1330187421875,37.21727923203125,103.2158930421875L37.21727923203125,103.2381770421875Z" fill="#323232" fill-opacity="1" style="mix-blend-mode:passthrough"/><path d="M52.408355712890625,110.77043662890625Q52.408355712890625,108.80322832890624,52.46565564389063,107.55541752890625C52.48044951289062,106.94741012890626,52.528264362890624,106.34065102890625,52.60889752289062,105.73782542890625C52.68248939289062,105.36311102890625,52.789010822890624,104.99561262890624,52.92721414289063,104.63962982890625C53.05987417289062,104.28262992890625,53.220600072890626,103.93670842890626,53.407873932890624,103.60509182890625C54.03168021289063,102.52128072890625,54.896468112890624,101.59550152890625,55.93532131289062,100.89939082890625Q57.698804412890624,99.62611643460625,60.31219771289062,99.62611643460625C61.857058512890625,99.57815456390625,63.37694071289062,100.02419596890626,64.65087471289063,100.89939082890625C65.69062971289063,101.60304342890625,66.56055671289063,102.52951432890625,67.19742371289063,103.61145762890625C67.56059971289062,104.27717782890625,67.81324271289063,104.99746422890625,67.94546971289063,105.74419112890625C68.03518671289062,106.34622192890625,68.08728971289062,106.95326752890625,68.10145171289062,107.56179092890625Q68.15556471289062,108.80959412890626,68.15238571289062,110.77680162890626Q68.15238571289062,114.64118562890624,67.93592571289062,115.82851062890626C67.86890571289062,116.20622062890625,67.77095571289063,116.57777962890626,67.64307571289062,116.93944562890624C67.51924871289063,117.28618462890626,67.37030871289062,117.62343562890625,67.19743171289062,117.94851062890625C66.55254971289062,119.03001762890625,65.67371871289063,119.95345262890625,64.62541971289062,120.65103362890625C63.34453971289062,121.51081062890626,61.82534121289062,121.94518662890624,60.283559312890624,121.89247162890625C58.73039771289062,121.94563862890625,57.199996912890626,121.50790962890625,55.909866112890626,120.64148162890625C54.86838631289063,119.94944762890626,54.003797212890625,119.02271462890624,53.38560164289063,117.93577962890625C53.19926560289063,117.60524562890625,53.03960067289062,117.26036462890625,52.90812474289063,116.90442862890625C52.774522932890626,116.55146562890624,52.67330628289063,116.18708462890625,52.60572655289062,115.81577862890626C52.52785109289062,115.21059262890626,52.481105163890625,114.60180662890625,52.465663589890625,113.99182062890625C52.42427015289063,113.16100262890625,52.408355712890625,112.08190562890626,52.408355712890625,110.77043662890625ZM56.03081991289063,110.77043662890625Q56.03081991289063,112.40976962890625,56.07538441289063,113.46977162890624C56.08416201289062,113.99657362890625,56.13847371289062,114.52163362890624,56.237723612890626,115.03908262890624C56.32132891289063,115.35760962890625,56.434283712890625,115.66770562890625,56.57514141289062,115.96538562890625C56.709140812890624,116.24998662890624,56.87235781289063,116.51988362890626,57.06216721289063,116.77073262890625C57.40640351289063,117.21388862890625,57.840277712890625,117.57943162890625,58.33544161289063,117.84345662890625C59.541318912890624,118.42933062890626,60.949379012890624,118.42933062890626,62.15526011289062,117.84345662890625C63.217287712890624,117.24765562890624,63.97719571289063,116.22981662890625,64.24661271289062,115.04226062890625Q64.48534871289063,114.08730662890625,64.49171971289063,110.77042862890625Q64.49171971289063,109.13109392890625,64.43442271289062,108.07427982890624C64.41484471289063,107.55162672890626,64.35524871289063,107.03124622890626,64.25616571289062,106.51770062890625C64.18420171289063,106.19413472890625,64.07747471289062,105.87929482890625,63.93784471289062,105.57866522890625C63.807595712890624,105.28606222890625,63.64073971289062,105.01116562890626,63.44127071289063,104.76058772890624C63.09799071289063,104.32721422890626,62.663210712890624,103.97503802890625,62.168000212890625,103.72922852890625C61.884595912890624,103.59335372890625,61.58809091289062,103.48670122890626,61.28307341289062,103.41091582890625C60.29415701289062,103.16000412890625,59.24799631289063,103.27298282890625,58.33544921289062,103.72922852890625C57.85116961289062,103.99440572890624,57.41960811289063,104.34612842890625,57.062179112890625,104.76694532890625C56.866230512890624,105.01936722890625,56.700629212890625,105.29394582890625,56.56878371289062,105.58502292890626C56.43126391289063,105.89199492890626,56.324627112890624,106.21188882890625,56.25046301289063,106.53997662890625C56.14572571289062,107.06424332890624,56.08925221289063,107.59700532890625,56.081758012890624,108.13157172890625Q56.03081991289063,109.16611762890625,56.03081991289063,110.77043662890625L56.03081991289063,110.77043662890625Z" fill="#323232" fill-opacity="1" style="mix-blend-mode:passthrough"/><path d="M76.49671791367187,121.7399118671875C76.39322851367187,121.7532938671875,76.30506901367187,121.6651438671875,76.31845231367187,121.5616528671875L76.33437061367188,103.2583632671875C76.33439441367187,103.1734463671875,76.26647711367187,103.1041223671875,76.18158431367188,103.1023819671875L70.77017402367187,103.1023819671875C70.58171208367187,103.1120695671875,70.42625522657187,102.9566049671875,70.43593502037187,102.7681507671875L70.43593502037187,100.0337997971875C70.41965103267188,99.9275763781875,70.51114813267188,99.8360633861875,70.61737950367187,99.8523553211875L85.67700851367188,99.8523553211875C85.78224651367188,99.8390356701875,85.87177251367187,99.9285697941875,85.85845351367188,100.0337997971875L85.85845351367188,102.7808823671875C85.84831251367187,102.9597360671875,85.70018251367188,103.0994889671875,85.52104351367187,103.0992028671875L80.10963341367187,103.0992028671875C80.02398581367187,103.0991871671875,79.95505051367188,103.1695523671875,79.95683861367188,103.2551843671875L79.93774131367188,121.5584758671875C79.95412061367188,121.6629578671875,79.86397461367187,121.7531208671875,79.75948431367188,121.7367328671875L76.49671791367187,121.7399118671875Z" fill="#323232" fill-opacity="1" style="mix-blend-mode:passthrough"/><path d="M89.00069966617187,121.7494638671875C88.89597828717187,121.7651998671875,88.80537128517187,121.6761968671875,88.81925519297188,121.5712068671875L88.83836046817187,100.0337997971875C88.82206853197188,99.9275763781875,88.91357357817188,99.8360633861875,89.01980493617188,99.8523553211875L102.78706257617188,99.8523553211875C102.89328557617188,99.8360713331875,102.98479957617188,99.9275763781875,102.96850657617188,100.0337997971875L102.96850657617188,103.1278528671875C102.98182657617187,103.2330829671875,102.89229257617188,103.3226170671875,102.78706257617188,103.3092973671875L92.61998107617188,103.3092973671875C92.53279137617187,103.3109822671875,92.46251347617188,103.3812601671875,92.46082067617188,103.4684576671875L92.46082067617188,108.9212493671875C92.46082067617188,109.0091466671875,92.53207607617188,109.0804014671875,92.61998107617188,109.0804014671875L101.07769657617187,109.0804014671875C101.26580157617187,109.0804099671875,101.41829357617188,109.2329025671875,101.41829357617188,109.4210061671875L101.41829357617188,112.1776418671875C101.41829357617188,112.2890548671875,101.35781457617188,112.3431678671875,101.23685757617187,112.3431678671875L92.61998107617188,112.3431678671875C92.53207607617188,112.3431678671875,92.46082067617188,112.4144308671875,92.46082067617188,112.5023278671875L92.45445487617188,118.1779288671875C92.45445487617188,118.2658348671875,92.52571817617188,118.3370898671875,92.61361527617187,118.3370898671875L102.78069657617188,118.3370898671875C102.88542657617188,118.3213538671875,102.97602557617188,118.4103638671875,102.96214057617188,118.5153488671875L102.96214057617188,121.5839388671875C102.97852857617187,121.6884208671875,102.88837457617187,121.7785738671875,102.78388357617187,121.7621958671875L89.00069966617187,121.7494638671875Z" fill="#323232" fill-opacity="1" style="mix-blend-mode:passthrough"/><path d="M121.39429751367187,115.4076564296875C121.45278951367187,115.4053524296875,121.50911251367188,115.4299884296875,121.54710051367188,115.4745094296875C121.58499251367188,115.5170904296875,121.59603951367187,115.5772284296875,121.57574151367187,115.6304824296875Q120.93910851367187,118.7022514296875,118.77772551367187,120.3479514296875C118.08793251367187,120.8723064296875,117.31548051367187,121.2779044296875,116.49220551367188,121.5480154296875C115.63242051367187,121.8239214296875,114.73400311367187,121.9604014296875,113.83106471367188,121.9522784296875C112.27885631367188,122.0058674296875,110.74934581367188,121.5680674296875,109.46055821367187,120.7012954296875C108.41667411367187,120.0107474296875,107.55154861367187,119.0823554296875,106.93629354367188,117.9924084296875C106.75790882367187,117.6607834296875,106.60262680367188,117.31725542968749,106.47155219367187,116.9642444296875C106.33902326367188,116.6111774296875,106.23886361367188,116.2468034296875,106.17233689367187,115.8755934296875C106.04181861467187,115.1339134296875,105.97498194407187,113.4500174296875,105.98133977252188,110.8238934296875Q105.98133977252188,108.8566856296875,106.02908706667188,107.6088743296875C106.03848870467188,107.0003586296875,106.08846918367188,106.3931384296875,106.17869471367187,105.7912745296875C106.24712085367187,105.4170527296875,106.34830570367187,105.0495701296875,106.48110485367188,104.6930790296875C106.61335563367187,104.3369531296875,106.76968664367188,103.9902448296875,106.94903308367188,103.6553619296875C107.57202871367187,102.5718131296875,108.43701931367187,101.6469080296875,109.47647641367188,100.9528398296875Q111.23358961367188,99.6795654296875,113.85016961367188,99.6795654296875Q116.97605251367187,99.6795654296875,119.01964851367188,101.6085783296875C120.35482451367187,102.8213260296875,121.25597451367187,104.4380426296875,121.58529451367187,106.2114553296875C121.60706951367187,106.2630729296875,121.59436251367188,106.3227968296875,121.55345851367187,106.3610630296875C121.51383351367187,106.4006486296875,121.45985551367187,106.4224715296875,121.40385051367187,106.4215498296875L117.96283451367188,106.4215498296875C117.88478451367187,106.4297194296875,117.81322651367188,106.3774342296875,117.79730851367188,106.3005843296875C117.66790251367188,105.9022503296875,117.48133251367187,105.5248179296875,117.24343851367188,105.1801042296875C116.98899851367187,104.8254804296875,116.69057751367187,104.5046010296875,116.35532951367188,104.2251506296875C115.66149901367187,103.6227383296875,114.76529221367187,103.3054270296875,113.84698291367188,103.3370413296875C113.18236731367188,103.3201453296875,112.52460241367187,103.4747281296875,111.93706751367188,103.7858724296875C111.45201301367187,104.0498972296875,111.02025271367188,104.4017791296875,110.66380121367187,104.8235893296875C110.46542881367188,105.0749540296875,110.29867081367188,105.3496995296875,110.16722301367187,105.6416669296875C110.02971081367187,105.9486384296875,109.92307421367188,106.26853272968751,109.84890221367188,106.5966205296875C109.74650931367188,107.1158166296875,109.69111681367187,107.6431670296875,109.68338421367187,108.1722974296875C109.65154721367188,108.8853359296875,109.63244991367188,109.7638844296875,109.63244991367188,110.8493564296875C109.63244991367188,111.9348204296875,109.64836051367188,112.84202642968751,109.67701841367187,113.5455124296875C109.68583991367187,114.0733634296875,109.74015161367187,114.5994744296875,109.83936551367188,115.1180024296875C109.92296291367188,115.4365294296875,110.03592591367187,115.7466244296875,110.17678351367188,116.0443054296875C110.31062361367188,116.3286764296875,110.47500511367187,116.5976424296875,110.66699601367188,116.8464734296875C111.01165391367188,117.2900674296875,111.44539261367187,117.6565724296875,111.94027041367187,117.92239142968751C112.53337621367187,118.23360842968751,113.19654511367187,118.3870694296875,113.86608841367187,118.3680284296875Q116.46992851367187,118.3680284296875,117.81960151367187,115.5318174296875L117.89599751367187,115.46178642968749C117.92036451367187,115.4395094296875,117.95210551367188,115.4270324296875,117.98512651367187,115.4267704296875L121.39429751367187,115.4076564296875Z" fill="#323232" fill-opacity="1" style="mix-blend-mode:passthrough"/><path d="M128.72251220781249,121.78190760546875C128.6190224078125,121.79529160546875,128.5308714078125,121.70713960546875,128.5442543078125,121.60365060546874L128.5601649078125,103.30672600546875C128.5619450078125,103.21758910546875,128.4901652078125,103.14437080546875,128.4010048078125,103.14438680546876L122.9896023878125,103.14438680546876C122.8014901478125,103.14438680546876,122.6489976246125,102.99189420546875,122.6489976246125,102.80379010546875L122.6489976246125,100.06306520546875C122.6351137168125,99.95808155846875,122.7257207188125,99.86907196146875,122.8304420978125,99.88480758656875L137.8900630078125,99.88480758656875C137.9953010078125,99.87148793646875,138.0848360078125,99.96101410646875,138.0715160078125,100.06625206546875L138.0715160078125,102.80696890546875C138.0715000078125,102.99508120546875,137.9190240078125,103.14757370546874,137.7309110078125,103.14757370546874L132.3385982078125,103.14757370546874C132.24944590781251,103.14755770546876,132.1776581078125,103.22077610546874,132.1794462078125,103.30991290546875L132.1635275078125,121.60684560546875C132.1774120078125,121.71182060546874,132.0868044078125,121.80083060546875,131.9820909078125,121.78510260546875L128.72251220781249,121.78190760546875Z" fill="#323232" fill-opacity="1" style="mix-blend-mode:passthrough"/><path d="M140.86154301953124,121.79077931640626C140.75654347253126,121.80467031640624,140.66751798053124,121.71406331640625,140.68326950063124,121.60933331640625L140.70235888053125,100.07192738640624C140.68535168953125,99.96589469940625,140.77809651153126,99.87478701440625,140.88382719953125,99.89366976400625L144.14696671953126,99.89366976400625C144.25196621953125,99.87978585640624,144.34099171953125,99.97039286040625,144.32525611953125,100.07511424640624L144.30615091953126,121.61252031640625C144.32002691953124,121.71750431640625,144.22941181953124,121.80652231640624,144.12468261953126,121.79077931640626L140.86154301953124,121.79077931640626Z" fill="#323232" fill-opacity="1" style="mix-blend-mode:passthrough"/><path d="M148.7218017578125,110.85356487890625Q148.7218017578125,108.88635727890625,148.7759227718125,107.63854597890625C148.7930094378125,107.03054667890625,148.8418852478125,106.42385097890624,148.9223435678125,105.82094617890625C148.9896888778125,105.44648597890625,149.0909054878125,105.07890797890624,149.2247536778125,104.72275067890625C149.3567104378125,104.36546417890625,149.5174521778125,104.01947927890625,149.7054213878125,103.68822047890625L149.68951093781249,103.68822047890625C150.3133093578125,102.60440157890625,151.1781010578125,101.67862207890624,152.2169544578125,100.98251147890625C153.5051460578125,100.10877894890625,155.0383043578125,99.66834831590624,156.5938267578125,99.72515551230624C158.1388425578125,99.67585055190625,159.6591427578125,100.12201115890625,160.9325047578125,100.99842987890625C161.9721997578125,101.70084277890625,162.8421577578125,102.62626457890624,163.4790527578125,103.70731787890625C163.8422277578125,104.37303017890625,164.0948727578125,105.09332467890626,164.2270997578125,105.84005167890625C164.3214327578125,106.44604777890625,164.3777637578125,107.05735297890625,164.3957877578125,107.67038297890625Q164.4499087578125,108.92137337890625,164.4467307578125,110.88857987890626Q164.4467307578125,114.74977687890625,164.2334417578125,115.94028887890624C164.1645537578125,116.31789587890626,164.0655617578125,116.68939187890625,163.9374047578125,117.05121587890625C163.8143017578125,117.39721687890625,163.6653377578125,117.73345787890625,163.4917687578125,118.05710387890625C162.8487057578125,119.14000087890625,161.9695287578125,120.06379287890624,160.9197567578125,120.75962687890625C159.6356177578125,121.61686687890625,158.1145715578125,122.04890587890625,156.5715265578125,121.99469787890625C154.8398766578125,121.99469787890625,153.3883523578125,121.57770387890625,152.2010281578125,120.74370787890625C151.1594090578125,120.05050487890625,150.2948397578125,119.12270687890626,149.6767634778125,118.03482787890624L149.6926739778125,118.03482787890624C149.5069617678125,117.70507087890624,149.3473167378125,117.36129587890625,149.2152010478125,117.00666187890624C149.0820045478125,116.65247687890624,148.9808037878125,116.28706887890625,148.9127909278125,115.91483287890625C148.8334293278125,115.30872487890625,148.7866833958125,114.69879487890626,148.7727279628125,114.08768087890626C148.7377122228125,113.24413187890624,148.7218017578125,112.17139987890624,148.7218017578125,110.85356487890625ZM152.34426995781251,110.85356487890625C152.34426995781251,111.94858187890625,152.3601803578125,112.84623487890624,152.3888382578125,113.55289987890625C152.3962769578125,114.08084587890625,152.4506046578125,114.60707587890624,152.5511853578125,115.12538987890625C152.6333920578125,115.44333687890625,152.7463865578125,115.75250287890626,152.8885955578125,116.04851487890625C153.0206632578125,116.33414087890625,153.1840119578125,116.60423687890625,153.3756208578125,116.85386087890625C153.7205648578125,117.29718387890625,154.1542324578125,117.66364087890625,154.64890335781251,117.92977187890625C155.2420091578125,118.24099587890625,155.9051785578125,118.39446687890626,156.5747213578125,118.37541587890625C157.23881245781251,118.39456187890625,157.8966255578125,118.24217187890625,158.4846286578125,117.93295887890625C159.5485477578125,117.33932087890625,160.3091667578125,116.32052587890625,160.5759887578125,115.13175587890625Q160.8179047578125,114.17680187890625,160.8210827578125,110.86310987890624Q160.8210827578125,109.22377487890626,160.7637837578125,108.16377447890625C160.7460927578125,107.64202687890625,160.6864877578125,107.12256047890625,160.5855257578125,106.61037397890625C160.5158277578125,106.28106207890625,160.4090477578125,105.96069907890625,160.2672047578125,105.65542027890625C160.1365997578125,105.36369897890626,159.9709147578125,105.08898547890625,159.7738217578125,104.83734227890625C159.4290047578125,104.40551087890626,158.9945907578125,104.05362887890625,158.5005550578125,103.80599117890625C158.2162647578125,103.66959997890625,157.9186391578125,103.56293157890624,157.6124458578125,103.48767067890626C157.2796935578125,103.40208647890626,156.9373874578125,103.35929827890625,156.5938105578125,103.36034727890625C155.9236159578125,103.33833337890626,155.2594137578125,103.49312257890625,154.6679925578125,103.80917837890625C154.1829380578125,104.07320307890625,153.7511777578125,104.42508507890625,153.3947262578125,104.84689517890625C153.1975064578125,105.09790227890625,153.0308041578125,105.37144757890626,152.8981480578125,105.66178607890625C152.7631554578125,105.96974327890625,152.6566140578125,106.28939107890625,152.5798275578125,106.61673977890625C152.4779431578125,107.14137167890625,152.4225506578125,107.67396687890626,152.4143013578125,108.20833487890624Q152.34426995781251,109.26196957890625,152.34426995781251,110.85356487890625Z" fill="#323232" fill-opacity="1" style="mix-blend-mode:passthrough"/><path d="M169.1683247828125,121.81458837890625C169.0635954518125,121.83032437890625,168.9730122888125,121.74131437890625,168.9868882496125,121.63633137890625L169.0059776308125,100.09892430890625C168.9897015886125,99.99269294690625,169.0812066348125,99.90118789790625,169.1874300528125,99.91747983290625L172.2814831328125,99.91747983290625C172.3442986328125,99.91917260480625,172.4014077328125,99.95440292390624,172.4310987328125,100.00978755990624L181.5827326328125,114.46462037890625C181.6209896328125,114.52382737890625,181.6936116328125,114.55082537890625,181.7612436328125,114.53097237890626C181.8288756328125,114.51111937890624,181.8754146328125,114.44915437890626,181.8755896328125,114.37867837890624L181.8755896328125,100.10846900890625C181.8585666328125,100.00242836790625,181.9513106328125,99.91132863380625,182.0570256328125,99.93021138490624L185.3325156328125,99.93021138490624C185.43873963281249,99.91393534350625,185.5302446328125,100.00543244190625,185.5139676328125,100.11165585890625L185.4916836328125,121.65224837890625C185.5080546328125,121.75673337890625,185.41790163281252,121.84688537890625,185.3134266328125,121.83050737890625L182.2321046328125,121.83050737890625C182.1697816328125,121.83011837890625,182.1125136328125,121.79601437890625,182.0825056328125,121.74137837890625L172.8926613328125,107.28654477890625C172.8556587328125,107.22406337890625,172.7810654328125,107.19454717890625,172.7113359328125,107.21478887890625C172.6416065328125,107.23503827890625,172.5944154328125,107.29991197890625,172.5966248328125,107.37249467890625L172.5966248328125,121.64269637890625C172.5966248328125,121.76366237890625,172.5393250328125,121.82095337890625,172.4310987328125,121.82095337890625L169.1683247828125,121.81458837890625Z" fill="#323232" fill-opacity="1" style="mix-blend-mode:passthrough"/><path d="M14.652231577890625,88.5138667421875C14.546005166890625,88.5301497421875,14.454503099890625,88.4386537421875,14.470791061690624,88.3324227421875L14.489889382890626,66.7950232821875C14.463130871790625,66.6839361191875,14.558683074890626,66.5816744171875,14.671330887890624,66.6008512177875L22.215472687890625,66.6008512177875Q26.722857587890623,66.6008512177875,28.916067587890623,70.3219888421875C29.167735587890625,70.7632222421875,29.387924587890623,71.2216773421875,29.574987587890625,71.6939368421875C29.737009587890626,72.1043505421875,29.853366587890626,72.5313425421875,29.921955587890626,72.9672112421875C30.073820587890623,74.4997100421875,30.132285587890625,76.0400371421875,30.097030587890625,77.5796417421875Q30.097030587890625,81.23393774218749,29.836009587890626,82.4817407421875C29.673839587890626,83.34263774218749,29.335736587890626,84.16080474218751,28.842857587890627,84.8850407421875C28.153919587890627,85.9495387421875,27.226440587890625,86.8388727421875,26.133967587890623,87.4825227421875C24.875698587890625,88.2019427421875,23.444842387890624,88.5640617421875,21.995831487890626,88.5297847421875L14.652231577890625,88.5138667421875ZM18.109167787890627,70.2360389421875L18.109167787890627,84.9327867421875C18.109167787890627,85.02069274218749,18.180425187890624,85.0919477421875,18.268326087890625,85.0919477421875L21.839856187890625,85.0919477421875Q24.424601587890624,85.0919477421875,25.688321587890627,83.2902657421875C26.011666587890623,82.7844617421875,26.228305587890624,82.2179547421875,26.324958587890627,81.6254607421875C26.387815587890625,81.1439427421875,26.425008587890623,80.6594127421875,26.436371587890626,80.1739287421875Q26.480934587890623,79.2189747421875,26.477752587890627,77.7037857421875C26.477752587890627,76.7297347421875,26.461834587890625,75.9180221421875,26.436371587890626,75.2686500421875C26.410901587890624,74.6192770421875,26.363157587890626,74.1004223421875,26.315409587890628,73.7184362421875C26.220123587890626,73.0290808421875,25.957867587890625,72.3734378421875,25.551443587890624,71.80852894218751C24.701534587890627,70.6562199421875,23.466459287890626,70.0800654421875,21.855770587890625,70.0768787421875L18.268326087890625,70.0768787421875C18.180422987890626,70.0768787421875,18.109163787890626,70.1481421421875,18.109167787890627,70.2360389421875Z" fill="#323232" fill-opacity="1" style="mix-blend-mode:passthrough"/><path d="M35.08381060039063,83.66421919140625C35.15861840039062,83.59672119140625,35.277128500390624,83.61884719140625,35.322551000390625,83.70877819140625C35.92115640039062,84.61919619140625,36.952177500390626,85.15040019140625,38.04098750039063,85.10938419140625C38.899970100390625,85.08810219140625,39.731029500390626,84.79995719140625,40.41882320039063,84.28494119140625C40.823984100390625,83.99825819140625,41.132565500390626,83.59532319140625,41.30375000039062,83.12944619140625C41.507407200390624,82.55988819140624,41.605567900390625,81.95798419140625,41.59342000039062,81.35322719140625L41.59342000039062,66.81882587140625C41.580037100390626,66.71533632240624,41.66819290039062,66.62718502740626,41.77167420039063,66.64056825640625L45.05035540039063,66.64056825640625C45.158580400390626,66.64056825640625,45.215880400390624,66.70104710040626,45.215880400390624,66.81882587140625L45.215880400390624,81.68427919140625Q45.215880400390624,85.00752419140625,43.01630240039063,86.86968419140625C42.31412410039063,87.44649119140625,41.527092000390624,87.91139819140625,40.68302730039063,88.24799719140626C39.87001990039062,88.55764019140625,39.006432100390626,88.71308919140625,38.136482200390624,88.70637319140624C37.53186850039062,88.71043419140625,36.929007500390625,88.64095919140625,36.34116650039063,88.49947319140625C35.26884340039062,88.23791319140625,34.27595710039063,87.72017119140625,33.44765520039063,86.99064219140625C33.051808890390625,86.64464219140625,32.700073960390625,86.25121119140624,32.40038776439062,85.81923719140624C32.36911916729063,85.78101719140625,32.35736115789062,85.73044919140625,32.36855689669063,85.68236019140625C32.37751944839062,85.63457319140625,32.40497136139062,85.59225419140625,32.444952167390625,85.56458119140625L35.08381060039063,83.66421919140625Z" fill="#323232" fill-opacity="1" style="mix-blend-mode:passthrough"/><path d="M64.58531520703124,82.20097504296875C64.64353720703124,82.19894904296875,64.69918820703126,82.22499904296875,64.73492320703124,82.27100704296875C64.77461220703125,82.31257104296876,64.78698620703125,82.37319304296875,64.76675620703125,82.42698004296875Q64.13012320703125,85.49238404296875,61.96555620703125,87.14445704296875C61.275831207031246,87.66891504296875,60.50336320703125,88.07451204296875,59.68003620703125,88.34452104296875C58.82170200703125,88.62196904296874,57.92407990703125,88.75848804296875,57.02207470703125,88.74878304296875C55.46892070703125,88.80195004296874,53.93851570703125,88.36422204296875,52.64838530703125,87.49779304296875C51.605677607031254,86.80587004296875,50.74084590703125,85.87778704296875,50.12412065703125,84.78890604296875C49.94863265703125,84.45631204296875,49.79446726703125,84.11290204296876,49.66256218703125,83.76074004296875C49.52435889703125,83.40802404296875,49.41782951703125,83.04370504296875,49.34424161703125,82.67209004296875C49.21373128503125,81.92723104296874,49.15006955483125,80.24650704296874,49.15325244267125,77.62038204296874C49.15325244267125,76.30891324296874,49.17234977003125,75.23618034296875,49.20099973703125,74.40218444296875C49.21140273303125,73.79359724296874,49.26244814703125,73.18637704296874,49.35379424703125,72.58459284296875C49.42779937703125,72.20997334296875,49.53430890703125,71.84251494296875,49.67211085703125,71.48638914296875C49.80268871703125,71.12184714296875,49.95796280703125,70.76662734296875,50.13685220703125,70.42320894296876C50.76416320703125,69.34530284296875,51.62979360703125,68.42522964296874,52.66747860703125,67.73341844296876Q54.43096540703125,66.46014404296875,57.04435490703125,66.46014404296875Q60.16705420703125,66.46014404296875,62.21065920703125,68.38915694296875C63.54312820703125,69.60608504296874,64.43989620703125,71.22629834296875,64.76356920703125,73.00157884296875C64.78587720703125,73.05416584296876,64.77319320703126,73.11507364296875,64.73173620703125,73.15437314296875C64.69210720703126,73.19395064296874,64.63812520703125,73.21577404296875,64.58212820703125,73.21485994296874L61.15384520703125,73.21485994296874C61.07579420703125,73.22302964296875,61.004245207031246,73.17074444296875,60.98831420703125,73.09389444296875C60.85911220703125,72.69489284296876,60.67137720703125,72.31728554296875,60.43126120703125,71.97341444296875C60.17708320703125,71.61958554296875,59.87982320703125,71.29880144296875,59.54633520703125,71.01846074296876C58.85633940703125,70.40684554296875,57.95970730703125,70.08027574296875,57.03798910703125,70.10488844296874C56.37336920703125,70.08799244296875,55.71560430703125,70.24256734296875,55.12807750703125,70.55371954296875C54.64379790703125,70.81889634296876,54.21224020703125,71.17061944296876,53.85480690703125,71.59143634296875C53.65817930703125,71.84224464296875,53.49251790703125,72.11584564296875,53.36141160703125,72.40632724296876C53.22456740703125,72.71356104296875,53.11795850703125,73.03339144296875,53.04309510703125,73.36128094296875C52.93835000703125,73.88554714296875,52.88188050703125,74.41830154296875,52.87438610703125,74.95287604296875Q52.82663890703125,76.01924224296874,52.82663890703125,77.62674804296876Q52.82663890703125,79.23425304296875,52.87120320703125,80.32608304296875C52.86494090703125,80.84725904296874,52.90327860703125,81.36802004296875,52.98579910703125,81.88266304296874C53.06805350703125,82.20161104296875,53.18105220703125,82.51183304296875,53.32321690703125,82.80896604296875C53.45601220703125,83.09320804296875,53.61931320703125,83.36217704296875,53.81024260703125,83.61112604296875C54.15428880703125,84.05530704296875,54.58815480703125,84.42192304296876,55.083513307031254,84.68704404296875C55.67189030703125,84.99560504296875,56.32924600703125,85.14899604296875,56.99342440703125,85.13268804296875Q59.59089920703125,85.13268804296875,60.94693620703125,82.29647004296875C60.96953520703125,82.27111804296875,60.99520120703125,82.24866704296875,61.02333020703125,82.22962504296875C61.04703720703125,82.20591804296875,61.07894520703125,82.19224104296875,61.112463207031254,82.19143004296875L64.58531520703124,82.20097504296875Z" fill="#323232" fill-opacity="1" style="mix-blend-mode:passthrough"/><path d="M88.20051353703126,88.56582625390625C88.09602261303125,88.58220525390625,88.00586859203125,88.49205225390625,88.02225589763125,88.38756725390625L88.04135322803126,66.84698310390625C88.02506923723125,66.74075174290626,88.11657429503126,66.64925066690625,88.22279771703126,66.66553862880625L96.65186500703125,66.66553862880625C97.50870130703125,66.65489324000625,98.36146070703126,66.78501017390624,99.17612970703125,67.05070382390625C99.89516870703125,67.28879654390624,100.56342370703125,67.65909236390625,101.14651570703126,68.14253375390625C101.77147470703125,68.73135615390625,102.29142570703125,69.42246795390625,102.68399070703126,70.18613835390624C102.89143870703126,70.59190295390626,103.05471470703125,71.01877545390624,103.17101570703124,71.45941305390625C103.28993870703125,71.91567465390625,103.34984570703125,72.38531925390625,103.34927370703124,72.85682395390626C103.35197570703124,73.54183195390625,103.25109270703125,74.22330375390625,103.05005870703125,74.87814425390624C102.85141570703125,75.50856305390624,102.56647370703125,76.10844805390624,102.20332270703125,76.66072845390624C101.83625270703125,77.16569925390625,101.40136970703125,77.61771725390625,100.91095870703126,78.00402625390625C100.45213070703124,78.35753725390624,99.94649170703124,78.64571425390625,99.40849170703125,78.86030625390624C99.32057170703125,78.89374025390624,99.28066070703125,78.99572125390625,99.32255070703125,79.07994525390625C100.10561270703126,80.58559125390624,100.89504770703125,82.09123625390625,101.68765470703124,83.60961325390625Q102.91954070703125,85.96516425390625,104.13233570703125,88.29207425390625C104.16402970703125,88.35067025390626,104.16402970703125,88.42129725390625,104.13233570703125,88.47988325390625C104.10277170703125,88.53418725390625,104.04443970703124,88.56646125390625,103.98272770703124,88.56264725390625L100.09605970703124,88.56264725390625C100.06175870703125,88.56112125390625,100.02908770703125,88.54760325390625,100.00374370703125,88.52444425390625L99.93052570703125,88.45759925390625L95.57912400703125,79.44919325390624C95.55176970703126,79.39505625390625,95.49652810703125,79.36068325390625,95.43588210703125,79.36006325390625L91.81978730703125,79.36006325390625C91.73064260703126,79.35828425390625,91.65743210703125,79.43006325390625,91.65744800703125,79.51922425390624L91.65744800703125,88.37801525390626C91.67133210703125,88.48300725390625,91.58073280703125,88.57201725390625,91.47600360703125,88.55628225390625L88.20051353703126,88.56582625390625ZM91.66062690703124,70.10337545390625L91.66062690703124,75.96042915390625C91.66062690703124,76.04832645390626,91.73189040703124,76.11958985390625,91.81978730703125,76.11958985390625L96.42266460703125,76.11958985390625C97.58771320703124,76.11958985390625,98.45672470703126,75.80126955390625,99.04243270703125,75.16463565390625C99.92040870703124,74.17256065390625,100.15748370703125,72.76739315390626,99.65360270703125,71.54217575390625C99.48438970703126,71.16492605390624,99.22271670703125,70.83646485390625,98.89281670703124,70.58721425390625C98.57944770703125,70.37177915390625,98.23332670703125,70.20839885390625,97.86783120703124,70.10337545390625C97.45822810703125,69.99108025390625,97.03518580703125,69.93538575390625,96.61047550703125,69.93784925390625L91.81341360703125,69.93784925390625C91.72548480703125,69.94129845390626,91.65704270703125,70.01544665390625,91.66062690703124,70.10337545390625Z" fill="#323232" fill-opacity="1" style="mix-blend-mode:passthrough"/><path d="M107.7882881203125,83.04241716796875C107.8159604203125,83.00329416796875,107.8613553203125,82.98059616796874,107.9092457203125,82.98193916796875C107.9574222203125,82.98216216796875,108.0042634203125,82.99777816796875,108.0429430203125,83.02649916796875C108.8623636203125,83.68590116796875,109.7837801203125,84.20735516796876,110.7709360203125,84.57034716796875C111.8108148203125,84.96102716796875,112.9133177203125,85.15844516796875,114.0241499203125,85.15286616796875Q115.9340573203125,85.15286616796875,117.0609023203125,84.35707316796875C117.7346893203125,83.90487316796874,118.1317913203125,83.14066316796875,118.1145383203125,82.32937916796875Q118.1145383203125,79.95790916796875,115.45657632031251,79.59184916796875L115.4724951203125,79.59184916796875L114.7594642203125,79.50272116796874L114.0846281203125,79.41040516796875L113.3906951203125,79.31173116796874L112.6171860203125,79.20031816796875C111.7463703203125,79.08907216796875,110.8974333203125,78.84652116796875,110.0992870203125,78.48091416796875C109.3914542203125,78.15714216796874,108.7592795203125,77.68871316796876,108.2434768203125,77.10577916796875C107.7548458203125,76.54352516796875,107.3739403203125,75.89609146796874,107.1198180203125,75.19587226796875C106.8652823203125,74.48080686796875,106.7381496203125,73.72664116796875,106.7442055203125,72.96764376796875Q106.7442055203125,70.10278246796875,108.6541130203125,68.32338516796875Q110.5640206203125,66.54398790796876,113.9604759203125,66.50897216796875C114.6180029203125,66.50882116953875,115.2742262203125,66.56741253296875,115.9213183203125,66.68405086796875C116.5478423203125,66.80003356796875,117.1657443203125,66.95849448796875,117.7707463203125,67.15834486796875C118.35425932031251,67.35752767796875,118.9232853203125,67.59683636796875,119.4737463203125,67.87455426796875C120.0134063203125,68.14852896796874,120.5373313203125,68.45246496796875,121.0430493203125,68.78494766796875C121.1411023203125,68.83383126796875,121.1635783203125,68.96381716796876,121.0876183203125,69.04278136796874L119.2668393203125,71.72939296796875C119.2167623203125,71.81506486796874,119.1022183203125,71.83616496796876,119.0249153203125,71.77395346796875C118.2439513203125,71.28270816796875,117.4072453203125,70.88626576796875,116.5324883203125,70.59299466796875C115.65134832031251,70.29667236796875,114.7277546203125,70.14614276796875,113.7981367203125,70.14735076796875C113.3457055203125,70.14375856796875,112.8948879203125,70.20158316796875,112.4580178203125,70.31924266796875C112.0544624203125,70.43109276796875,111.6769504203125,70.62147806796875,111.3470907203125,70.87947846796875C110.6945390203125,71.35377266796876,110.3666734203125,72.06681106796876,110.3666734203125,73.03130956796875C110.38909292031249,73.62413736796876,110.6241102203125,74.18909406796875,111.0287699203125,74.62290476796875C111.2794909203125,74.88344856796876,111.5805659203125,75.09030056796875,111.9136920203125,75.23088736796875C112.3512459203125,75.41501046796876,112.8116641203125,75.53921886796874,113.2824611203125,75.60014246796875C113.5689449203125,75.65107626796875,113.91909412031251,75.70518966796875,114.3010807203125,75.75930306796874C114.6830673203125,75.81341556796875,115.15417382031251,75.87389466796876,115.6857683203125,75.93437386796874Q118.7639103203125,76.30999376796875,120.25363732031249,78.20717016796875C121.2191373203125,79.36454916796875,121.7455173203125,80.82535516796875,121.7401693203125,82.33256616796875Q121.7401693203125,85.36932016796875,119.6169803203125,87.08187316796875Q117.4937913203125,88.79442416796874,113.9922972203125,88.75940916796876Q109.0806439203125,88.75940916796876,105.6428070033125,85.74493216796876C105.6032454163125,85.71912016796875,105.5802539190125,85.67434516796875,105.5823202133225,85.62716116796875C105.5803254446125,85.57767316796875,105.5961246483125,85.52910016796875,105.6268965383125,85.49028616796875L107.7882881203125,83.04241716796875Z" fill="#323232" fill-opacity="1" style="mix-blend-mode:passthrough"/><path d="M65.98978615117187,88.58991860546875C65.92943843117187,88.59498760546875,65.87145105717188,88.56536860546875,65.84017451517188,88.51352860546875C65.81300274557188,88.46169660546875,65.81300274557188,88.39982560546875,65.84017451517188,88.34799360546876L73.73446370117188,66.80422178546876C73.74432610117188,66.73015308046875,73.80946210117187,66.67611153936875,73.88407900117187,66.68007723489875L76.57386170117188,66.68007723489875C76.60999870117188,66.68189716336875,76.64459370117187,66.69528833946875,76.67254370117188,66.71827983846875C76.70282270117187,66.73914941046876,76.72699870117188,66.76771990246876,76.74256670117188,66.80104286546874L84.58274670117187,88.36073260546875C84.60348870117187,88.41537860546875,84.59760870117188,88.47656460546875,84.56682770117187,88.52626060546875C84.53982370117188,88.57605760546875,84.48652070117188,88.60581160546874,84.42996070117188,88.60265760546875L80.97301870117188,88.60265760546875C80.89945770117187,88.60680560546875,80.83475970117188,88.55448960546875,80.82341070117188,88.48169160546875L79.27638470117188,83.94565760546875C79.23295970117188,83.81711160546875,79.11283670117187,83.73021460546875,78.97716070117187,83.72920560546875L71.49668310117187,83.72920560546875C71.36067290117188,83.72838760546875,71.23916720117188,83.81408260546876,71.19428060117187,83.94247960546875C70.93644710117188,84.67778560546876,70.68497090117188,85.40036960546875,70.43350310117188,86.10704260546875C70.15657190117187,86.88691760546875,69.87644580117187,87.67316660546875,69.59632800117187,88.47532460546876C69.58396980117188,88.50963360546875,69.56042220117187,88.53879160546875,69.52947540117188,88.55808860546875C69.50153280117188,88.58107160546875,69.46693830117188,88.59446360546875,69.43080190117188,88.59628260546876L65.98978615117187,88.58991860546875ZM78.05722370117188,80.29772760546875C77.68479770117187,79.18998760546874,75.92131070117188,73.95046850546875,75.39609050117187,72.38115790546875C75.37653160117188,72.31482980546875,75.31563190117187,72.26929190546875,75.24647430117187,72.26929190546875C75.17732520117187,72.26929190546875,75.11642550117188,72.31482980546875,75.09686660117188,72.38115790546875C74.53025720117188,74.06188150546875,72.59170770117187,79.81706760546875,72.42936040117188,80.28499560546875C72.39185710117188,80.38872360546875,72.46867560117188,80.49822860546875,72.57896800117187,80.49826860546875L77.90761570117188,80.49826860546875C78.01204270117188,80.49835660546876,78.08706470117187,80.39780760546876,78.05722370117188,80.29772760546875Z" fill="#323232" fill-opacity="1" style="mix-blend-mode:passthrough"/><path d="M174.70678159375,47.01467397890625L154.12750689375,53.45743087890625C153.84825519375,53.54214957890625,153.55856059375,53.36052607890625,153.51314989375,53.072265578906254L152.30036226895,45.19389515890625C152.25278981775,44.89156849890625,152.49791589375,44.62316878690625,152.80329829375,44.64320389430625L174.58262859375,46.08200037890625C174.81467259375,46.09115567890625,175.00647359375,46.26592037890625,175.03711659375,46.49610557890625C175.06776259375,46.72628687890625,174.92835059375,46.94513917890625,174.70678159375,47.01467397890625Z" fill="#FF9650" fill-opacity="1" style="mix-blend-mode:passthrough"/><path d="M181.83684139453123,77.9947146796875L156.43506050453124,57.183074979687504C156.29782676653124,57.0722179796875,156.23291333553124,56.8947276796875,156.26624425223125,56.7214927796875C156.29955927253124,56.5482535796875,156.42566680453126,56.4075030796875,156.59421283453125,56.3554482796875L181.28615939453124,48.6330509166875C181.59506939453127,48.5238115046875,181.91970039453125,48.7510561896875,181.92280039453124,49.0786949696875L182.63900939453126,77.6127376796875C182.65256739453125,77.8084146796875,182.54505739453126,77.99247367968749,182.36796039453125,78.0767936796875C182.19087839453124,78.1611236796875,181.98021139453124,78.1285626796875,181.83684139453123,77.9947146796875Z" fill="#FF9650" fill-opacity="1" style="mix-blend-mode:passthrough"/><path d="M150.32584382617188,60.20803404046875L146.91982782617188,88.71023973046874C146.89897482617187,88.90249973046875,146.76050082617186,89.06138273046875,146.57289682617187,89.10828573046875C146.3852778261719,89.15519873046875,146.18831282617188,89.08016973046875,146.07946582617188,88.92033373046876L133.91970570417186,71.58790773046874C133.77659098417186,71.38158773046875,133.82468795917188,71.09871173046875,134.0279318361719,70.95127373046876L149.59687182617188,59.78467018946875C149.74459582617186,59.67811298346875,149.94117882617186,59.66840537446875,150.09867882617186,59.75988260646875C150.25621082617187,59.85135984046875,150.34517082617188,60.02691936046875,150.32584382617188,60.20803404046875Z" fill="#FF9650" fill-opacity="1" style="mix-blend-mode:passthrough"/><path d="M149.79226320117186,55.43557831640625L137.47333461117188,64.30710631640625C137.2830129911719,64.43947631640626,137.02533021117188,64.41713531640625,136.86063066117188,64.25399431640625C136.69593111817187,64.09085231640626,136.67115148117188,63.83339131640625,136.80169359617187,63.64181931640625L148.08607720117186,47.74819658640625C148.19986520117186,47.58935022340625,148.39848420117187,47.51519807440625,148.58853520117188,47.56061283640625C148.7785872011719,47.60602759940625,148.92221020117188,47.76197321640625,148.95190120117186,47.95510020640625L149.98325220117187,54.97719861640625C150.01028920117187,55.153684116406254,149.93661820117188,55.33051491640625,149.79226320117186,55.43557831640625Z" fill="#FF9650" fill-opacity="1" style="mix-blend-mode:passthrough"/><path d="M153.92167206875,60.8721375121875L150.29604085275,91.4720649921875C150.25455602275,91.8165149921875,150.58266764875,92.0888139921875,150.91357671875,91.9845519921875L180.76547246875,82.75332799218751C180.93403446874999,82.7012729921875,181.06014246875,82.5605179921875,181.09345846875,82.3872829921875C181.12677146875,82.2140479921875,181.06184346875,82.0365619921875,180.92462546875,81.9256969921875L154.69837616875,60.5538169521875C154.56273176875,60.4430516562875,154.37735366875,60.4154268911875,154.21530846875,60.4818344111875C154.05326316875,60.5482459021875,153.94057056875,60.6980363421875,153.92167206875,60.8721375121875Z" fill="#FF9650" fill-opacity="1" style="mix-blend-mode:passthrough"/><path d="M31.42502595703125,147.08272173046876Q33.86016295703125,149.94758973046874,38.31980095703125,152.27449273046875C38.41865395703125,152.32454473046874,38.45145595703125,152.44979273046874,38.38982995703125,152.54186973046876L36.74730695703125,155.03112073046876C36.69220495703125,155.11184873046875,36.58506795703125,155.13793173046875,36.49901795703125,155.09161373046874Q29.49601995703125,151.19857173046876,26.85397695703125,145.31605573046875C26.82214295703125,145.25789773046876,26.761120957031252,145.22173673046876,26.69482295703125,145.22173673046876C26.62852095703125,145.22173673046876,26.56749495703125,145.25789773046876,26.53566095703125,145.31605573046875Q23.877704657031252,150.85478973046875,16.63278235703125,155.24440973046876C16.54605365703125,155.29535073046875,16.43468035703125,155.27028473046875,16.37812745703125,155.18710873046876L14.71014022603125,152.62145473046874C14.65094785003125,152.52996673046874,14.68343834063125,152.40740173046873,14.78016971803125,152.35725573046875C17.37561515703125,151.02722973046875,19.700756557031248,149.22562773046874,21.63674305703125,147.04452673046876C23.35300925703125,145.11570473046874,24.46051125703125,142.72237973046876,24.819922957031253,140.16567423046874C24.83528095703125,140.05345823046875,24.748559957031247,139.95327473046876,24.63529965703125,139.95240023046875L15.50593572703125,139.95240023046875C15.40397006703125,139.95240023046875,15.32131135703125,139.86973283046876,15.32131135703125,139.76776883046875L15.32131135703125,137.19895223046876C15.32131433703125,137.09698823046875,15.40397202703125,137.01432083046876,15.50593572703125,137.01432083046876L24.77536095703125,137.01432083046876C24.87856595703125,137.01611713046876,24.963183957031248,136.93292473046876,24.96316895703125,136.82970523046876L24.96316895703125,130.97900899046874C24.96139095703125,130.87580553446875,25.04457295703125,130.79119078318305,25.147791957031252,130.79119873046875L27.87577895703125,130.79119873046875C27.97900295703125,130.79119078318305,28.06218295703125,130.87580553446875,28.060404957031253,130.97900899046874L28.060404957031253,136.82968953046876C28.06040895703125,136.93165303046874,28.14306595703125,137.01432083046876,28.24502995703125,137.01432083046876L37.62268095703125,137.01432083046876C37.72464595703125,137.01432083046876,37.80730395703125,137.09697243046875,37.80730395703125,137.19893603046876L37.80730395703125,139.76776883046875C37.80730795703125,139.86973283046876,37.72464895703125,139.95238493046875,37.62268095703125,139.95238493046875L27.98082295703125,139.95238493046875L27.98082295703125,140.11155323046876C28.55083895703125,142.67870173046876,29.732402957031248,145.07021473046876,31.42502595703125,147.08272173046876Z" fill="#323232" fill-opacity="1" style="mix-blend-mode:passthrough"/><path d="M61.80515121289062,148.4862407421875C62.66565121289062,149.5805817421875,63.70925321289063,150.5175667421875,64.88965421289063,151.2555977421875C64.97625721289063,151.3100697421875,65.00074221289063,151.4253047421875,64.94377121289062,151.5102617421875L63.552723212890626,153.59842674218748C63.49465521289062,153.6866897421875,63.37523221289062,153.7097207421875,63.28851521289063,153.6493527421875C61.94220121289062,152.7203787421875,60.759029212890624,151.5748577421875,59.78701621289062,150.2592637421875C58.781315212890625,148.8492087421875,57.93675021289063,147.3308947421875,57.269118212890625,145.7327917421875C57.231010212890624,145.6372817421875,57.12123121289063,145.5925067421875,57.02719921289062,145.6341017421875L56.110439212890626,146.0320067421875C56.02771521289063,146.0657987421875,55.982794212890624,146.1556347421875,56.00539621289062,146.24210174218751C56.319167212890626,147.5985907421875,56.46773321289062,148.9880637421875,56.447857212890625,150.3802377421875C56.48658121289063,151.3191447421875,56.346140212890624,152.25686074218748,56.034042212890625,153.1432377421875C55.77295021289063,153.7961237421875,55.26519021289062,154.3198967421875,54.62070821289063,154.6011197421875C53.73107321289062,154.9419157421875,52.78077721289063,155.0957907421875,51.829057212890625,155.0531467421875L49.072422512890626,155.0531467421875C48.983572012890626,155.0522877421875,48.90704341289062,154.9902817421875,48.88779501289063,154.90352974218752L48.480349512890626,152.7357807421875C48.45832781289062,152.6218167421875,48.545708212890624,152.5160387421875,48.661790412890625,152.5161497421875L50.947314212890625,152.5161497421875C51.49784621289062,152.5378937421875,52.048263212890625,152.4701667421875,52.57710321289063,152.3156067421875C52.933234212890625,152.1975897421875,53.22028521289062,151.9302917421875,53.363349212890625,151.5834717421875C53.53901621289062,151.0863537421875,53.61684321289063,150.5599407421875,53.59254121289062,150.0332587421875C53.59254121289062,149.7340427421875,53.59254121289062,149.3488867421875,53.55752421289063,148.87457674218751C53.55461621289062,148.8051967421875,53.51302021289062,148.7433187421875,53.449867212890624,148.7144377421875C53.38671821289063,148.6855407421875,53.31270121289062,148.6945377421875,53.258305212890626,148.7377067421875C51.75548921289062,149.9101237421875,50.14007281289062,150.9305557421875,48.43578531289062,151.7840137421875C46.51757671289062,152.7714007421875,44.53655291289063,153.6316467421875,42.505516812890626,154.3592057421875C42.41597471289062,154.3896107421875,42.317790012890626,154.3487147421875,42.27632901289063,154.2637097421875L41.29591210589062,152.23602274218752C41.243245444890626,152.1341707421875,41.297064462890624,152.0096207421875,41.407325102890624,151.9781817421875C43.65219501289062,151.2990547421875,45.841294812890624,150.44769274218748,47.95512961289062,149.4316327421875C49.765719412890626,148.5716097421875,51.47856621289063,147.5193577421875,53.064133212890624,146.2930277421875C53.12423921289063,146.2426097421875,53.14810121289062,146.1609757421875,53.12461621289063,146.0861277421875C53.01320321289062,145.7359707421875,52.904973212890624,145.4494867421875,52.806295212890625,145.1916447421875C52.76176321289063,145.0836887421875,52.629436212890624,145.0436817421875,52.53254321289062,145.1088817421875C51.11411191289062,146.0700427421875,49.62428951289063,146.9213717421875,48.076087012890625,147.6554297421875C46.35017111289063,148.4858897421875,44.57361511289062,149.2067237421875,42.75699281289062,149.8136277421875C42.66302801289063,149.8459567421875,42.56032921289062,149.7981147421875,42.52461811289062,149.7054007421875L41.75428769289063,147.7350137421875C41.714245292890624,147.6354027421875,41.76896634289062,147.5229967421875,41.872066492890625,147.4930837421875C43.60941071289062,146.9841387421875,45.310876812890626,146.3599127421875,46.96515991289063,145.6245497421875C48.54938791289062,144.9333107421875,50.081342712890624,144.1279797421875,51.54893921289062,143.2148847421875C51.636300212890625,143.1579817421875,51.66059521289063,143.0408077421875,51.60305321289063,142.9538637421875C51.48527821289063,142.7787857421875,51.33884921289062,142.5687077421875,51.15740871289063,142.3172237421875C51.104090712890624,142.2464607421875,51.00856401289062,142.2225717421875,50.928216912890626,142.2599387421875C48.337004612890624,143.51764474218749,45.64263631289062,144.5506647421875,42.874771512890625,145.3476177421875C42.779992212890626,145.3772937421875,42.67872791289062,145.3266537421875,42.645579812890624,145.2330337421875L41.89435065289062,143.1862427421875C41.85941440289062,143.0830227421875,41.919400512890626,142.9718097421875,42.02486098289062,142.9443277421875Q47.410804312890626,141.5978347421875,50.896388012890625,139.8470792421875C50.973472612890625,139.8089962421875,51.01406761289063,139.7227525421875,50.99429031289063,139.6390676421875C50.97451401289062,139.5553979421875,50.89959911289063,139.4964609421875,50.813629112890624,139.4969377421875L45.95290611289062,139.4969377421875C45.85041431289063,139.4969377421875,45.76683661289063,139.4147949421875,45.76510001289063,139.3123064421875L45.76510001289063,137.4915356421875C45.76683661289063,137.3890633421875,45.85041811289062,137.3068885421875,45.95290611289062,137.3069205421875L60.43001521289062,137.3069205421875C60.53197821289062,137.3069205421875,60.61463921289062,137.3895721421875,60.61463921289062,137.4915356421875L60.61463921289062,139.3123064421875C60.61463921289062,139.4142704421875,60.53197821289062,139.4969377421875,60.43001521289062,139.4969377421875L55.57566221289063,139.4969377421875C55.535810212890624,139.4968900421875,55.496913212890625,139.5091133421875,55.46424921289062,139.5319376421875C54.81066921289062,140.0254640421875,54.131724212890624,140.4844677421875,53.43019821289062,140.9070727421875C53.333506212890626,140.9661687421875,53.31235921289063,141.0975847421875,53.385633212890625,141.1840197421875C54.02031521289062,141.9154887421875,54.56531621289062,142.7201657421875,55.00905321289063,143.5809527421875C55.05325621289062,143.6703277421875,55.161291212890625,143.7072827421875,55.25097621289063,143.6637157421875C57.51002321289063,142.5914197421875,59.70290221289062,141.3849587421875,61.81788221289062,140.0508003421875C61.905521212890626,139.9947080421875,62.022171212890626,140.0220785421875,62.07572021289063,140.1112794421875L63.27259221289063,142.1166807421875C63.324917212890625,142.2021777421875,63.299490212890625,142.3137907421875,63.21530121289062,142.3681647421875Q61.716026212890625,143.3231107421875,59.666055212890626,144.3576407421875C59.57773621289063,144.4042597421875,59.539184212890625,144.5102767421875,59.57692521289063,144.6027507421875C60.160356212890626,145.9823687421875,60.908533212890624,147.2863277421875,61.80515121289062,148.4862407421875ZM44.85789351289063,135.6230020421875L44.85789351289063,138.1918187421875C44.85789351289063,138.2937984421875,44.775233712890625,138.3764505421875,44.673270012890626,138.3764505421875L42.32089731289062,138.3764505421875C42.217693922890625,138.3782301421875,42.133079172890625,138.2950544421875,42.13309109289062,138.1918187421875L42.13309109289062,133.1369319421875C42.133079172890625,133.0337205421875,42.217693922890625,132.9505362421875,42.32089731289062,132.9523165421875L51.64761721289062,132.9523165421875C51.77568821289063,132.9490580421875,51.862981212890624,132.8213532421875,51.81950921289062,132.7008404421875C51.529838212890624,131.8923075421875,51.30701621289062,131.2843163421875,51.144677112890626,130.8736959721875C51.09957601289062,130.7617743621875,51.174261112890626,130.6378364521875,51.29428521289063,130.6254068921875L54.184613212890625,130.2720785139875C54.271803212890624,130.2601178491875,54.35500321289062,130.3124586711875,54.38197221289062,130.3962310121875C54.47110121289062,130.6636174321875,54.662090212890625,131.1792849921875,54.954943212890626,131.9368838421875L55.308276212890625,132.8345456421875C55.336549212890624,132.9048950421875,55.404351212890624,132.9513628421875,55.480168212890625,132.9523243421875L64.12250721289062,132.9523243421875C64.22447621289062,132.9523243421875,64.30713821289062,133.0349841421875,64.30713421289062,133.1369400421875L64.30713421289062,138.2300295421875C64.30713421289062,138.3319768421875,64.22447621289062,138.4146452421875,64.12250721289062,138.4146452421875L61.766956212890626,138.4146452421875C61.662515212890625,138.4182529421875,61.575910212890626,138.3345365421875,61.57596221289063,138.2300295421875L61.57596221289063,135.6357336421875C61.57596221289063,135.5337696421875,61.49330321289062,135.4511180421875,61.39133821289062,135.4511180421875L45.042516912890626,135.4511180421875C44.94532561289063,135.4508795421875,44.86459711289063,135.5260448421875,44.85789351289063,135.6230020421875Z" fill="#323232" fill-opacity="1" style="mix-blend-mode:passthrough"/><path d="M91.67629789453125,148.1487903046875L91.67629789453125,150.6444133046875C91.67629789453125,150.7463763046875,91.59363789453124,150.8290293046875,91.49167489453126,150.8290293046875L82.37822789453125,150.8290293046875C82.27678089453124,150.8272473046875,82.19358789453125,150.9090103046875,82.19360489453125,151.0104653046875L82.19360489453125,155.1295113046875C82.19360489453125,155.2314763046875,82.11094489453126,155.3141273046875,82.00898089453125,155.3141273046875L79.40195389453125,155.3141273046875C79.29998989453125,155.3141273046875,79.21732989453125,155.2314763046875,79.21732989453125,155.1295113046875L79.21732989453125,151.0041063046875C79.21915089453125,150.9031603046875,79.13683989453125,150.8208423046875,79.03588589453125,150.8226703046875L68.35631528453125,150.8226703046875C68.25435161553125,150.8226703046875,68.17169189453125,150.7400193046875,68.17169189453125,150.63803830468748L68.17169189453125,148.1487903046875C68.17169189453125,148.0468273046875,68.25435161553125,147.9641743046875,68.35631528453125,147.9641743046875L79.01996689453125,147.9641743046875C79.12143089453124,147.9641913046875,79.20319189453124,147.8809983046875,79.20141989453126,147.7795603046875L79.20141989453126,144.8096423046875C79.20319189453124,144.7082033046875,79.12143089453124,144.6250113046875,79.01996689453125,144.6250273046875L70.94742439453125,144.6250273046875C70.84546089453124,144.6250273046875,70.76280119453125,144.5423753046875,70.76280119453125,144.4404113046875L70.76280119453125,141.9352533046875C70.76276139453125,141.8958663046875,70.77623989453124,141.8576553046875,70.80099579453125,141.8270263046875C71.93128249453125,140.2878284046875,72.93412689453125,138.6590004046875,73.79955439453126,136.9567232046875C73.86299749453124,136.8335242046875,73.77574439453124,136.6863885046875,73.63721509453126,136.6829872046875L69.07889837453125,136.6829872046875C68.97744333453124,136.6847515046875,68.89425116453125,136.6030054046875,68.89427501453125,136.5015345046875L68.89427501453125,134.0918698046875C68.89427501453125,133.9899061046875,68.97693473453126,133.9072385046875,69.07889837453125,133.9072385046875L75.18423369453124,133.9072385046875C75.25761889453125,133.9069364046875,75.32385159453125,133.8631947046875,75.35294679453125,133.7958333046875Q76.24742129453125,131.7904313046875,76.64213179453125,130.6126515046875C76.67103579453125,130.5248657836875,76.76225469453125,130.4737250026875,76.85222629453125,130.4948727287875L79.57384589453125,131.0328324446875C79.68509189453125,131.0551245846875,79.75009289453125,131.1715364446875,79.71072189453125,131.2779346746875Q79.27780889453125,132.3729514046875,78.72711789453125,133.6462178046875C78.67534889453125,133.7683995046875,78.76316689453125,133.9042661046875,78.89583089453124,133.9072385046875L90.74362789453124,133.9072385046875C90.84559289453125,133.9072385046875,90.92825889453125,133.9899061046875,90.92825089453125,134.0918698046875L90.92825089453125,136.5015345046875C90.92827589453125,136.6030054046875,90.84508289453125,136.6847515046875,90.74362789453124,136.6829872046875L77.39336489453125,136.6829872046875C77.32374669453125,136.6842270046875,77.26032729453125,136.7232480046875,77.22783849453126,136.7848391046875C76.40437219453125,138.4349341046875,75.48717639453125,140.0365667046875,74.48075579453125,141.5819003046875C74.44275189453126,141.6378813046875,74.43906449453125,141.7103603046875,74.47117949453126,141.7699173046875C74.50330209453125,141.8294583046875,74.56588699453125,141.8662073046875,74.63354249453126,141.8652053046875L79.01996689453125,141.8652053046875C79.12143789453125,141.8652373046875,79.20319989453125,141.7820453046875,79.20141989453126,141.6805893046875L79.20141989453126,138.1599741046875C79.20141989453126,138.0580106046875,79.28407189453125,137.9753585046875,79.38604389453126,137.9753585046875L82.00898089453125,137.9753585046875C82.11095189453125,137.9753585046875,82.19360489453125,138.0580106046875,82.19360489453125,138.1599741046875L82.19360489453125,141.6901113046875C82.19360489453125,141.7920743046875,82.27627189453125,141.8747423046875,82.37823589453124,141.8747423046875L89.43534689453125,141.8747423046875C89.53730989453125,141.8747423046875,89.61996089453125,141.9573933046875,89.61996989453125,142.0593573046875L89.61996989453125,144.4403803046875C89.61996089453125,144.5423443046875,89.53730989453125,144.6249953046875,89.43534689453125,144.6249953046875L82.37822789453125,144.6249953046875C82.27626389453125,144.6249953046875,82.19360489453125,144.70766330468751,82.19360489453125,144.8096263046875L82.19360489453125,147.7795433046875C82.19360489453125,147.8815233046875,82.27626389453125,147.9641743046875,82.37822789453125,147.96415930468748L91.49804089453124,147.96415930468748C91.59751689453125,147.9676073046875,91.67635389453125,148.0492593046875,91.67629789453125,148.1487903046875Z" fill="#323232" fill-opacity="1" style="mix-blend-mode:passthrough"/><path d="M101.75096960703125,145.00277378046874L98.16292920703125,145.00277378046874C98.06135495003124,145.00278978046876,97.97951380423125,144.91951798046875,97.98129399617424,144.81796768046874L97.98129399617424,141.22992706046875C97.97951380423125,141.12836074846874,98.06135495003124,141.04508908589776,98.16292920703125,141.04510498046875L101.75096960703125,141.04510498046875C101.85303660703126,141.04510498046875,101.93578390703125,141.12785211946874,101.93578390703125,141.22992706046875L101.93578390703125,144.81796768046874C101.93578390703125,144.92002658046874,101.85303660703126,145.00277378046874,101.75096960703125,145.00277378046874Z" fill="#323232" fill-opacity="1" style="mix-blend-mode:passthrough"/><path d="M112.43586541953125,143.30274840625Q110.54505491953125,141.74298240625,108.13538233153125,139.87764360625C108.05641810133125,139.81500340625,108.04096857853125,139.70121380625,108.10037453853126,139.61980250625L109.56145121953125,137.66850520625C109.62336851953125,137.58653690625,109.73966911953124,137.56951380625,109.82247181953124,137.63031050625Q111.95202661953125,139.24100300625,114.17706771953125,140.98538440625C114.25601621953125,141.04802540625,114.27145771953126,141.16181340625,114.21207571953126,141.24322640625L112.70006461953125,143.26771740625C112.63906951953125,143.35423140625,112.51727721953125,143.37036440625,112.43586541953125,143.30274840625ZM108.48235287953125,153.82633740625L111.82150031953125,145.14580440625C111.86118911953125,145.05011840625,111.96993971953125,145.00350040625,112.06660271953125,145.04077240625L114.47627491953125,146.04984040625C114.56774851953125,146.08679440625,114.61400941953124,146.18913940625,114.58131451953125,146.28221840625L111.36949041953125,154.99139440625C111.33241631953125,155.08965540625,111.22197291953125,155.13842040625,111.12438821953126,155.09962040625L108.57783948953124,154.06509040625C108.48797159953125,154.02319340625002,108.44616093953125,153.91865340625,108.48235287953125,153.82633740625ZM113.23165891953126,136.43343350625Q112.15892601953125,135.59944530625,109.15400181953125,133.38076970625C109.07336071953125,133.32008410625,109.05383425953124,133.20715330625,109.10943341953126,133.12292790625L110.52913661953124,131.09842836625C110.58888431953125,131.01629316625,110.70311851953124,130.99654418625,110.78697041953124,131.05386000625L111.74192401953125,131.72233010625Q112.30534691953125,132.12341370625,113.39718481953125,132.92557290625C114.03381821953126,133.39668010625,114.53994081953125,133.76910570625,114.89328531953124,134.04605270625C114.96902271953125,134.10607080625,114.98568821953126,134.21434450625,114.93147991953126,134.29434180625L113.50859781953125,136.39204410625C113.45098021953125,136.49089240625,113.31737801953125,136.51239780625,113.23165891953126,136.43343350625L113.23165891953126,136.43343350625ZM113.81417891953124,138.67757220625C113.75302461953125,138.60974980625,113.75302461953125,138.50667380625,113.81417891953124,138.43883510625C114.80185941953125,137.26363850625,115.68384931953125,136.00350090625,116.44984821953125,134.67314150625C117.22506621953124,133.36557440625,117.85687541953125,131.97816110625,118.33430101953125,130.53499761625C118.36335701953125,130.44398530225,118.45800901953125,130.39108816925,118.55075401953125,130.41403992935L121.06546501953125,131.01883631625C121.17408801953125,131.04432326625,121.23547401953125,131.15959071625,121.19597501953125,131.26393854625C121.05273301953125,131.63319320625,120.85537101953125,132.12021890625,120.60391001953126,132.73138090625C120.55140301953125,132.85296650625,120.64018201953125,132.98865840625,120.77261501953124,132.98922280625L130.80600701953125,132.98922280625C130.90796501953125,132.98923060625,130.99062301953126,133.07187460625,130.99062301953126,133.17383810625L130.99062301953126,135.47527690625C130.99062301953126,135.57724050625,130.90796501953125,135.65989210625,130.80600701953125,135.65990830625L119.26379201953125,135.65990830625C119.19705001953125,135.65943150625,119.13562601953124,135.69627480625,119.10463101953125,135.75540260625C118.84043201953125,136.23287580625,118.55076901953124,136.73899030625,118.22926101953125,137.27376320625C118.15651201953125,137.39678720625,118.24237401953125,137.55276060625,118.38523501953125,137.55708410625L129.27807801953125,137.55708410625C129.38004301953126,137.55708410625,129.46270201953126,137.63973570625,129.46270201953126,137.74169970625L129.46270201953126,139.93491170625C129.46270201953126,140.03687570625,129.38004301953126,140.11952780625,129.27807801953125,140.11952780625L118.11147501953126,140.11952780625C118.00951101953125,140.11952780625,117.92686751953124,140.03687570625,117.92685131953125,139.93491170625L117.92685131953125,138.39107230625C117.92681221953126,138.30892900625,117.87251571953125,138.23668810625,117.79361531953126,138.21383190625C117.71471501953125,138.19097570625,117.63021091953125,138.22298720625,117.58624651953124,138.29239890625Q116.73316101953125,139.59112830625,115.89916511953125,140.69251040625C115.82415051953124,140.78096340625,115.68769601953124,140.78096340625,115.61268141953126,140.69251040625L113.81417891953124,138.67757220625ZM132.05699001953124,149.15342940625C132.13419001953125,149.18960540625,132.17732801953125,149.27327540625,132.16202901953125,149.35715140625C132.02197501953125,150.10837540625,131.85962701953125,150.82458540625,131.66545901953126,151.51216840625C131.50980401953126,152.10505140625,131.30866601953124,152.68504540625,131.06383301953124,153.24699740625C130.87327401953127,153.82859640625,130.54576701953124,154.35588240625,130.10888101953125,154.78447940625C129.72431201953125,155.11681940625,129.22908401953126,155.29288340624998,128.72101401953125,155.27786240625Q126.98936501953125,155.27786240625,126.07897801953125,153.53985440625002Q124.89802001953124,151.40394240625,124.90119901953125,146.70555540625L124.90119901953125,144.79564640625C124.90120701953126,144.69368240625,124.81854601953125,144.61103140625,124.71657601953125,144.61103140625L115.41213941953126,144.61103140625C115.31018401953125,144.61103140625,115.22750801953126,144.52836340625,115.22752431953126,144.42640040625L115.22752431953126,142.11224540625C115.22750801953126,142.01028240625,115.31016781953124,141.92761440625,115.41213941953126,141.92761440625L127.62282601953125,141.92761440625C127.72479101953125,141.92761440625,127.80744901953125,142.01028240625,127.80744201953125,142.11224540625L127.80744201953125,146.18670740625Q127.80744201953125,149.49721340625,128.10030001953126,150.67180640625C128.15294301953125,150.99785240625,128.23824901953125,151.31777740625,128.35494601953124,151.62676840625Q128.47591201953125,151.89414640625,128.67326701953124,151.89414640625C128.83643101953126,151.88235240625,128.98200201953125,151.78730440625,129.05843201953124,151.64267940625C129.22039001953124,151.35570140625,129.33334301953124,151.04370640625,129.39266201953126,150.71955340625C129.39266201953126,150.68453740625,129.52953101953125,149.91102840625,129.80329101953126,148.39265240625C129.82568701953124,148.27342640625,129.95352701953124,148.20640040625,130.06432001953124,148.25576740625002L132.05699001953124,149.15342940625Z" fill="#323232" fill-opacity="1" style="mix-blend-mode:passthrough"/><path d="M158.44557983203126,148.1486703046875L158.44557983203126,150.6442933046875C158.44559683203124,150.7462573046875,158.36292883203126,150.8289093046875,158.26096583203125,150.8289093046875L149.14750983203126,150.8289093046875C149.04729483203124,150.8289093046875,148.96607283203124,150.9101463046875,148.96607283203124,151.0103603046875L148.96607283203124,155.12939230468749C148.96607283203124,155.2313553046875,148.88342183203125,155.3140243046875,148.78144183203125,155.3140243046875L146.15850483203124,155.3140243046875C146.05655683203125,155.3140243046875,145.97388883203126,155.2313553046875,145.97388883203126,155.12939230468749L145.97388883203126,151.0039883046875C145.97390483203125,150.9025323046875,145.89071283203126,150.8207703046875,145.78927283203126,150.8225513046875L135.12878418203124,150.8225513046875C135.02682049603126,150.8225513046875,134.94416872660224,150.7398983046875,134.94415283203125,150.6379353046875L134.94415283203125,148.1486703046875C134.94416872660224,148.0467223046875,135.02682049603126,147.9640713046875,135.12878418203124,147.9640563046875L145.78925683203124,147.9640563046875C145.89120483203124,147.9640563046875,145.97387283203125,147.8814033046875,145.97387283203125,147.7794403046875L145.97387283203125,144.8095393046875C145.97388883203126,144.7075753046875,145.89122083203125,144.6249083046875,145.78925683203124,144.6249083046875L137.71988533203125,144.6249083046875C137.61793753203125,144.6249083046875,137.53526993203124,144.5422563046875,137.53526993203124,144.4402923046875L137.53526993203124,141.9351343046875C137.53568313203124,141.8963513046875,137.54790613203124,141.8586013046875,137.57028583203126,141.8269073046875C138.70283743203126,140.2892351046875,139.70580103203125,138.6602163046875,140.56884433203126,136.9566197046875C140.63680933203125,136.83330960468749,140.54729123203126,136.6823592046875,140.40649703203124,136.6828680046875L135.84817248203126,136.6828680046875C135.74722606203125,136.6846800046875,135.66492396203125,136.6023779046875,135.66673595203125,136.5014152046875L135.66673595203125,134.0917506046875C135.66495573203125,133.9903114046875,135.74671739203126,133.9071033046875,135.84817248203126,133.9071352046875L141.95351553203125,133.9071352046875C142.02734613203125,133.9056888046875,142.09394403203126,133.8625190046875,142.12541533203125,133.7957141046875Q143.01352503203125,131.7903200046875,143.41459273203125,130.6125322946875C143.44215393203126,130.5252075196875,143.53233913203124,130.4738601056875,143.62150763203124,130.4947614669875L146.34311983203125,131.0327211646875C146.45589183203126,131.0528834446875,146.52198083203126,131.1712265046875,146.48000383203126,131.2778233846875Q146.04708283203126,132.3728322046875,145.49639983203124,133.6492934046875C145.44386883203126,133.7708709046875,145.53267083203124,133.9065788046875,145.66510483203126,133.9071352046875L157.51290283203124,133.9071352046875C157.61486583203126,133.9071352046875,157.69753483203124,133.9897869046875,157.69753483203124,134.0917506046875L157.69753483203124,136.5014152046875C157.69754983203126,136.6028862046875,157.61435683203126,136.6846480046875,157.51290283203124,136.6828680046875L144.16265483203125,136.6828680046875C144.09397413203124,136.6845684046875,144.03171543203126,136.7236376046875,144.00030713203125,136.7847362046875C143.17466353203125,138.4342904046875,142.25643443203126,140.0358591046875,141.25003763203125,141.5817813046875C141.21203373203124,141.6377783046875,141.20834633203125,141.7102413046875,141.24045323203126,141.7697983046875C141.27257633203126,141.8293393046875,141.33516933203126,141.8660883046875,141.40283253203125,141.8650863046875L145.78925683203124,141.8650863046875C145.89122083203125,141.8650863046875,145.97388883203126,141.7824343046875,145.97387283203125,141.6804703046875L145.97387283203125,138.1598549046875C145.97387283203125,138.0578914046875,146.05652383203125,137.9752393046875,146.15848783203126,137.9752393046875L148.78142683203126,137.9752393046875C148.88338983203124,137.9752393046875,148.96605783203125,138.0578914046875,148.96605783203125,138.1598549046875L148.96605783203125,141.6900073046875C148.96604183203124,141.7907473046875,149.04676983203126,141.8728903046875,149.14749383203124,141.8746233046875L156.20460483203124,141.8746233046875C156.30656783203125,141.8746383046875,156.38921883203125,141.9572743046875,156.38923683203126,142.0592383046875L156.38923683203126,144.4402613046875C156.38921883203125,144.5422253046875,156.30656783203125,144.6248763046875,156.20460483203124,144.6248923046875L149.14750983203126,144.6248923046875C149.04680183203124,144.6266253046875,148.96605783203125,144.7087683046875,148.96607283203124,144.8095073046875L148.96607283203124,147.7794243046875C148.96605783203125,147.8801633046875,149.04680183203124,147.9623223046875,149.14750983203126,147.9640563046875L158.26096583203125,147.9640563046875C158.36292883203126,147.9640563046875,158.44559683203124,148.0467223046875,158.44557983203126,148.1486703046875Z" fill="#323232" fill-opacity="1" style="mix-blend-mode:passthrough"/><path d="M179.9521715703125,149.64517973046875C179.87554357031252,149.64220773046875,179.8045745703125,149.68537673046876,179.7719595703125,149.75478973046876C179.7393265703125,149.82420173046876,179.7513755703125,149.90639073046876,179.8025725703125,149.96350073046875C180.3702945703125,150.63043773046874,181.0621855703125,151.18070773046875,181.8398265703125,151.58373073046874C182.9600755703125,152.14978373046876,184.1503085703125,152.56507673046875,185.3795165703125,152.81881673046874C185.4854855703125,152.84213473046876,185.54968257031248,152.95012273046876,185.5195785703125,153.05435973046875L184.8829385703125,155.20301973046875C184.8537085703125,155.29922873046874,184.7548755703125,155.35629073046874,184.6569325703125,155.33351373046875Q180.2004755703125,154.25441573046874,177.9276785703125,151.37363673046875C177.8550895703125,151.27744073046875,177.7106075703125,151.27744073046875,177.6380175703125,151.37363673046875Q175.6739885703125,153.92018473046875,170.6095485703125,155.35261873046875C170.5140380703125,155.38022773046876,170.4135370703125,155.32858673046874,170.3803653703125,155.23484073046876L169.8742341703125,153.81195873046875C169.8499631703125,153.74489973046875,169.7898177703125,153.69737473046874,169.7189597703125,153.68928373046876C169.6481017703125,153.68119473046875,169.5787858703125,153.71392073046874,169.5400028703125,153.77376373046874C169.3904037703125,154.02767973046875,169.1688489703125,154.23149473046874,168.9033779703125,154.35946273046875C168.3577966703125,154.58233673046874,167.7698406703125,154.68231373046876,167.1812648703125,154.65232073046874L165.3827781703125,154.65232073046874C165.2937841703125,154.65370373046875,165.2169499703125,154.59033173046876,165.2013253703125,154.50271973046875L164.7684209703125,152.36680773046874C164.7464546703125,152.25106473046876,164.8352417703125,152.14390173046874,164.9530365703125,152.14398173046874L166.3058709703125,152.14398173046874C166.8374652703125,152.14398173046874,167.1780700703125,152.08030873046874,167.3181328703125,151.95617073046876C167.4581799703125,151.83203473046876,167.5345849703125,151.53917673046874,167.5345849703125,151.07443573046874L167.5345849703125,147.16230573046874C167.5328841703125,147.05929173046874,167.4497875703125,146.97619673046876,167.3467750703125,146.97449473046873L165.2235936703125,146.97449473046873C165.1247136703125,146.97603573046877,165.0439851703125,147.05399873046875,165.0389625703125,147.15275173046876C164.9638607703125,148.65175473046875,164.7669110703125,150.14213973046876,164.4500686703125,151.60920873046877C164.1842160703125,152.76325073046874,163.7857868703125,153.88267373046875,163.2627441703125,154.94517673046875C163.2073197703125,155.05484973046876,163.0642368703125,155.08441373046875,162.9698866703125,155.00565673046876L161.2127895353125,153.53184873046874C161.1485595703125,153.47659873046877,161.1301854453125,153.38474473046875,161.1682211553125,153.30902273046874C161.5608170603125,152.50090973046875,161.8803933303125,151.65932473046874,162.1231669803125,150.79430973046874C162.3700414703125,149.76531173046874,162.5213577703125,148.71571373046874,162.5751926703125,147.65886673046876Q162.7088819703125,145.72031773046876,162.7088819703125,142.06284973046874L162.7088819703125,132.04855463046874C162.7088819703125,131.94483473046876,162.7929641703125,131.86074443046874,162.8966921703125,131.86074443046874L169.6800498703125,131.86074443046874C169.7845248703125,131.85893253046876,169.8696880703125,131.94408763046874,169.8678607703125,132.04855463046874L169.8678607703125,152.07712973046876C169.8678607703125,152.23629773046875,169.8678607703125,152.43046573046874,169.8392181703125,152.66602373046874C169.8273925703125,152.79739173046875,169.9511318703125,152.89968873046874,170.0779552703125,152.86338573046874C171.3428445703125,152.55436373046876,172.5671715703125,152.09817273046875,173.7258705703125,151.50416173046875C174.4567025703125,151.12396473046874,175.0997335703125,150.59478573046874,175.6134935703125,149.95076973046875C175.6681545703125,149.89472573046874,175.6823165703125,149.81062673046875,175.6490185703125,149.73976873046874C175.6157025703125,149.66889573046876,175.5419355703125,149.62613873046874,175.4638775703125,149.63244773046875L170.6891174703125,149.63244773046875C170.5866126703125,149.63246573046874,170.5030393703125,149.55030673046875,170.5013065703125,149.44783373046874L170.5013065703125,147.47107273046876C170.5030078703125,147.36807673046874,170.5861043703125,147.28497873046877,170.6891174703125,147.28327973046873L176.4570345703125,147.28327973046873L176.4570345703125,147.22915873046875C176.4729455703125,147.06681073046875,176.4824975703125,146.66890573046874,176.4824975703125,146.03228073046876C176.4861055703125,145.92783773046875,176.4023885703125,145.84121273046875,176.2978825703125,145.84127473046874L171.8095895703125,145.84127473046874C171.7063695703125,145.84130773046874,171.6231935703125,145.75668473046875,171.6249735703125,145.65348173046874L171.6249735703125,137.22759393046874C171.6249575703125,137.12563033046874,171.7076255703125,137.04297873046875,171.8095895703125,137.04297873046875L183.8292865703125,137.04297873046875C183.9312495703125,137.04297873046875,184.01391757031251,137.12563033046874,184.01391757031251,137.22759393046874L184.01391757031251,145.66621273046874C184.0156825703125,145.76941573046875,183.9325215703125,145.85402273046876,183.8292865703125,145.85402273046876L179.2200505703125,145.85402273046876C179.1163235703125,145.85573973046874,179.0336245703125,145.94126773046875,179.0354195703125,146.04501273046876C179.0354195703125,146.63708473046876,179.0354195703125,147.04452673046876,179.0067615703125,147.27053073046875L179.0067615703125,147.29599373046875L185.0866435703125,147.29599373046875C185.1891305703125,147.29772773046875,185.2713055703125,147.38129973046875,185.2712745703125,147.48380473046876L185.2712745703125,149.46056573046874C185.2712745703125,149.56251373046877,185.18860657031252,149.64517973046875,185.0866435703125,149.64517973046875L179.9521715703125,149.64517973046875ZM167.5377640703125,137.97564033046876L167.5377640703125,134.63967183046876C167.5377640703125,134.53594373046874,167.4536814703125,134.45186163046876,167.3499536703125,134.45186163046876L165.3190884703125,134.45186163046876C165.2153606703125,134.45186163046876,165.1312782703125,134.53594373046874,165.1312782703125,134.63967183046876L165.1312782703125,137.97564033046876C165.1312782703125,138.07936813046874,165.2153606703125,138.16345073046875,165.3190884703125,138.16345073046875L167.3499536703125,138.16345073046875C167.4486746703125,138.15674303046876,167.5252547703125,138.07459973046875,167.5250324703125,137.97564033046876L167.5377640703125,137.97564033046876ZM165.3095359703125,144.43748273046876L167.3404168703125,144.43748273046876C167.4429049703125,144.43749873046875,167.5264787703125,144.35533973046876,167.5282110703125,144.25286773046875L167.5282110703125,140.99328773046875C167.5265106703125,140.89027573046874,167.4434137703125,140.80719473046875,167.3404168703125,140.80549473046875L165.3095359703125,140.80549473046875C165.2065229703125,140.80719473046875,165.1234261703125,140.89027573046874,165.1217255703125,140.99328773046875L165.1217255703125,144.25286773046875C165.1234261703125,144.35411573046875,165.2051086703125,144.43578273046876,165.3095359703125,144.43748273046876L165.3095359703125,144.43748273046876ZM176.1514615703125,136.39994813046874L174.0410115703125,136.39994813046874C173.9365365703125,136.40176013046874,173.8513895703125,136.31661273046876,173.8532015703125,136.21215343046876L173.8532015703125,135.38452343046876C173.8532175703125,135.28128813046874,173.7685945703125,135.19811153046874,173.6653905703125,135.19989203046876L170.9437799703125,135.19989203046876C170.8400516703125,135.19989203046876,170.7559699703125,135.11580943046874,170.7559699703125,135.01209733046875L170.7559699703125,133.03533743046876C170.7559699703125,132.93161723046876,170.8400516703125,132.84754303046876,170.9437799703125,132.84753513046874L173.6653905703125,132.84753513046874C173.7698655703125,132.84934713046874,173.8550295703125,132.76419183046875,173.8532015703125,132.65972483046875L173.8532015703125,130.97900899046874C173.8531855703125,130.87528896346876,173.9372685703125,130.79119873046875,174.0410115703125,130.79119873046875L176.1482665703125,130.79119873046875C176.2519945703125,130.79119873046875,176.3360765703125,130.87528896346876,176.3360765703125,130.97900899046874L176.3360765703125,132.65972483046875C176.3360765703125,132.76344483046876,176.4201595703125,132.84753513046874,176.5238865703125,132.84753513046874L179.2200205703125,132.84753513046874C179.3244955703125,132.84936283046875,179.4096735703125,132.76419183046875,179.4078465703125,132.65972483046875L179.4078465703125,130.97900899046874C179.4078465703125,130.87528896346876,179.4919285703125,130.79119873046875,179.5956555703125,130.79119873046875L181.6774485703125,130.79119873046875C181.78117557031248,130.79119873046875,181.8652575703125,130.87528101346874,181.8652745703125,130.97900899046874L181.8652745703125,132.65972483046875C181.8634625703125,132.76419183046875,181.94862557031252,132.84934713046874,182.0530835703125,132.84753513046874L184.9879685703125,132.84753513046874C185.0916975703125,132.84752703046874,185.1757945703125,132.93160943046874,185.1757945703125,133.03533743046876L185.1757945703125,135.01209733046875C185.1757945703125,135.11582563046875,185.0916975703125,135.19990773046874,184.9879685703125,135.19989203046876L182.0530835703125,135.19989203046876C181.9498805703125,135.19811153046874,181.8652575703125,135.28128813046874,181.8652745703125,135.38452343046876L181.8652745703125,136.21215343046876C181.8670695703125,136.31661273046876,181.7819235703125,136.40177583046875,181.6774485703125,136.39994813046874L179.5956555703125,136.39994813046874C179.4911975703125,136.40177583046875,179.4060345703125,136.31661273046876,179.4078465703125,136.21215343046876L179.4078465703125,135.38452343046876C179.4078615703125,135.28128813046874,179.3232385703125,135.19811153046874,179.2200205703125,135.19989203046876L176.5238865703125,135.19989203046876C176.4213995703125,135.19987583046876,176.3378245703125,135.28203483046875,176.3360925703125,135.38452343046876L176.3360925703125,136.21215343046876C176.3379045703125,136.31661273046876,176.2527415703125,136.40177583046875,176.1514615703125,136.39994813046874L176.1514615703125,136.39994813046874ZM181.5851475703125,140.35348413046876L181.5851475703125,139.28393843046874C181.5851635703125,139.18071933046875,181.5005415703125,139.09752653046874,181.3973365703125,139.09932323046874L174.3084055703125,139.09932323046874C174.2051865703125,139.09754273046875,174.1205795703125,139.18071933046875,174.1205955703125,139.28393843046874L174.1205955703125,140.35348413046876C174.1205795703125,140.45719623046875,174.2046785703125,140.54129413046874,174.3084055703125,140.54129413046874L181.4100685703125,140.54129413046874C181.5087905703125,140.53457073046874,181.5853865703125,140.45242783046876,181.5851475703125,140.35348413046876ZM181.3973365703125,142.30158573046876L174.3084055703125,142.30158573046876C174.2046785703125,142.30158573046876,174.1205795703125,142.38566873046875,174.1205955703125,142.48939673046874L174.1205955703125,143.55576373046875C174.1187835703125,143.66022173046875,174.2039305703125,143.74536973046875,174.3084055703125,143.74357273046874L181.4100685703125,143.74357273046874C181.5145435703125,143.74540173046876,181.5997235703125,143.66023873046876,181.5978945703125,143.55576373046875L181.5978945703125,142.48939673046874C181.5978945703125,142.38566873046875,181.5138125703125,142.30158573046876,181.4100685703125,142.30158573046876L181.3973365703125,142.30158573046876Z" fill="#323232" fill-opacity="1" style="mix-blend-mode:passthrough"/></g></svg>