<svg xmlns="http://www.w3.org/2000/svg" xmlns:xlink="http://www.w3.org/1999/xlink" fill="none" version="1.1" width="200" height="200" viewBox="0 0 200 200"><defs><clipPath id="master_svg0_229_3825"><rect x="-3.780083179473877" y="-3.780083179473877" width="207.56016635894775" height="207.56016635894775" rx="0"/></clipPath></defs><g clip-path="url(#master_svg0_229_3825)"><path d="M145.32314349609373,120.08735809375L127.42823049609375,120.25368509375C125.42478949609375,120.25368509375,124.16223949609375,118.33340809375,125.16017949609375,116.79112609375L134.13410149609376,102.98626589375C135.22893549609375,101.45939729375,137.49975549609377,101.45939729375,138.59458949609376,102.98626589375L147.49290449609373,116.59456609375C148.49085949609375,118.15195809375,147.27366649609377,120.06468009375,145.32314349609373,120.08735809375ZM109.03434749609374,129.24272109375L91.13943449609374,129.40904609375C89.13599049609374,129.40904609375,87.87344349609376,127.49632609375,88.87138749609375,125.95404409375L97.86042049609375,112.16429609375C98.95526149609375,110.63742809375,101.22608149609374,110.63742809375,102.32091949609375,112.16429609375L111.21923449609375,125.77259609375C112.20961749609376,127.31487609375,110.99242749609374,129.22761009375,109.03434749609374,129.24272109375ZM72.82114749609374,118.18220509375L54.93379549609375,118.34853209375C52.93035006609375,118.34853209375,51.66780364609375,116.42825309375,52.66574537609375,114.88597309375L61.65478519609375,101.10379169375C62.74633549609375,99.57672703375,65.01616749609374,99.57672703375,66.10772349609375,101.10379169375L75.01359949609375,114.71209109375C76.01910249609375,116.24679409375,74.80191449609376,118.15952709375,72.82114749609374,118.18220509375Z" fill-rule="evenodd" fill="#000000" fill-opacity="1" style="mix-blend-mode:passthrough"/><path d="M42.91655420234375,56.0406951625L42.91707350234375,56.0400361625Q46.38920120234375,58.7740921825,52.59573840234375,62.2586006625Q65.10385540234375,69.2809770625,78.53136840234376,72.7864260625Q121.19476340234375,83.92433406250001,157.19014740234377,56.0212232625L157.19065740234373,56.0218863625Q157.43742740234376,55.8305978625,157.71223740234376,55.6823999625Q157.98704740234376,55.5342020625,158.28245740234377,55.433112862499996Q158.57785740234374,55.3320236625,158.88584740234376,55.2807841625Q159.19383740234375,55.2295448625,159.50606740234375,55.2295448625Q159.69172740234376,55.2295448625,159.87649740234374,55.2477431625Q160.06126740234373,55.2659411625,160.24334740234374,55.3021621625Q160.42544740234376,55.338382762500004,160.60310740234377,55.3922777625Q160.78077740234374,55.4461727625,160.95229740234373,55.5172228625Q161.12383740234375,55.5882725625,161.28757740234374,55.6757933625Q161.45131740234376,55.7633142625,161.60567740234376,55.8664629625Q161.76006740234374,55.9696111625,161.90359740234373,56.0873939625Q162.04710740234376,56.2051768625,162.17838740234373,56.3364601625Q162.30967740234377,56.4677429625,162.42745740234375,56.6112618625Q162.54523740234373,56.7547807625,162.64837740234375,56.9091536625Q162.75153740234373,57.0635261625,162.83905740234377,57.2272658625Q162.92657740234375,57.3910053625,162.99761740234374,57.5625351625Q163.06867740234375,57.7340646625,163.12257740234375,57.9117324625Q163.17646740234375,58.0894002925,163.21267740234373,58.2714952225Q163.24890740234375,58.4535900325,163.26710740234375,58.6383583825Q163.28530740234373,58.8231267225,163.28530740234373,59.0087890625Q163.28530740234373,59.2242903425,163.26080740234374,59.4383947525Q163.23631740234373,59.6524992025,163.18763740234374,59.8624310525Q163.13895740234375,60.0723628625,163.06673740234373,60.2754006625Q162.99450740234374,60.4784383625,162.89967740234374,60.6719498625Q162.80483740234376,60.8654612625,162.68861740234377,61.0469376625Q162.57239740234377,61.2284140625,162.43629740234377,61.3955030625Q162.30019740234377,61.5625920625,162.14599740234377,61.7131271625Q161.99178740234373,61.8636622625,161.82146740234376,61.9956917625L161.82198740234375,61.9963548625Q122.88558940234375,92.1792950625,76.62167740234375,80.1014250625Q62.25193440234375,76.3499930625,48.89466380234375,68.8508815625Q42.17340560234375,65.0773954625,38.23840330234375,61.9785709625L38.23710130234375,61.9775419625L38.23762060234375,61.9768829625Q38.06987710234375,61.8446664625,37.91809840234375,61.6943919625Q37.76632020234375,61.5441174625,37.63243960234375,61.3776988625Q37.49855950234375,61.2112803625,37.38428210234375,61.0308370625Q37.27000470234375,60.8503937625,37.17678590234375,60.6582236625Q37.08356710234375,60.4660534625,37.01259420234375,60.2646040625Q36.94162080234375,60.0631544625,36.89379720234375,59.8549911425Q36.84597370234375,59.6468277525,36.82190850234375,59.4346015425Q36.79784350234375,59.2223753325,36.79784320234375,59.0087890625Q36.79784300234375,58.8231267225,36.81604150234375,58.6383583825Q36.83423950234375,58.4535900325,36.87046050234375,58.2714952225Q36.906681102343754,58.0894002925,36.96057610234375,57.9117324625Q37.01447110234375,57.7340646625,37.08552120234375,57.5625351625Q37.15657090234375,57.3910053625,37.24409170234375,57.2272658625Q37.33161260234375,57.0635261625,37.43476130234375,56.9091536625Q37.53790950234375,56.7547807625,37.65569230234375,56.6112618625Q37.77347520234375,56.4677429625,37.90475850234375,56.3364601625Q38.03604130234375,56.2051768625,38.17956020234375,56.0873942625Q38.32307910234375,55.9696111625,38.47745200234375,55.8664626625Q38.63182450234375,55.7633142625,38.79556420234375,55.6757936625Q38.95930370234375,55.5882730625,39.13083350234375,55.5172231625Q39.30236300234375,55.4461729625,39.48003080234375,55.3922781625Q39.65769863234375,55.3383829625,39.83979356234375,55.3021621625Q40.02188837234375,55.2659411625,40.20665672234375,55.2477428625Q40.39142506234375,55.2295448625,40.57708740234375,55.2295448625Q40.89315545234375,55.2295448625,41.20483279234375,55.2820446625Q41.51651007234375,55.3345446625,41.81513710234375,55.4380862625Q42.11376440234375,55.5416273625,42.39104460234375,55.6933331625Q42.66832490234375,55.8450393625,42.91655420234375,56.0406951625Z" fill-rule="evenodd" fill="#000000" fill-opacity="1" style="mix-blend-mode:passthrough"/><path d="M96.182914003125,127.88189697265625Q96.182913803125,127.69623463265626,96.201112303125,127.51146629265625Q96.219310303125,127.32669794265625,96.255531303125,127.14460313265624Q96.291751903125,126.96250820265625,96.345646903125,126.78484037265625Q96.399541903125,126.60717257265625,96.470592003125,126.43564307265625Q96.541641703125,126.26411327265625,96.629162503125,126.10037377265625Q96.716683403125,125.93663407265625,96.819832103125,125.78226157265625Q96.922980303125,125.62788867265625,97.040763103125,125.48436977265625Q97.158546003125,125.34085087265625,97.289829303125,125.20956807265625Q97.421112103125,125.07828477265625,97.564631003125,124.96050217265625Q97.708149903125,124.84271907265625,97.862522803125,124.73957057265625Q98.016895303125,124.63642217265625,98.180635003125,124.54890157265625Q98.344374503125,124.46138097265624,98.515904303125,124.39033107265625Q98.687433803125,124.31928087265625,98.865101603125,124.26538607265626Q99.042769433125,124.21149087265626,99.224864363125,124.17527007265625Q99.406959173125,124.13904907265625,99.591727523125,124.12085077265625Q99.776495863125,124.10265277265626,99.962158203125,124.10265277265626Q100.147820543125,124.10265277265626,100.332588883125,124.12085107265625Q100.517357233125,124.13904907265625,100.699452043125,124.17527007265625Q100.881546973125,124.21149067265625,101.059214803125,124.26538567265625Q101.236882603125,124.31928067265625,101.408412103125,124.39033077265626Q101.579941903125,124.46138047265624,101.743681403125,124.54890127265625Q101.907421103125,124.63642217265625,102.061793603125,124.73957087265624Q102.216166503125,124.84271907265625,102.359685403125,124.96050187265625Q102.503204303125,125.07828477265625,102.634487103125,125.20956807265625Q102.765770403125,125.34085087265625,102.883553003125,125.48436977265625Q103.001336103125,125.62788867265625,103.104484603125,125.78226157265625Q103.207633003125,125.93663407265625,103.295153603125,126.10037377265625Q103.382674203125,126.26411327265625,103.453724103125,126.43564307265625Q103.524774303125,126.60717257265625,103.578669103125,126.78484037265625Q103.632564303125,126.96250820265625,103.668785103125,127.14460313265624Q103.705006103125,127.32669794265625,103.723204403125,127.51146629265625Q103.741402603125,127.69623463265626,103.741402403125,127.88189697265625L103.742241403125,127.88189697265625L103.742241403125,169.88618097265623L103.741402403125,169.88618097265623Q103.741402603125,170.07184597265626,103.723204103125,170.25661097265623Q103.705006103125,170.44137597265626,103.668785103125,170.62346997265627Q103.632564503125,170.80556497265624,103.578669503125,170.98323397265625Q103.524774503125,171.16090397265626,103.453724403125,171.33243197265625Q103.382674703125,171.50396697265626,103.295153903125,171.66770197265626Q103.207633003125,171.83144397265625,103.104484303125,171.98581297265625Q103.001336103125,172.14018997265626,102.883553303125,172.28370697265626Q102.765770403125,172.42722297265624,102.634487103125,172.55850597265623Q102.503204303125,172.68979297265625,102.359685403125,172.80757497265625Q102.216166503125,172.92536197265625,102.061793603125,173.02850297265624Q101.907421103125,173.13165297265624,101.743681403125,173.21917697265624Q101.579941903125,173.30669397265626,101.408412103125,173.37774297265625Q101.236882603125,173.44879897265625,101.059214803125,173.50269297265623Q100.881546973125,173.55658697265625,100.699452043125,173.59280397265624Q100.517357233125,173.62902797265625,100.332588883125,173.64722797265625Q100.147820543125,173.66542397265624,99.962158203125,173.66542397265624Q99.776495863125,173.66542397265624,99.591727523125,173.64722397265626Q99.406959173125,173.62902797265625,99.224864363125,173.59280397265624Q99.042769433125,173.55658697265625,98.865101603125,173.50269297265623Q98.687433803125,173.44879897265625,98.515904303125,173.37774297265625Q98.344374503125,173.30669397265626,98.180635003125,173.21917297265625Q98.016895303125,173.13165297265624,97.862522803125,173.02850297265624Q97.708149903125,172.92536197265625,97.564631003125,172.80757497265625Q97.421112103125,172.68979297265625,97.289829303125,172.55850597265623Q97.158546003125,172.42722297265624,97.040763403125,172.28370697265626Q96.922980303125,172.14018997265626,96.819831803125,171.98581297265625Q96.716683403125,171.83144397265625,96.629162803125,171.66770597265625Q96.541642203125,171.50396697265626,96.470592303125,171.33243197265625Q96.399542103125,171.16090397265626,96.345647303125,170.98323397265625Q96.291752103125,170.80556497265624,96.255531303125,170.62346997265627Q96.219310303125,170.44137597265626,96.201112003125,170.25661097265623Q96.182913803125,170.07184597265626,96.182914003125,169.88618097265623L96.182075003125,169.88618097265623L96.182075003125,127.88189697265625L96.182914003125,127.88189697265625Z" fill-rule="evenodd" fill="#000000" fill-opacity="1" style="mix-blend-mode:passthrough"/><path d="M60.0226356828125,118.00076293945312Q60.0226354828125,117.81510059945313,60.0408339828125,117.63033225945313Q60.0590319828125,117.44556390945313,60.0952529828125,117.26346909945312Q60.131473582812504,117.08137416945313,60.1853685828125,116.90370633945312Q60.2392635828125,116.72603853945313,60.3103136828125,116.55450903945312Q60.3813633828125,116.38297923945312,60.4688841828125,116.21923973945313Q60.5564050828125,116.05550003945312,60.6595537828125,115.90112753945313Q60.7627019828125,115.74675463945313,60.8804847828125,115.60323573945313Q60.9982676828125,115.45971683945312,61.1295509828125,115.32843403945313Q61.2608337828125,115.19715073945312,61.4043526828125,115.07936813945312Q61.5478715828125,114.96158503945313,61.7022444828125,114.85843653945312Q61.8566169828125,114.75528813945313,62.0203566828125,114.66776753945312Q62.1840961828125,114.58024693945312,62.3556259828125,114.50919703945313Q62.5271554828125,114.43814683945313,62.7048232828125,114.38425203945313Q62.8824911128125,114.33035683945313,63.0645860428125,114.29413603945312Q63.2466808528125,114.25791503945312,63.4314492028125,114.23971673945313Q63.6162175428125,114.22151873945313,63.8018798828125,114.22151873945313Q63.9875422228125,114.22151873945313,64.1723105628125,114.23971703945313Q64.3570789128125,114.25791503945312,64.5391737228125,114.29413603945312Q64.7212686528125,114.33035663945313,64.8989364828125,114.38425163945313Q65.0766042828125,114.43814663945312,65.2481337828125,114.50919673945313Q65.4196635828125,114.58024643945312,65.5834030828125,114.66776723945313Q65.7471427828125,114.75528813945313,65.9015152828125,114.85843683945312Q66.0558881828125,114.96158503945313,66.1994070828125,115.07936783945313Q66.3429259828125,115.19715073945312,66.4742087828125,115.32843403945313Q66.6054920828125,115.45971683945312,66.7232746828125,115.60323573945313Q66.8410577828125,115.74675463945313,66.9442062828125,115.90112753945313Q67.0473546828125,116.05550003945312,67.1348752828125,116.21923973945313Q67.2223958828125,116.38297923945312,67.2934457828125,116.55450903945312Q67.3644959828125,116.72603853945313,67.4183907828125,116.90370633945312Q67.4722859828125,117.08137416945313,67.5085067828125,117.26346909945312Q67.5447277828125,117.44556390945313,67.5629260828125,117.63033225945313Q67.5811242828125,117.81510059945313,67.5811240828125,118.00076293945312L67.5819630828125,118.00076293945312L67.5819630828125,160.0050469394531L67.5811240828125,160.0050469394531Q67.5811242828125,160.19071193945314,67.5629257828125,160.3754769394531Q67.5447277828125,160.56024193945314,67.5085067828125,160.74233593945314Q67.4722861828125,160.92443093945312,67.4183911828125,161.10209993945313Q67.3644961828125,161.27976993945313,67.2934460828125,161.45129793945313Q67.2223963828125,161.62283293945313,67.1348755828125,161.78656793945314Q67.0473546828125,161.95030993945312,66.9442059828125,162.10467893945312Q66.8410577828125,162.25905593945313,66.7232749828125,162.40257293945314Q66.6054920828125,162.5460889394531,66.4742087828125,162.6773719394531Q66.3429259828125,162.80865893945312,66.1994070828125,162.92644093945313Q66.0558881828125,163.04422793945312,65.9015152828125,163.14736893945312Q65.7471427828125,163.25051893945312,65.5834030828125,163.33804293945312Q65.4196635828125,163.42555993945314,65.2481337828125,163.49660893945313Q65.0766042828125,163.56766493945312,64.8989364828125,163.6215589394531Q64.7212686528125,163.67545293945312,64.5391737228125,163.71166993945312Q64.3570789128125,163.74789393945312,64.1723105628125,163.76609393945313Q63.9875422228125,163.78428993945312,63.8018798828125,163.78428993945312Q63.6162175428125,163.78428993945312,63.4314492028125,163.76608993945314Q63.2466808528125,163.74789393945312,63.0645860428125,163.71166993945312Q62.8824911128125,163.67545293945312,62.7048232828125,163.6215589394531Q62.5271554828125,163.56766493945312,62.3556259828125,163.49660893945313Q62.1840961828125,163.42555993945314,62.0203566828125,163.33803893945313Q61.8566169828125,163.25051893945312,61.7022444828125,163.14736893945312Q61.5478715828125,163.04422793945312,61.4043526828125,162.92644093945313Q61.2608337828125,162.80865893945312,61.1295509828125,162.6773719394531Q60.9982676828125,162.5460889394531,60.8804850828125,162.40257293945314Q60.7627019828125,162.25905593945313,60.6595534828125,162.10467893945312Q60.5564050828125,161.95030993945312,60.4688844828125,161.78657193945313Q60.3813638828125,161.62283293945313,60.3103139828125,161.45129793945313Q60.2392637828125,161.27976993945313,60.1853689828125,161.10209993945313Q60.1314737828125,160.92443093945312,60.0952529828125,160.74233593945314Q60.0590319828125,160.56024193945314,60.0408336828125,160.3754769394531Q60.0226354828125,160.19071193945314,60.0226356828125,160.0050469394531L60.0217966828125,160.0050469394531L60.0217966828125,118.00076293945312L60.0226356828125,118.00076293945312Z" fill-rule="evenodd" fill="#000000" fill-opacity="1" style="mix-blend-mode:passthrough"/><path d="M132.4717323625,118.00076293945312Q132.4717321625,117.81510059945313,132.4899306625,117.63033225945313Q132.5081286625,117.44556390945313,132.5443496625,117.26346909945312Q132.5805702625,117.08137416945313,132.6344652625,116.90370633945312Q132.6883602625,116.72603853945313,132.7594103625,116.55450903945312Q132.8304600625,116.38297923945312,132.9179808625,116.21923973945313Q133.0055017625,116.05550003945312,133.1086504625,115.90112753945313Q133.2117986625,115.74675463945313,133.3295814625,115.60323573945313Q133.4473643625,115.45971683945312,133.5786476625,115.32843403945313Q133.7099304625,115.19715073945312,133.8534493625,115.07936813945312Q133.9969682625,114.96158503945313,134.1513411625,114.85843653945312Q134.3057136625,114.75528813945313,134.4694533625,114.66776753945312Q134.6331928625,114.58024693945312,134.8047226625,114.50919703945313Q134.9762521625,114.43814683945313,135.1539199625,114.38425203945313Q135.3315877925,114.33035683945313,135.5136827225,114.29413603945312Q135.6957775325,114.25791503945312,135.8805458825,114.23971673945313Q136.0653142225,114.22151873945313,136.2509765625,114.22151873945313Q136.4366389025,114.22151873945313,136.6214072425,114.23971703945313Q136.8061755925,114.25791503945312,136.9882704025,114.29413603945312Q137.1703653325,114.33035663945313,137.3480331625,114.38425163945313Q137.5257009625,114.43814663945312,137.6972304625,114.50919673945313Q137.8687602625,114.58024643945312,138.0324997625,114.66776723945313Q138.1962394625,114.75528813945313,138.3506119625,114.85843683945312Q138.5049848625,114.96158503945313,138.6485037625,115.07936783945313Q138.7920226625,115.19715073945312,138.9233054625,115.32843403945313Q139.0545887625,115.45971683945312,139.1723713625,115.60323573945313Q139.2901544625,115.74675463945313,139.3933029625,115.90112753945313Q139.4964513625,116.05550003945312,139.5839719625,116.21923973945313Q139.6714925625,116.38297923945312,139.7425424625,116.55450903945312Q139.8135926625,116.72603853945313,139.8674874625,116.90370633945312Q139.9213826625,117.08137416945313,139.9576034625,117.26346909945312Q139.9938244625,117.44556390945313,140.0120227625,117.63033225945313Q140.0302209625,117.81510059945313,140.0302207625,118.00076293945312L140.0310597625,118.00076293945312L140.0310597625,160.0050469394531L140.0302207625,160.0050469394531Q140.0302209625,160.19071193945314,140.0120224625,160.3754769394531Q139.9938244625,160.56024193945314,139.9576034625,160.74233593945314Q139.9213828625,160.92443093945312,139.8674878625,161.10209993945313Q139.8135928625,161.27976993945313,139.7425427625,161.45129793945313Q139.6714930625,161.62283293945313,139.5839722625,161.78656793945314Q139.4964513625,161.95030993945312,139.3933026625,162.10467893945312Q139.2901544625,162.25905593945313,139.1723716625,162.40257293945314Q139.0545887625,162.5460889394531,138.9233054625,162.6773719394531Q138.7920226625,162.80865893945312,138.6485037625,162.92644093945313Q138.5049848625,163.04422793945312,138.3506119625,163.14736893945312Q138.1962394625,163.25051893945312,138.0324997625,163.33804293945312Q137.8687602625,163.42555993945314,137.6972304625,163.49660893945313Q137.5257009625,163.56766493945312,137.3480331625,163.6215589394531Q137.1703653325,163.67545293945312,136.9882704025,163.71166993945312Q136.8061755925,163.74789393945312,136.6214072425,163.76609393945313Q136.4366389025,163.78428993945312,136.2509765625,163.78428993945312Q136.0653142225,163.78428993945312,135.8805458825,163.76608993945314Q135.6957775325,163.74789393945312,135.5136827225,163.71166993945312Q135.3315877925,163.67545293945312,135.1539199625,163.6215589394531Q134.9762521625,163.56766493945312,134.8047226625,163.49660893945313Q134.6331928625,163.42555993945314,134.4694533625,163.33803893945313Q134.3057136625,163.25051893945312,134.1513411625,163.14736893945312Q133.9969682625,163.04422793945312,133.8534493625,162.92644093945313Q133.7099304625,162.80865893945312,133.5786476625,162.6773719394531Q133.4473643625,162.5460889394531,133.3295817625,162.40257293945314Q133.2117986625,162.25905593945313,133.1086501625,162.10467893945312Q133.0055017625,161.95030993945312,132.9179811625,161.78657193945313Q132.8304605625,161.62283293945313,132.7594106625,161.45129793945313Q132.6883604625,161.27976993945313,132.6344656625,161.10209993945313Q132.5805704625,160.92443093945312,132.5443496625,160.74233593945314Q132.5081286625,160.56024193945314,132.4899303625,160.3754769394531Q132.4717321625,160.19071193945314,132.4717323625,160.0050469394531L132.4708933625,160.0050469394531L132.4708933625,118.00076293945312L132.4717323625,118.00076293945312Z" fill-rule="evenodd" fill="#000000" fill-opacity="1" style="mix-blend-mode:passthrough"/><path d="M160.76117126953125,78.1459112625Q163.65855126953124,75.9868063625,166.49428126953126,73.6079053625Q166.77951126953124,73.3686241625,167.01257126953124,73.0782954625Q167.24563126953126,72.7879667625,167.41759126953124,72.4577470625Q167.58954126953125,72.1275273625,167.69375126953125,71.7701071625Q167.79797126953125,71.4126868225,167.83047126953124,71.0418014525Q167.86296126953124,70.6709164975,167.82248126953124,70.3008192825Q167.78198126953126,69.9307220625,167.67007126953126,69.5756351625Q167.55817126953124,69.2205483625,167.37912126953125,68.8941175625Q167.20009126953124,68.5676870625,166.96081126953126,68.2824568625Q166.84146126953124,68.1401858625,166.70874126953126,68.0102984625Q166.57602126953125,67.8804111625,166.43120126953124,67.7641584625Q166.28639126953124,67.6479053625,166.13089126953125,67.5464064625Q165.97537126953125,67.4449076625,165.81065126953126,67.3591406625Q165.64595126953125,67.2733731625,165.47362126953124,67.2041635625Q165.30130126953125,67.1349534625,165.12302126953125,67.0829682625Q164.94473126953125,67.0309820625,164.76222126953124,66.9967210625Q164.57971126953126,66.9624600625,164.39471126953126,66.9462537625Q164.20972126953126,66.9300470625,164.02403126953126,66.9320516625Q163.83833126953124,66.9340557625,163.65372126953125,66.95425176250001Q163.46912126953123,66.97444726250001,163.28738126953124,67.0126397625Q163.10565126953125,67.0508324625,162.92853126953125,67.1066543625Q162.75142126953125,67.1624758625,162.58063126953124,67.23538926250001Q162.40983126953125,67.3083023625,162.24701126953124,67.3976051625Q162.08420126953126,67.4869074625,161.93091126953124,67.5917391625Q161.77763126953124,67.6965710625,161.63536126953124,67.8159227625Q158.96648126953124,70.0548503425,156.24374126953126,72.0838155625Q156.09484126953123,72.1947795625,155.95753126953124,72.3198042625Q155.82020126953125,72.4448290625,155.69580126953124,72.5827107625Q155.57141126953127,72.7205924625,155.46113126953125,72.8700034625Q155.35085126953123,73.0194141625,155.25574126953126,73.1789150625Q155.16064126953125,73.3384160625,155.08163126953124,73.5064711625Q155.00261126953126,73.6745262625,154.94044126953125,73.8495166625Q154.87828126953124,74.0245075625,154.83357126953126,74.2047486625Q154.78886126953125,74.3849897625,154.76203126953124,74.5687451625Q154.73521126953125,74.7525009625,154.72652126953125,74.9380011625Q154.71783126953125,75.1235017625,154.72736126953123,75.3089599625Q154.73691126953125,75.4944190625,154.76457126953125,75.6780500625Q154.79224126953125,75.8616809625,154.83777126953123,76.0417156625Q154.88331126953125,76.22175126249999,154.94627126953125,76.3964557625Q155.00923126953126,76.5711603625,155.08901126953126,76.7388524625Q155.16880126953123,76.9065456625,155.26463126953126,77.0656108625Q155.36047126953125,77.2246756625,155.47143126953125,77.3735809625Q155.69389126953126,77.6721143625,155.97032126953127,77.9215106625Q156.24675126953125,78.1709070625,156.56653126953125,78.3615817625Q156.88630126953126,78.5522556625,157.23713126953123,78.6768808625Q157.58796126953126,78.8015060625,157.95637126953125,78.8552932625Q158.32477126953125,78.9090785625,158.69658126953124,78.8899621625Q159.06839126953125,78.8708438625,159.42934126953125,78.7795581625Q159.79027126953125,78.6882705625,160.12646126953126,78.5283222625Q160.46265126953125,78.3683738625,160.76117126953125,78.1459112625ZM33.64346456953125,77.3452076625Q35.81887816953125,78.9949130625,39.64609626953125,81.3239340625Q39.80473516953125,81.4204720625,39.97207216953125,81.50099606250001Q40.13940906953125,81.5815200625,40.31383276953125,81.64525206249999Q40.48825696953125,81.7089870625,40.66808796953125,81.7553180625Q40.84791946953125,81.8016490625,41.03142546953125,81.8301300625Q41.21493246953125,81.8586110625,41.400346769531254,81.8689690625Q41.58576156953125,81.8793260625,41.77129836953125,81.8714600625Q41.95683576953125,81.8635940625,42.14070796953125,81.8375800625Q42.32458016953125,81.8115650625,42.50501726953125,81.7676530625Q42.68545536953125,81.7237410625,42.86071966953125,81.6623550625Q43.03598406953125,81.6009690625,43.20438666953125,81.52270006250001Q43.37279036953125,81.4444310625,43.53271106953125,81.3500320625Q43.692631769531246,81.2556320625,43.84252926953125,81.1460130625Q43.99242786953125,81.0363940625,44.13085936953125,80.9126110625Q44.26929096953125,80.7888260625,44.39492226953125,80.6520690625Q44.520555469531246,80.51531316250001,44.63217826953125,80.3669013625Q44.74380106953125,80.2184886625,44.84033866953125,80.0598497625Q45.03388216953125,79.7418041625,45.16165926953125,79.39211176250001Q45.28943636953125,79.04241946249999,45.34653666953125,78.6745185625Q45.40363696953125,78.3066177625,45.38786506953125,77.9346461625Q45.37209416953125,77.5626745625,45.284058569531254,77.2009277625Q45.19602206953125,76.8391799625,45.03910446953125,76.5015582625Q44.88218686953125,76.1639370625,44.66241836953125,75.8634157625Q44.44264986953125,75.5628948625,44.16847416953125,75.3110232625Q43.89429946953125,75.0591516625,43.57625486953125,74.8656082625Q40.07983016953125,72.7378890625,38.21237446953125,71.3218214525L38.21165796953125,71.3212780925Q37.91509656953125,71.0963818125,37.58036806953125,70.9336431625Q37.24563946953125,70.7709045265,36.88559931953125,70.6765737495Q36.52555930953125,70.5822429625,36.15403568953125,70.5599429625Q35.78251203953125,70.5376429425,35.41377365953125,70.5882301525Q35.04492300953125,70.6388327625,34.69303166953125,70.7604222595Q34.34114046953125,70.8820117525,34.01973156953125,71.0699155325Q33.69832276953125,71.2578192925,33.41974806953125,71.5048162925Q33.14117336953125,71.7518132625,32.91613766953125,72.0484115625Q32.80389146953125,72.1963529625,32.70668646953125,72.3545837625Q32.60948176953125,72.5128146625,32.52825446953125,72.6798112625Q32.44702696953125,72.8468079625,32.38255926953125,73.0209622625Q32.31809136953125,73.1951165625,32.27100446953125,73.3747510625Q32.22391696953125,73.5543858625,32.19466376953125,73.7377710625Q32.16541046953125,73.9211559625,32.15427326953125,74.1065251625Q32.14313556953125,74.2918946625,32.15022086953125,74.4774629625Q32.15730616953125,74.6630315625,32.18254656953125,74.8470115625Q32.20778676953125,75.0309920625,32.250938869531254,75.2116126625Q32.29409076953125,75.3922328625,32.35473916953125,75.5677537625Q32.41538686953125,75.7432751625,32.49294706953125,75.9120063625Q32.57050706953125,76.0807380625,32.66423246953125,76.2410545625Q32.75795746953125,76.4013719625,32.86694506953125,76.5517296625Q32.97593256953125,76.7020878625,33.09913326953125,76.8410386625Q33.22233346953125,76.9799904625,33.35856006953125,77.1061973625Q33.49478676953125,77.2324037625,33.64272836953125,77.34464936250001L33.64346456953125,77.3452076625ZM135.89337126953126,92.1710240625Q142.47735126953125,89.5604780625,148.81552126953125,85.9642330625Q148.97703126953127,85.87259106249999,149.12880126953127,85.7655570625Q149.28055126953126,85.6585230625,149.42107126953124,85.5371300625Q149.56161126953126,85.4157390625,149.68957126953126,85.2811560625Q149.81753126953123,85.1465730625,149.93167126953125,85.0000950625Q150.04582126953125,84.8536200625,150.14507126953123,84.6966590625Q150.24431126953124,84.5396990625,150.32769126953124,84.37376706250001Q150.41108126953125,84.20783606250001,150.47780126953126,84.0345310625Q150.54451126953126,83.8612250625,150.59392126953125,83.6822140625Q150.64332126953127,83.5032040625,150.67495126953125,83.3202130625Q150.70657126953125,83.1372220625,150.72011126953123,82.9520110625Q150.73364126953123,82.7668030625,150.72896126953125,82.5811590625Q150.72427126953124,82.3955130625,150.70141126953126,82.2112210625Q150.67856126953126,82.0269310625,150.63774126953126,81.8457670625Q150.59693126953124,81.6646040625,150.53856126953124,81.4883120625Q150.48019126953125,81.3120210625,150.40482126953125,81.1423010625Q150.32945126953126,80.9725810625,150.23781126953125,80.8110650625Q150.05408126953125,80.4872512625,149.81070126953125,80.2055044625Q149.56732126953125,79.9237565625,149.27367126953123,79.6949024625Q148.97999126953124,79.4660491625,148.64733126953126,79.2988834625Q148.31467126953123,79.1317176625,147.95578126953126,79.0326633625Q147.59689126953126,78.9336099625,147.22557126953126,78.9064750625Q146.85426126953126,78.8793392625,146.48479126953123,78.9251661625Q146.11532126953125,78.9709930625,145.76189126953125,79.0880193625Q145.40845126953127,79.2050466625,145.08464126953123,79.3887767625Q139.20295126953124,82.7260180625,133.10681126953125,85.1431350625Q132.76071126953127,85.2803600625,132.44803626953126,85.4824690625Q132.13536026953125,85.6845770625,131.86813326953126,85.9438020625Q131.60089126953125,86.2030260625,131.38936626953125,86.5094030625Q131.17784126953126,86.8157820625,131.03015126953125,87.1575410625Q130.88246126953123,87.4993000625,130.80428326953125,87.8633060625Q130.72610426953125,88.2273100625,130.72044326953124,88.5995730625Q130.71477526953123,88.9718340625,130.78184526953123,89.3380490625Q130.84891526953123,89.7042640625,130.98614526953125,90.0503580625Q131.05459626953126,90.22298806250001,131.13963326953126,90.3880770625Q131.22467026953126,90.5531650625,131.32547026953125,90.7091240625Q131.42628526953126,90.8650820625,131.54190026953125,91.0104080625Q131.65750926953126,91.1557350625,131.78680426953125,91.2890280625Q131.91610726953127,91.4223250625,132.05784626953124,91.5423030625Q132.19958526953127,91.6622830625,132.35240126953124,91.7677900625Q132.50522626953125,91.8732990625,132.66765626953125,91.9633220625Q132.83007826953127,92.0533410625,133.00054926953123,92.1270080625Q133.17102026953125,92.20067606250001,133.34787726953124,92.2572820625Q133.52474926953124,92.31388506249999,133.70630626953124,92.35288006249999Q133.88787826953126,92.3918760625,134.07238726953125,92.4128890625Q134.25689726953124,92.4339010625,134.44257326953124,92.4367260625Q134.62826526953125,92.4395520625,134.81332426953125,92.4241620625Q134.99839826953126,92.4087730625,135.18106126953126,92.3753180625Q135.36372326953125,92.3418650625,135.54223626953126,92.2906680625Q135.72074926953127,92.2394710625,135.89337126953126,92.1710240625ZM52.29697026953125,88.0312160625Q58.84984626953125,91.0445710625,65.58626926953124,93.2645850625Q65.76264426953125,93.3227120625,65.94386326953125,93.3632660625Q66.12508426953124,93.40382406250001,66.30940626953125,93.4264220625Q66.49373026953126,93.4490220625,66.67938226953125,93.4534450625Q66.86503226953124,93.4578690625,67.05021826953126,93.4440710625Q67.23541026953126,93.4302770625,67.41835826953125,93.3983950625Q67.60130326953126,93.3665160625,67.78024326953125,93.3168560625Q67.95918626953124,93.2671990625,68.13240026953125,93.2002390625Q68.30561026953126,93.1332820625,68.47142426953124,93.0496650625Q68.63724126953124,92.9660530625,68.79405926953126,92.8665870625Q68.95088226953125,92.7671220625,69.09719426953126,92.6527650625Q69.24351126953124,92.53841006249999,69.37791426953126,92.41026306250001Q69.51231426953126,92.2821160625,69.63351026953126,92.1414110625Q69.75470726953125,92.0007080625,69.86152626953125,91.8488030625Q69.96834526953126,91.6968960625,70.05976126953125,91.5352520625Q70.15117626953125,91.3736080625,70.22631026953124,91.2037810625Q70.30144526953126,91.0339550625,70.35956926953125,90.8575820625Q70.41769426953125,90.6812100625,70.45825226953124,90.4999880625Q70.49881026953125,90.3187670625,70.52140426953125,90.1344430625Q70.54400626953125,89.9501210625,70.54842726953126,89.7644690625Q70.55284926953125,89.5788190625,70.53905526953125,89.3936270625Q70.52526126953126,89.20843906249999,70.49338126953126,89.0254920625Q70.46150226953125,88.8425440625,70.41184226953125,88.6636030625Q70.36218226953125,88.4846630625,70.29522726953125,88.3114510625Q70.22826426953125,88.1382410625,70.14464926953124,87.97242506250001Q70.06103526953126,87.8066120625,69.96157026953125,87.6497920625Q69.86210626953125,87.4929690625,69.74774926953125,87.3466530625Q69.63339226953124,87.2003380625,69.50524126953124,87.0659350625Q69.37709426953126,86.93153406249999,69.23638926953126,86.8103370625Q69.09568826953125,86.6891440625,68.94377926953125,86.5823230625Q68.79187726953126,86.4755030625,68.63023026953125,86.3840860625Q68.46859026953125,86.2926700625,68.29876326953125,86.2175390625Q68.12893626953125,86.1424070625,67.95256426953125,86.0842830625Q61.62109726953125,83.9977240625,55.45557026953125,81.1624910625Q55.28685026953125,81.0849060625,55.11133926953125,81.0242300625Q54.93582526953125,80.9635540625,54.75521126953125,80.9203740625Q54.57459826953125,80.8771940625,54.39062326953125,80.8519260625Q54.20664626953125,80.8266570625,54.021080269531254,80.8195430625Q53.835514269531245,80.8124290625,53.65014226953125,80.8235390625Q53.464771269531255,80.8346470625,53.28137926953125,80.86387206250001Q53.09799226953125,80.8930970625,52.918350269531246,80.9401570625Q52.73870826953125,80.9872170625,52.564544269531254,81.0516580625Q52.39038126953125,81.1160980625,52.22337326953125,81.1973000625Q52.05636226953125,81.2785010625,51.898115269531246,81.3756820625Q51.73987026953125,81.4728620625,51.59191126953125,81.5850870625Q51.44395226953125,81.6973090625,51.30770626953125,81.8234950625Q51.17146026953125,81.9496810625,51.048238269531254,82.0886130625Q50.92501626953125,82.2275470625,50.81600426953125,82.3778870625Q50.70699526953125,82.5282290625,50.61324626953125,82.6885310625Q50.51949526953125,82.8488330625,50.44190926953125,83.0175520625Q50.36432226953125,83.1862720625,50.30364826953125,83.3617830625Q50.24297226953125,83.5372940625,50.19979226953125,83.7179080625Q50.15661226953125,83.8985220625,50.13134426953125,84.0824980625Q50.106075269531246,84.2664760625,50.09896126953125,84.4520420625Q50.09184726953125,84.6376090625,50.10295726953125,84.8229810625Q50.11406526953125,85.0083520625,50.14329026953125,85.1917410625Q50.17251626953125,85.3751320625,50.21957626953125,85.5547730625Q50.26663626953125,85.7344150625,50.331075269531254,85.9085790625Q50.395517269531254,86.0827440625,50.47671926953125,86.2497530625Q50.55792026953125,86.4167610625,50.655100269531246,86.5750060625Q50.75228126953125,86.7332530625,50.86450526953125,86.8812120625Q50.97672826953125,87.0291710625,51.10291326953125,87.1654170625Q51.22909926953125,87.3016640625,51.36803226953125,87.4248870625Q51.50696326953125,87.54810706250001,51.65730426953125,87.6571180625Q51.80764726953125,87.7661280625,51.967949269531246,87.8598780625Q52.128252269531245,87.9536280625,52.29697026953125,88.0312160625ZM108.00618726953125,98.6858480625Q115.19711326953124,98.10638606250001,122.18753026953125,96.4717500625Q122.36836226953125,96.4294660625,122.54415926953125,96.3696610625Q122.71997026953125,96.3098560625,122.88906826953125,96.2331050625Q123.05817426953125,96.1563570625,123.21893326953125,96.0634040625Q123.37969926953124,95.9704490625,123.53057826953125,95.8621840625Q123.68146526953124,95.7539210625,123.82100726953125,95.6313900625Q123.96054826953124,95.5088580625,124.08740226953125,95.3732360625Q124.21426426953126,95.2376170625,124.32722426953126,95.0902180625Q124.44017826953124,94.9428180625,124.53813926953126,94.78505506249999Q124.63610826953125,94.6272930625,124.71813226953125,94.4606880625Q124.80016326953125,94.2940830625,124.86545526953125,94.1202390625Q124.93077126953125,93.9463980625,124.97871426953125,93.7669910625Q125.02666426953125,93.5875850625,125.05679326953125,93.4043410625Q125.08692926953125,93.2211000625,125.09895326953125,93.0357860625Q125.11099226953125,92.85047106249999,125.10478926953125,92.6648710625Q125.09860226953126,92.4792730625,125.07424926953125,92.2951740625Q125.04989626953125,92.1110740625,125.00760626953125,91.9302480625Q124.92282826953125,91.5677220625,124.76895926953125,91.2286990625Q124.61508226953126,90.8896770625,124.39804126953125,90.5871890625Q124.18098426953125,90.2846980625,123.90908826953125,90.0303650625Q123.63719926953125,89.7760350625,123.32091526953126,89.57963406249999Q123.00462326953125,89.3832320625,122.65609726953124,89.2523100625Q122.30757126953125,89.12138706249999,121.94020126953124,89.0609760625Q121.57283026953125,89.0005650625,121.20072926953125,89.0129810625Q120.82862826953125,89.0254020625,120.46611026953126,89.1101740625Q114.02628326953125,90.6160600625,107.39893326953126,91.1501080625Q107.02783226953125,91.1800120625,106.66969326953125,91.2817400625Q106.31155426953126,91.3834690625,105.98014026953125,91.5531100625Q105.64872726953125,91.7227530625,105.35678126953125,91.9537930625Q105.06483426953125,92.1848300625,104.82357826953125,92.4683860625Q104.58230626953124,92.7519400625,104.40100126953125,93.0771140625Q104.21969626953125,93.40228806249999,104.10530826953125,93.7565880625Q103.99092126953126,94.1108860625,103.94785326953125,94.4806920625Q103.90478526953125,94.85049806250001,103.93469226953125,95.22160306250001Q103.94961526953125,95.4067080625,103.98260526953125,95.5894560625Q104.01558726953125,95.7722090625,104.06632226953126,95.9508440625Q104.11706526953125,96.1294820625,104.18507426953126,96.30228406250001Q104.25308226953125,96.4750860625,104.33769226953125,96.6403900625Q104.42231026953125,96.8056980625,104.52272026953125,96.9619140625Q104.62313826953125,97.1181300625,104.73837326953125,97.2637480625Q104.85361526953125,97.4093700625,104.98257426953126,97.5429930625Q105.11153426953125,97.6766200625,105.25296826953125,97.79695906250001Q105.39440926953125,97.9173010625,105.54695926953126,98.0231990625Q105.69950826953125,98.1290950625,105.86169426953126,98.2195280625Q106.02389526953125,98.3099650625,106.19416826953125,98.38406706250001Q106.36445626953125,98.4581720625,106.54116826953125,98.5152240625Q106.71789526953125,98.5722810625,106.89935326953125,98.6117420625Q107.08081826953125,98.65120106250001,107.26527426953125,98.6726840625Q107.44973726953125,98.6941680625,107.63541426953125,98.6974660625Q107.82109026953125,98.70076606250001,108.00618726953125,98.6858480625ZM79.37444326953124,96.9130480625Q86.53728826953125,98.34428406250001,93.61858726953125,98.7958700625Q93.99013526953125,98.8195650625,94.35916926953125,98.7703170625Q94.72820326953125,98.72106906249999,95.08053626953125,98.60077506249999Q95.43286926953125,98.4804780625,95.75496626953125,98.2937560625Q96.07706426953125,98.1070370625,96.35654826953126,97.8610650625Q96.63602426953125,97.6150910625,96.86215226953125,97.3193210625Q97.08827626953125,97.0235520625,97.25235726953125,96.6893540625Q97.41643126953124,96.3551520625,97.51215326953124,95.9953610625Q97.60787926953125,95.6355720625,97.63158026953124,95.2640230625Q97.64340226953125,95.0786970625,97.63699726953125,94.8931040625Q97.63059226953125,94.7075120625,97.60602226953125,94.5234370625Q97.58145926953125,94.3393670625,97.53897126953126,94.1585880625Q97.49648326953124,93.9778100625,97.43647726953125,93.80206506249999Q97.37647626953125,93.6263240625,97.29953726953124,93.4573100625Q97.22259526953124,93.2882940625,97.12945526953125,93.1276320625Q97.03632326953125,92.96697206249999,96.92789426953125,92.81621506249999Q96.81945826953125,92.66545906249999,96.69676926953125,92.5260540625Q96.57408526953125,92.3866540625,96.43832426953125,92.2599470625Q96.30255926953126,92.1332400625,96.15502926953124,92.0204490625Q96.00750726953126,91.9076610625,95.84963226953124,91.8098750625Q95.69176126953124,91.71209106250001,95.52505826953126,91.6302490625Q95.35836826953124,91.5484080625,95.18444826953126,91.4833010625Q95.01053626953126,91.41819406249999,94.83107026953125,91.3704450625Q94.65161526953125,91.3227000625,94.46833826953124,91.2927720625Q94.28506426953125,91.2628480625,94.09973526953125,91.2510280625Q87.52292626953124,90.8316130625,80.85578926953124,89.4994280625Q80.67369126953125,89.4630390625,80.48889126953125,89.4446770625Q80.30410026953125,89.4263150625,80.11838926953125,89.42615306249999Q79.93268626953125,89.4259950625,79.74786326953125,89.4440360625Q79.56303426953124,89.4620780625,79.38086726953125,89.49814806250001Q79.19870326953125,89.53422206249999,79.02095426953125,89.5879730625Q78.84320026953125,89.6417250625,78.67156626953124,89.7126410625Q78.49993926953124,89.78355806249999,78.33608626953125,89.8709560625Q78.17223326953125,89.9583550625,78.01773826953125,90.0613920625Q77.86324326953125,90.1644290625,77.71959326953126,90.2821120625Q77.57593926953125,90.3997990625,77.44451126953125,90.53099606250001Q77.31308726953125,90.6621970625,77.19515226953125,90.80564506249999Q77.07721726953125,90.9490930625,76.97390726953125,91.10340906249999Q76.87060526953124,91.2577290625,76.78292426953125,91.4214290625Q76.69524426953126,91.5851290625,76.62402726953124,91.7566340625Q76.55281426953124,91.9281410625,76.49875626953124,92.1058010625Q76.44469426953125,92.2834620625,76.40830626953125,92.4655650625Q76.37192126953124,92.6476710625,76.35355726953125,92.8324620625Q76.33519326953126,93.0172560625,76.33502926953125,93.2029570625Q76.33486926953125,93.3886620625,76.35290926953125,93.5734860625Q76.37095226953124,93.7583120625,76.40702026953124,93.9404750625Q76.44309626953125,94.1226420625,76.49684926953125,94.3003960625Q76.55060626953124,94.4781510625,76.62151726953125,94.6497800625Q76.69243626953124,94.8214110625,76.77983426953125,94.9852640625Q76.86723326953125,95.1491160625,76.97026826953126,95.30361206250001Q77.07330726953126,95.4581090625,77.19099426953125,95.6017610625Q77.30867726953124,95.7454150625,77.43987226953125,95.8768390625Q77.57107526953125,96.0082660625,77.71452326953124,96.1262000625Q77.85797126953125,96.2441330625,78.01228326953125,96.3474370625Q78.16660326953125,96.4507450625,78.33030326953124,96.5384270625Q78.49400326953125,96.6261100625,78.66550826953124,96.6973230625Q78.83702126953125,96.7685390625,79.01467926953126,96.8226010625Q79.19234126953125,96.8766630625,79.37444326953124,96.9130480625Z" fill-rule="evenodd" fill="#000000" fill-opacity="1" style="mix-blend-mode:passthrough"/><path d="M17.0676865171875,64.94222215234376Q9.9961619171875,81.66118615234375,9.9961619171875,99.96220415234374Q9.9961548171875,118.26323615234375,17.0676751171875,134.98219615234376Q23.8967511171875,151.12794615234375,36.346582117187495,163.57777615234374Q48.7963791171875,176.02757615234376,64.94216111718751,182.85665615234376Q81.6611481171875,189.92819615234376,99.9621431171875,189.92819615234376Q118.2631451171875,189.92819615234376,134.9821351171875,182.85665615234376Q151.1279151171875,176.02757615234376,163.5777151171875,163.57777615234374Q176.0274951171875,151.12798615234374,182.8565951171875,134.98218615234373Q189.9281351171875,118.26319615234375,189.9281351171875,99.96220415234374Q189.9281351171875,81.66120915234374,182.8565951171875,64.94222615234375Q176.0275151171875,48.79644415234375,163.5777151171875,36.34664715234375Q151.1278951171875,23.89683415234375,134.98212511718748,17.06774755234375Q118.2631651171875,9.99622295234375,99.9621431171875,9.99621535234375Q81.6611171171875,9.99621585234375,64.9421651171875,17.06773615234375Q48.7964211171875,23.89680915234375,36.3465861171875,36.346643152343745Q23.8967671171875,48.79646315234375,17.0676865171875,64.94222215234376ZM41.6924271171875,158.23191615234376Q17.5563183171875,134.09580615234376,17.5563207171875,99.96220415234374Q17.5563283171875,65.82859015234375,41.6924301171875,41.69248815234375Q65.8285371171875,17.55638125234375,99.9621431171875,17.55638175234375Q134.0957651171875,17.55638935234375,158.2318551171875,41.69249115234375Q182.3679551171875,65.82859015234375,182.3679551171875,99.96220415234374Q182.3679551171875,134.09582615234376,158.2318551171875,158.23191615234376Q134.0957651171875,182.36801615234376,99.9621431171875,182.36801615234376Q65.8285181171875,182.36801615234376,41.6924271171875,158.23191615234376Z" fill-rule="evenodd" fill="#000000" fill-opacity="1" style="mix-blend-mode:passthrough"/></g></svg>