<svg xmlns="http://www.w3.org/2000/svg" xmlns:xlink="http://www.w3.org/1999/xlink" fill="none" version="1.1" width="200" height="200" viewBox="0 0 200 200"><defs><clipPath id="master_svg0_229_0785"><rect x="-3.771529197692871" y="-3.771529197692871" width="207.54305839538574" height="207.54305839538574" rx="0"/></clipPath></defs><g clip-path="url(#master_svg0_229_0785)"><path d="M137.2295612792969,80.9645161711914Q137.3922272792969,80.83239557119141,137.53923827929688,80.68305827119141Q137.68624927929687,80.53372077119141,137.81579627929688,80.3690073711914Q137.94534327929688,80.2042939711914,138.0558392792969,80.02623477119141Q138.16633627929687,79.8481757711914,138.25640827929686,79.6589655711914Q138.34648127929688,79.46975537119141,138.41503127929687,79.2717264711914Q138.48358127929686,79.07369747119141,138.52975427929687,78.8692904711914Q138.57592727929688,78.6648834911914,138.59915927929688,78.4566179811914Q138.6223902792969,78.24835247119141,138.6223902792969,78.0387954711914Q138.6223902792969,77.8536242811914,138.60424827929688,77.6693447511914Q138.5860972792969,77.4850652211914,138.54996527929688,77.3034521311914Q138.51383927929686,77.1218388711914,138.46009027929688,76.94464107119141Q138.4063412792969,76.7674433711914,138.33547227929688,76.59636757119141Q138.26461827929688,76.42529177119141,138.17732227929687,76.2619852711914Q138.09004227929688,76.0986789711914,137.98715927929686,75.9447147711914Q137.88429227929686,75.7907504711914,137.76681527929688,75.6476111711914Q137.64933727929687,75.5044717711914,137.51840227929688,75.37353607119141Q137.38746627929686,75.24260017119141,137.24432327929688,75.12512877119141Q137.10118827929688,75.0076575711914,136.94722027929686,74.90478227119141Q136.79325827929688,74.80190657119141,136.62995127929688,74.7146172711914Q136.46664427929687,74.62732837119141,136.29556227929686,74.55646657119141Q136.12448927929688,74.4856042711914,135.9472962792969,74.43185187119141Q135.77009627929687,74.3780994711914,135.58847827929688,74.3419744711914Q135.40687527929686,74.3058490711914,135.22259527929685,74.2876992711914Q135.03831527929688,74.2695493711914,134.8531422792969,74.2695493711914Q134.5309602792969,74.2695493711914,134.21344727929687,74.3242296711914Q133.89593527929688,74.37891007119141,133.59230027929686,74.4866850711914Q133.2886812792969,74.59445927119141,133.00775127929688,74.7522008711914Q132.7268142792969,74.9099426711914,132.4767222792969,75.1130747711914L132.47528027929687,75.11130337119141Q112.55074727929687,91.29504247119141,88.64515127929687,85.2354573711914Q76.54794027929688,82.1690592711914,68.58398797929688,75.9234051711914L68.58257527929688,75.9252064711914Q68.33544037929687,75.7313933711914,68.05963727929688,75.5811536711914Q67.78383417929687,75.4309141711914,67.48696997929687,75.3283917711914Q67.19010579929687,75.2258686711914,66.88036793929687,75.17389057119141Q66.57063009929688,75.1219129711914,66.25656127929688,75.1219129711914Q66.07139008929687,75.1219129711914,65.88711055929687,75.14006277119141Q65.70283102929687,75.15821267119141,65.52121793929687,75.19433807119141Q65.33960467929687,75.23046307119141,65.16240687929688,75.2842156711914Q64.98520917929687,75.33796787119141,64.81413337929688,75.40883017119141Q64.64305757929688,75.4796919711914,64.47975107929688,75.56698127119141Q64.31644477929687,75.6542701711914,64.16248057929687,75.75714587119141Q64.00851627929687,75.86002107119141,63.865376979296876,75.9774925711914Q63.72223757929687,76.0949637711914,63.59130187929688,76.22589977119141Q63.460365979296874,76.35683557119141,63.342894579296875,76.4999747711914Q63.22542337929688,76.6431140711914,63.12254807929688,76.7970783711914Q63.01967237929688,76.9510423711914,62.932383079296876,77.11434889119141Q62.84509417929687,77.27765524119141,62.774232379296876,77.4487311811914Q62.703370079296874,77.61980697119141,62.649617679296874,77.7970047411914Q62.59586527929687,77.97420248419141,62.559740279296875,78.15581564119141Q62.52361487929687,78.3374288111914,62.505465079296876,78.52170834119141Q62.48731517929687,78.70598787119141,62.48731517929687,78.8911590611914Q62.48731517929687,79.1047589711914,62.51144697929688,79.31699157119141Q62.53557827929688,79.5292238711914,62.58353237929688,79.73737147119141Q62.631486379296874,79.94551887119141,62.702649079296876,80.1469161711914Q62.77381177929688,80.34831337119141,62.86727187929687,80.54038147119141Q62.960731979296874,80.73244957119141,63.07529277929687,80.91272927119141Q63.189853679296874,81.09300897119141,63.324047779296876,81.25919197119141Q63.45824237929688,81.4253749711914,63.610352279296876,81.5753333711914Q63.762462179296875,81.72529197119141,63.93053987929687,81.8571057711914L63.92913457929687,81.8588976711914Q73.14828777929688,89.0889304711914,86.79175327929687,92.5472724711914Q114.36754227929688,99.5371744711914,137.23100327929689,80.9662875711914L137.2295612792969,80.9645161711914Z" fill-rule="evenodd" fill="#000000" fill-opacity="1" style="mix-blend-mode:passthrough"/><path d="M84.02181456328125,64.91856484365235L84.02324696328125,64.91678384365234Q84.93177816328125,65.64751794365235,86.67308996328126,66.64572264365235Q90.24244406328125,68.69185066365235,94.06113586328125,69.71044854365235Q105.97494086328125,72.88833614365234,116.05979186328125,64.89935614365234L116.06121086328125,64.90114684365234Q116.30921186328125,64.70468374365234,116.58649786328125,64.55231384365234Q116.86378486328125,64.39994334365234,117.16258986328126,64.29593064365234Q117.46139486328124,64.19191794365234,117.77336086328125,64.13917324365234Q118.08532686328125,64.08642864365234,118.40171786328125,64.08642864365234Q118.58689086328124,64.08642864365234,118.77117186328125,64.10457874365234Q118.95545186328124,64.12272854365234,119.13705786328126,64.15885404365234Q119.31867186328125,64.19497894365234,119.49587286328125,64.24873134365234Q119.67306886328126,64.30248384365234,119.84414286328125,64.37334604365235Q120.01522086328126,64.44420764365235,120.17852386328124,64.53149704365234Q120.34183086328125,64.61878584365235,120.49579586328124,64.72166154365235Q120.64976086328124,64.82453684365234,120.79289986328125,64.94200804365235Q120.93604286328124,65.05947944365235,121.06697486328125,65.19041534365235Q121.19791386328126,65.32135104365234,121.31538386328126,65.46449044365234Q121.43285386328125,65.60762974365234,121.53572486328125,65.76159404365234Q121.63860286328125,65.91555824365234,121.72589086328125,66.07886464365234Q121.81318286328124,66.24217104365235,121.88404086328126,66.41324684365235Q121.95490686328125,66.58432264365234,122.00865886328125,66.76152034365235Q122.06241186328126,66.93871814365234,122.09853786328125,67.12033140365234Q122.13466286328125,67.30194449365234,122.15281286328124,67.48622402365234Q122.17096286328125,67.67050355365234,122.17096286328125,67.85567474365234Q122.17095986328124,68.06811811365235,122.14708686328126,68.27921602365234Q122.12321486328125,68.49031394365234,122.07577886328124,68.69739252365234Q122.02833586328126,68.90447104365235,121.95792386328125,69.10490724365235Q121.88751586328125,69.30534354365234,121.79503286328125,69.49659864365235Q121.70254486328125,69.68785354365234,121.58914986328125,69.86750504365234Q121.47576186328125,70.04715634365235,121.34290286328125,70.21292834365235Q121.21003686328126,70.37870024365235,121.05939486328126,70.52849314365234Q120.90874486328124,70.67828604365235,120.74222586328125,70.81020264365235L120.74364486328125,70.81199334365235Q113.60698886328125,76.46548274365234,105.44523386328125,77.76643844365235Q98.90414386328125,78.80906574365234,92.11707286328125,76.99868204365234Q87.34610416328125,75.72607374365235,82.92170896328125,73.18979504365234Q80.66615134328126,71.89679954365235,79.29572966328125,70.79456564365235L79.29715946328125,70.79278804365234Q79.13298086328125,70.66073894365235,78.98454146328125,70.51121474365235Q78.83610196328125,70.36169104365234,78.70525166328125,70.19655514365235Q78.57440116328125,70.03141954365235,78.46276976328124,69.85272964365234Q78.35113856328125,69.67403984365234,78.26011706328126,69.48402194365234Q78.16909596328125,69.29400424365234,78.09981846328125,69.09502604365234Q78.03054146328125,68.89604794365235,77.98387126328124,68.69058859365235Q77.93720126328125,68.48512923365234,77.91372016328125,68.27574861365234Q77.89023876328125,68.06636795365235,77.89023876328125,67.85567474365234Q77.89023876328125,67.67050355365234,77.90838886328125,67.48622402365234Q77.92653866328125,67.30194449365234,77.96266416328125,67.12033140365234Q77.99878906328125,66.93871814365234,78.05254146328124,66.76152034365235Q78.10629396328125,66.58432264365234,78.17715616328125,66.41324684365235Q78.24801776328125,66.24217104365235,78.33530716328124,66.07886454365234Q78.42259596328125,65.91555824365234,78.52547166328125,65.76159404365234Q78.62834696328125,65.60762974365234,78.74581816328126,65.46449044365234Q78.86328956328126,65.32135104365234,78.99422546328125,65.19041534365235Q79.12516116328125,65.05947944365235,79.26830056328124,64.94200804365235Q79.41143986328125,64.82453684365234,79.56540416328124,64.72166154365235Q79.71936836328125,64.61878584365235,79.88267476328124,64.53149654365234Q80.04598116328125,64.44420764365235,80.21705696328125,64.37334584365234Q80.38813276328125,64.30248354365234,80.56533046328126,64.24873114365235Q80.74252826328124,64.19497874365234,80.92414152328125,64.15885374365234Q81.10575461328125,64.12272834365234,81.29003414328125,64.10457854365234Q81.47431367328124,64.08642864365234,81.65948486328125,64.08642864365234Q81.97939172328125,64.08642864365234,82.29472273328125,64.14034294365234Q82.61005377328125,64.19425754365234,82.91178796328126,64.30054424365234Q83.21352246328125,64.40683074365235,83.49302796328125,64.56244894365234Q83.77253366328125,64.71806714365235,84.02181456328125,64.91856484365235Z" fill-rule="evenodd" fill="#000000" fill-opacity="1" style="mix-blend-mode:passthrough"/><path d="M88.59220766765625,33.60271119611328Q83.85857199765626,38.33922576611328,83.85450909765625,45.03563326611328L83.85450939765624,45.03792326611328Q83.85451479765625,51.74080126611328,88.59464716765625,56.47996926611328Q93.33478119765626,61.21913726611328,100.03765559765625,61.21777726611328Q106.74053959765625,61.21641926611328,111.47874859765625,56.475326266113285Q116.21695359765624,51.73423726611328,116.21423959765625,45.03135826611328Q116.21152659765625,38.32847786611328,111.46946759765625,33.59122824611328Q106.72740959765625,28.85398076611328,100.02224659765625,28.85806086611328Q93.32584379765625,28.86619616611328,88.59220766765625,33.60271119611328ZM93.92785169765625,51.14567926611328Q91.39838119765625,48.61672426611328,91.39756799765625,45.04020926611328L91.39756779765625,45.03791726611328Q91.40054579765625,41.46340556611328,93.92757699765625,38.93483686611328Q96.45541859765625,36.40545776611328,100.03141159765624,36.40111346611328Q103.60711759765626,36.39893936611328,106.13842759765625,38.92768196611328Q108.66973459765626,41.45642186611328,108.67118259765626,45.034410266113284Q108.67263259765625,48.612411266113284,106.14337959765625,51.14320326611328Q103.61412659765625,53.67399626611328,100.03612759765625,53.67472026611328Q96.45813369765625,53.67544726611328,93.92785169765625,51.14567926611328Z" fill-rule="evenodd" fill="#000000" fill-opacity="1" style="mix-blend-mode:passthrough"/><path d="M161.09747544921876,129.81852684814453L170.89590544921876,117.58368514814453L170.89411544921876,117.58225534814453Q171.09347544921874,117.33333064814452,171.24818544921874,117.05445004814453Q171.40287544921875,116.77556944814454,171.50851544921875,116.47466154814452Q171.61416544921875,116.17375397814453,171.66773544921875,115.85937440814453Q171.72131544921876,115.54499491814452,171.72131544921876,115.22608184814453Q171.72131544921876,115.04091065814453,171.70317544921875,114.85663112814453Q171.68501544921875,114.67235159814453,171.64886544921876,114.49073850814453Q171.61276544921876,114.30912524814453,171.55900544921874,114.13192744814454Q171.50524544921876,113.95472974814453,171.43437544921875,113.78365394814453Q171.36352544921874,113.61257814814454,171.27622544921874,113.44927164814453Q171.18893544921875,113.28596534814453,171.08605544921875,113.13200114814452Q170.98319544921875,112.97803684814453,170.86572544921876,112.83489754814453Q170.74826544921876,112.69175814814453,170.61730544921875,112.56082244814453Q170.48637544921874,112.42988654814454,170.34323544921875,112.31241514814454Q170.20010544921874,112.19494394814453,170.04614544921876,112.09206864814453Q169.89218544921874,111.98919294814453,169.72888544921875,111.90190364814453Q169.56556544921875,111.81461474814454,169.39448544921876,111.74375294814453Q169.22341544921875,111.67289064814453,169.04621544921875,111.61913824814454Q168.86901544921875,111.56538584814453,168.68740544921874,111.52926084814453Q168.50579544921874,111.49313544814453,168.32153544921874,111.47498564814452Q168.13723544921876,111.45683574814453,167.95207544921874,111.45683574814453Q167.74087544921875,111.45683574814453,167.53100544921875,111.48042724814454Q167.32113544921876,111.50401854814453,167.11523544921874,111.55090574814453Q166.90930544921875,111.59779314814453,166.70992544921876,111.66738934814452Q166.51052544921876,111.73698564814453,166.32017544921874,111.82841994814453Q166.12979544921876,111.91985414814454,165.95083544921874,112.03198174814453Q165.77186544921875,112.14410924814453,165.60655544921875,112.27552654814453Q165.44122544921876,112.40694374814453,165.29162544921874,112.55600574814453Q165.14202544921875,112.70506764814454,165.01002544921874,112.86990834814453L165.00823544921874,112.86847854814454L158.16503544921875,121.41327234814453L151.38332544921875,112.87958314814453Q151.26805544921876,112.73452664814454,151.13911544921876,112.60146804814453Q151.01017544921876,112.46840904814454,150.86880544921877,112.34862944814454Q150.72744544921875,112.22884944814453,150.57501544921877,112.12350224814453Q150.42259544921876,112.01815464814453,150.26058544921875,111.92825464814453Q150.09857544921874,111.83835414814453,149.92853544921877,111.76476644814453Q149.75849544921874,111.69117924814454,149.58204544921875,111.63461324814453Q149.40561544921874,111.57804724814453,149.22448544921875,111.53904774814453Q149.04334544921875,111.50004764814453,148.85926544921875,111.47899004814452Q148.67518544921876,111.45793194814453,148.48992544921873,111.45501894814453Q148.30465544921876,111.45210604814453,148.11999544921875,111.46736554814453Q147.93534544921874,111.48262504814453,147.75308544921876,111.51591034814453Q147.57081544921874,111.54919574814453,147.39267544921876,111.60018634814453Q147.21455544921875,111.65117664814453,147.04228544921875,111.71938134814454Q146.87000544921875,111.78758624814454,146.70524544921875,111.87234834814453Q146.54049544921875,111.95711014814454,146.38484544921874,112.05761314814453Q146.22918544921873,112.15811614814453,146.08412544921873,112.27339224814453Q145.74580544921875,112.54226584814452,145.47705544921877,112.88070204814453L138.73018544921877,121.37715054814453L132.06288544921875,112.89530324814453Q131.83331344921874,112.60326524814454,131.55119344921874,112.36162354814454Q131.26907344921875,112.11998204814454,130.94523644921875,111.93802304814453Q130.62138344921874,111.75606444814453,130.26826444921875,111.64078114814453Q129.91514544921876,111.52549794814453,129.54631844921875,111.48132014814453Q129.17749044921874,111.43714234814453,128.80712844921874,111.46576814814453Q128.43676744921873,111.49439384814453,128.07911644921876,111.59472294814454Q127.72145844921874,111.69505214814453,127.39024344921874,111.86322904814453Q127.05903644921875,112.03140594814454,126.76699844921875,112.26096744814453Q126.43222844921875,112.52411674814454,126.16455844921875,112.85528184814453L119.21556844921875,121.45274924814453L112.30365744921875,112.86186024814454Q112.18751544921875,112.71749994814454,112.05776944921875,112.58521934814453Q111.92803944921874,112.45293904814453,111.78594944921875,112.33401204814453Q111.64387544921875,112.21508474814453,111.49082144921876,112.11065624814454Q111.33776844921876,112.00622794814453,111.17521644921875,111.91730424814453Q111.01268044921875,111.82838014814453,110.84219344921875,111.75581694814453Q110.67171444921875,111.68325404814453,110.49493444921875,111.62775084814453Q110.31816144921875,111.57224704814453,110.13680244921875,111.53433774814454Q109.95543644921875,111.49642874814452,109.77122544921875,111.47647904814453Q109.58702044921876,111.45652914814453,109.40174144921875,111.45473054814452Q109.21646844921875,111.45293234814453,109.03190644921875,111.46930284814454Q108.84735144921875,111.48567294814453,108.66528344921875,111.52005414814454Q108.48322344921876,111.55443544814453,108.30539744921875,111.60649704814453Q108.12757844921875,111.65855834814454,107.95571944921875,111.72779844814453Q107.78385944921875,111.79703804814453,107.61961344921875,111.88279004814453Q107.45536844921875,111.96854164814454,107.30032344921875,112.06997914814453Q107.14527844921875,112.17141674814454,107.00091544921875,112.28756384814453Q106.67988544921874,112.54585554814453,106.42219544921875,112.86737294814453L99.55916644921875,121.43032214814453L92.69613644921876,112.86737274814453Q92.58026144921875,112.72279504814453,92.45077144921875,112.59027144814453Q92.32128144921876,112.45774794814453,92.17942044921875,112.33855484814453Q92.03757144921875,112.21936154814453,91.88471644921876,112.11464644814453Q91.73186144921874,112.00993154814454,91.56947344921875,111.92070314814453Q91.40709644921876,111.83147434814452,91.23674744921874,111.75859164814453Q91.06640644921876,111.68570924814453,90.88973244921874,111.62987474814453Q90.71306644921876,111.57403994814453,90.53176844921876,111.53579094814454Q90.35047944921875,111.49754194814453,90.16630544921875,111.47724704814453Q89.98213944921875,111.45695164814452,89.79686744921875,111.45480584814453Q89.61159544921875,111.45266004814454,89.42700244921875,111.46868464814453Q89.24241644921875,111.48470874814453,89.06028744921875,111.51874904814453Q88.87815844921874,111.55278924814453,88.70024144921875,111.60451724814453Q88.52233144921874,111.65624494814453,88.35034144921875,111.72516274814453Q88.17835244921875,111.79408024814452,88.01394244921875,111.87952424814453Q87.84954044921875,111.96496774814453,87.69430144921876,112.06611444814453Q87.53906244921875,112.16726134814454,87.39448144921874,112.28313734814454Q87.05095644921875,112.55846644814453,86.78007844921875,112.90551424814453L80.15658944921876,121.39153244814453L73.28165044921874,112.85966344814453Q73.16539744921874,112.71539024814453,73.03556044921875,112.58320664814453Q72.90572344921875,112.45102314814453,72.76355344921875,112.33220244814453Q72.62139144921875,112.21338124814453,72.46825744921875,112.10906764814453Q72.31512844921875,112.00475354814454,72.15250744921875,111.91595144814453Q71.98989144921876,111.82714894814453,71.81935144921874,111.75471354814454Q71.64881944921875,111.68227794814453,71.47200044921874,111.62690684814453Q71.29518844921876,111.57153554814454,71.11379644921875,111.53376174814453Q70.93240344921875,111.49598834814454,70.74818044921875,111.47617624814453Q70.56396144921875,111.45636394814453,70.37868544921875,111.45470404814454Q70.19340544921874,111.45304414814453,70.00885744921875,111.46955274814454Q69.82431444921875,111.48606084814453,69.64227644921874,111.52057834814453Q69.46023544921874,111.55509614814453,69.28245544921876,111.60729074814454Q69.10467544921875,111.65948484814453,68.93286944921874,111.72885324814453Q68.76106244921874,111.79822154814453,68.59687844921875,111.88409634814454Q68.43270144921874,111.96997074814453,68.27772544921875,112.07152434814454Q68.12275744921875,112.17307784814453,67.97848144921875,112.28933264814454Q67.64583244921874,112.55738184814453,67.38156144921875,112.89304544814453L60.66033944921875,121.43010094814453L53.65555944921875,112.84222604814452Q53.53844844921875,112.69864704814454,53.40782944921875,112.56723854814453Q53.27720644921875,112.43583014814453,53.13433444921875,112.31785774814453Q52.99146244921875,112.19988484814453,52.83771544921875,112.09648414814453Q52.68396744921875,111.99308394814453,52.52082444921875,111.90525124814454Q52.35768544921875,111.81741814814453,52.186718449218745,111.74599884814454Q52.01575444921875,111.67457964814453,51.83860944921875,111.62026194814453Q51.661468449218745,111.56594374814453,51.47985444921875,111.52925064814453Q51.29824044921875,111.49255754814453,51.11390544921875,111.47384234814453Q50.92956944921875,111.45512704814453,50.744287449218746,111.45456984814453Q50.55900344921875,111.45401284814453,50.37455744921875,111.47161964814453Q50.19011344921875,111.48922584814453,50.00828344921875,111.52482604814453Q49.82645244921875,111.56042674814454,49.64898444921875,111.61367844814453Q49.471519449218746,111.66692974814453,49.30012844921875,111.73731944814453Q49.12873644921875,111.80770924814453,48.96506844921875,111.89455964814454Q48.80140344921875,111.98140954814453,48.64703544921875,112.08388374814453Q48.492668449218755,112.18635794814453,48.34909044921875,112.30346944814453Q48.022897449218746,112.56953284814453,47.76338944921875,112.90096644814453L41.20073224921875,121.28256794814453L35.06126764921875,113.18825174814454L35.05944874921875,113.18963144814452Q34.92806004921875,113.01640704814453,34.77762504921875,112.85943864814453Q34.62719014921875,112.70247034814453,34.45970434921875,112.56384034814454Q34.29221914921875,112.42521004814454,34.10990454921875,112.30675694814452Q33.92759004921875,112.18830414814452,33.73286464921875,112.09159974814453Q33.53813974921875,111.99489454814453,33.33358684921875,111.92122074814453Q33.12903404921875,111.84754704814453,32.91736661921875,111.79788164814453Q32.70569943921875,111.74821564814454,32.48972540921875,111.72321744814454Q32.27375140921875,111.69821904814454,32.05633544921875,111.69821904814454Q31.87116425921875,111.69821904814454,31.68688472921875,111.71636894814453Q31.50260519921875,111.73451904814453,31.32099210921875,111.77064414814453Q31.13937884921875,111.80676934814453,30.96218104921875,111.86052174814454Q30.78498334921875,111.91427424814454,30.61390754921875,111.98513624814453Q30.44283174921875,112.05599784814453,30.27952524921875,112.14328694814454Q30.11621894921875,112.23057604814453,29.96225474921875,112.33345194814453Q29.80829044921875,112.43632744814452,29.66515114921875,112.55379864814454Q29.52201174921875,112.67126984814453,29.39107604921875,112.80220584814452Q29.26014014921875,112.93314144814453,29.14266874921875,113.07628084814453Q29.02519754921875,113.21941994814453,28.92232224921875,113.37338444814453Q28.81944654921875,113.52734854814453,28.73215724921875,113.69065494814453Q28.64486834921875,113.85396144814453,28.57400654921875,114.02503744814453Q28.50314424921875,114.19611324814453,28.44939184921875,114.37331092814453Q28.39563944921875,114.55050867814452,28.35951444921875,114.73212185814454Q28.32338904921875,114.91373499814453,28.30523924921875,115.09801456814454Q28.28708934921875,115.28229410214453,28.28708934921875,115.46746527814453Q28.28708934921875,115.77387678814453,28.33658004921875,116.07626497814454Q28.38607074921875,116.37865324814453,28.483752749218752,116.66907734814453Q28.58143474921875,116.95950164814454,28.72474284921875,117.23033524814453Q28.86805124921875,117.50116874814454,29.05322214921875,117.74529914814453L29.05140324921875,117.74667884814453L38.14833114921875,129.74013884814454Q38.44353384921875,130.12933384814454,38.82814784921875,130.43048184814452Q39.12062354921875,130.65948484814453,39.45215604921875,130.82702884814452Q39.78368854921875,130.99457384814454,40.14153674921875,131.09421984814452Q40.499385849218754,131.19386684814452,40.86979864921875,131.22178484814452Q41.24021144921875,131.24970484814452,41.60895344921875,131.20482284814454Q41.97769544921875,131.15994084814454,42.33059544921875,131.04398384814453Q42.68349544921875,130.92802584814453,43.006993449218754,130.74545084814454Q43.33049044921875,130.56287384814453,43.61215344921875,130.32069384814454Q43.89381644921875,130.07851384814452,44.12282044921875,129.78603984814453L50.79317044921875,121.26689954814454L57.78979844921875,129.84477884814453Q58.052639449218745,130.16702484814454,58.37937344921875,130.42426284814454Q58.52495344921875,130.53887984814452,58.68106444921875,130.63867284814452Q58.83717744921875,130.73846584814453,59.00231744921875,130.82247584814453Q59.16746144921875,130.90648884814453,59.34004244921875,130.97390784814453Q59.51262444921875,131.04132684814454,59.69098244921875,131.09150484814452Q59.86934244921875,131.14168584814453,60.051761449218745,131.17414084814453Q60.234180449218755,131.20659684814453,60.41889944921875,131.22101384814454Q60.60362244921875,131.23543584814453,60.78886944921875,131.23167784814453Q60.97411744921875,131.22792384814454,61.15810044921875,131.20602584814452Q61.342086449218755,131.18413184814455,61.523038449218745,131.14430784814454Q61.70399044921875,131.10448484814452,61.88016844921875,131.04711484814453Q62.05634644921875,130.98974684814453,62.22605344921875,130.91538584814452Q62.39576144921875,130.84102584814454,62.557361449218746,130.75038784814453Q62.71896344921875,130.65975184814454,62.87090344921875,130.55371284814453Q63.02284244921875,130.44767184814452,63.16365644921875,130.32724984814453Q63.304470449218755,130.20682884814454,63.432802449218755,130.07318484814454Q63.56113444921875,129.93954084814453,63.67574844921875,129.79396084814454L70.37915044921874,121.27954194814453L77.26692544921875,129.82734284814453Q77.54001244921875,130.16624284814452,77.88310644921876,130.43403584814453Q78.02916744921875,130.54803984814453,78.18569944921876,130.64717584814454Q78.34222744921874,130.74631284814453,78.50771744921875,130.82962784814453Q78.67321444921875,130.91294684814454,78.84607744921874,130.97963984814453Q79.01894344921875,131.04633484814454,79.19750644921875,131.09576284814455Q79.37607544921875,131.14519384814454,79.55863144921875,131.17688384814454Q79.74118844921875,131.20857284814454,79.92596444921875,131.22221384814452Q80.11074844921875,131.23585684814452,80.29597844921875,131.23132284814454Q80.48120844921874,131.22678984814453,80.66509644921875,131.20412084814453Q80.84899144921874,131.18145384814454,81.02977344921875,131.14086984814452Q81.21055644921876,131.10028684814452,81.38648944921874,131.04217684814452Q81.56243144921875,130.98406984814454,81.73182344921875,130.90899684814454Q81.90121444921874,130.83392284814454,82.06243144921875,130.74260784814453Q82.22365144921875,130.65129484814452,82.37514544921875,130.54461684814453Q82.52663444921875,130.43794084814454,82.66693844921875,130.31692684814453Q82.80725144921874,130.19591484814453,82.93502044921874,130.06173284814454Q83.06278944921874,129.92755084814453,83.17679244921875,129.78149084814453L89.79238844921875,121.30558824814453L96.61621844921875,129.81963384814452Q96.87615244921875,130.14394184814452,97.20045444921875,130.40386884814453Q97.34503144921875,130.51974484814454,97.50027444921875,130.62089284814454Q97.65551744921875,130.72203884814454,97.81991544921875,130.80748184814453Q97.98432944921875,130.89292484814453,98.15631144921875,130.96184384814453Q98.32830044921874,131.03075984814453,98.50621044921876,131.08248684814453Q98.68412744921875,131.13421584814452,98.86625644921875,131.16825584814453Q99.04838544921876,131.20229484814453,99.23297144921875,131.21831884814452Q99.41756444921874,131.23434484814453,99.60283644921876,131.23219884814452Q99.78810844921875,131.23005284814454,99.97227444921874,131.20975784814453Q100.15644844921874,131.18946284814453,100.33773844921875,131.15121384814452Q100.51903544921875,131.11296484814454,100.69570144921875,131.05712884814454Q100.87237544921875,131.00129484814454,101.04272444921875,130.92841284814452Q101.21307344921875,130.85552984814453,101.37545044921875,130.76630084814454Q101.53784144921875,130.67707384814452,101.69068944921875,130.57235884814452Q101.84355144921875,130.46764384814452,101.98539744921875,130.34844984814453Q102.12725844921874,130.22925784814453,102.25675244921875,130.09673484814454Q102.38624544921875,129.96421284814454,102.50211344921875,129.81963384814452L109.37078044921876,121.24963854814453L116.27031744921875,129.82514684814453Q116.52368944921875,130.14006184814454,116.83803544921875,130.39413784814454Q116.98213244921875,130.51060784814453,117.13696244921876,130.61239284814454Q117.29177844921875,130.71417584814452,117.45582544921875,130.80029584814454Q117.61988844921875,130.88641684814453,117.79158744921875,130.95604084814454Q117.96328744921875,131.02566684814454,118.14098344921875,131.07812484814454Q118.31868744921876,131.13058584814453,118.50067144921876,131.16537484814452Q118.68266344921875,131.20016384814454,118.86718744921875,131.21694684814452Q119.05171244921875,131.23372984814452,119.23698444921875,131.23234784814454Q119.42227144921875,131.23096484814454,119.60652144921875,131.21142784814452Q119.79077144921875,131.19189084814454,119.97222144921875,131.15438884814452Q120.15367144921875,131.11688484814454,120.33056644921875,131.06177684814452Q120.50746144921875,131.00667084814452,120.67810844921875,130.93448984814452Q120.84875444921875,130.86230984814452,121.01149744921875,130.77374984814452Q121.17425544921875,130.68518984814455,121.32753744921875,130.58110484814452Q121.48081944921876,130.47701984814452,121.62316144921876,130.35841084814453Q121.76551044921875,130.23980284814454,121.89554644921876,130.10781384814453Q122.02558144921875,129.97582484814453,122.14205144921876,129.83172384814452L129.05671644921875,121.27671864814454L135.75006544921877,129.79170184814453Q136.02341544921876,130.13944284814454,136.36979544921877,130.41450284814454Q136.51489544921876,130.52972384814453,136.67059544921875,130.63016884814454Q136.82627544921877,130.73061184814452,136.99106544921875,130.81531184814452Q137.15586544921877,130.90001084814452,137.32816544921874,130.96814984814452Q137.50045544921875,131.03628984814452,137.67860544921876,131.08721184814453Q137.85675544921875,131.13813584814454,138.03903544921874,131.17135284814452Q138.22132544921874,131.20456884814453,138.40597544921874,131.21975684814453Q138.59063544921875,131.23494684814455,138.77590544921875,131.23196384814452Q138.96116544921875,131.22898084814454,139.14523544921875,131.20785284814454Q139.32931544921877,131.18672584814453,139.51042544921876,131.14765784814452Q139.69154544921875,131.10858884814454,139.86794544921875,131.05195484814453Q140.04437544921876,130.99532284814453,140.21439544921876,130.92167184814454Q140.38441544921875,130.84801984814453,140.54638544921875,130.75805684814452Q140.70837544921875,130.66809684814453,140.86075544921874,130.56269084814454Q141.01312544921876,130.45728484814452,141.15443544921874,130.33745084814453Q141.29576544921875,130.21761884814453,141.42465544921873,130.08451084814453Q141.55354544921875,129.95140484814453,141.66876544921877,129.80630384814452L148.43177544921875,121.28951644814452L155.20095544921875,129.80742284814454Q155.46490544921875,130.13955784814453,155.79604544921875,130.40475584814453Q156.08597544921875,130.63695784814453,156.41564544921874,130.80813384814454Q156.74531544921877,130.97931084814454,157.10205544921877,131.08288384814452Q157.45877544921876,131.18645584814453,157.82886544921877,131.21844284814452Q158.19895544921874,131.25043084814453,158.56817544921876,131.20960384814452Q158.93739544921874,131.16877684814455,159.29154544921875,131.05670484814453Q159.64569544921875,130.94463184814452,159.97117544921875,130.76561984814452Q160.29666544921875,130.58660884814452,160.58096544921875,130.34753884814452Q160.86526544921875,130.10846884814453,161.09747544921876,129.81852684814453Z" fill-rule="evenodd" fill="#000000" fill-opacity="1" style="mix-blend-mode:passthrough"/><path d="M38.1888427734375,142.23778438798828L161.7969527734375,142.23778438798828L161.7969527734375,142.23550128798828Q161.9821327734375,142.23550128798828,162.16640277343748,142.21735118798827Q162.3506727734375,142.19920138798827,162.5322827734375,142.16307588798827Q162.7139027734375,142.1269509879883,162.8911027734375,142.0731985879883Q163.0683027734375,142.01944608798829,163.23937277343748,141.9485838879883Q163.4104627734375,141.8777222879883,163.5737627734375,141.7904328879883Q163.7370727734375,141.70314408798828,163.8910227734375,141.60026838798828Q164.0449927734375,141.49739308798829,164.1881327734375,141.37992188798827Q164.3312727734375,141.26245048798827,164.4622027734375,141.13151458798828Q164.5931427734375,141.00057888798827,164.7106127734375,140.85743948798827Q164.8280827734375,140.71430018798827,164.9309527734375,140.5603358879883Q165.0338427734375,140.40637168798827,165.1211227734375,140.2430652879883Q165.20842277343752,140.07975888798828,165.2792627734375,139.9086830879883Q165.35014277343748,139.73760728798828,165.4039027734375,139.5604095879883Q165.4576527734375,139.38321178798827,165.4937727734375,139.20159852798827Q165.5299027734375,139.01998543798828,165.54805277343752,138.83570590798828Q165.56621277343748,138.6514263779883,165.5662027734375,138.46625518798828Q165.56621277343748,138.28108399798828,165.54805277343752,138.09680446798828Q165.5299027734375,137.91252493798828,165.49376277343748,137.7309118479883Q165.4576527734375,137.5492985879883,165.40389277343752,137.37210078798827Q165.35014277343748,137.19490308798828,165.2792727734375,137.02382728798827Q165.20842277343752,136.8527514879883,165.1211327734375,136.68944498798828Q165.0338427734375,136.5261386879883,164.9309527734375,136.37217448798827Q164.8280827734375,136.2182101879883,164.7106127734375,136.0750708879883Q164.5931427734375,135.9319314879883,164.4622027734375,135.80099578798828Q164.3312727734375,135.6700598879883,164.1881227734375,135.5525884879883Q164.0449927734375,135.43511728798828,163.8910227734375,135.33224198798828Q163.73706277343751,135.22936628798828,163.5737527734375,135.14207698798828Q163.4104427734375,135.05478808798827,163.2393627734375,134.98392628798828Q163.0683027734375,134.9130639879883,162.8911027734375,134.8593115879883Q162.7139027734375,134.80555918798828,162.5322827734375,134.76943418798828Q162.3506727734375,134.73330878798828,162.16640277343748,134.71515898798827Q161.9821327734375,134.69700908798828,161.7969527734375,134.69700908798828L161.7969527734375,134.69472598798828L38.1888427734375,134.69472598798828L38.1888427734375,134.69700908798828Q38.0036715834375,134.69700908798828,37.8193920534375,134.7151591879883Q37.6351125234375,134.7333089879883,37.4534994334375,134.7694344879883Q37.2718861734375,134.80555938798827,37.0946883734375,134.85931178798828Q36.9174906734375,134.91306428798828,36.7464148734375,134.98392648798827Q36.5753390734375,135.05478808798827,36.4120325734375,135.14207748798827Q36.2487262734375,135.22936628798828,36.0947620734375,135.33224198798828Q35.9407977734375,135.43511728798828,35.7976584734375,135.5525884879883Q35.6545190734375,135.6700598879883,35.5235833734375,135.80099578798828Q35.3926474734375,135.9319314879883,35.2751760734375,136.0750708879883Q35.1577048734375,136.2182101879883,35.0548295734375,136.37217448798827Q34.9519538734375,136.5261386879883,34.8646645734375,136.68944508798828Q34.7773756734375,136.8527514879883,34.7065138734375,137.02382728798827Q34.6356515734375,137.19490308798828,34.5818991734375,137.37210078798827Q34.5281467734375,137.5492985879883,34.4920217734375,137.7309118479883Q34.4558963734375,137.91252493798828,34.4377465734375,138.09680446798828Q34.419596673437496,138.28108399798828,34.419596673437496,138.46625518798828Q34.419596673437496,138.6514263779883,34.4377467734375,138.83570590798828Q34.4558965734375,139.01998543798828,34.4920220734375,139.20159852798827Q34.5281469734375,139.38321178798827,34.5818993734375,139.5604095879883Q34.6356518734375,139.73760728798828,34.7065140734375,139.9086830879883Q34.7773756734375,140.07975888798828,34.8646650734375,140.24306538798828Q34.9519538734375,140.40637168798827,35.0548295734375,140.5603358879883Q35.1577048734375,140.71430018798827,35.2751760734375,140.85743948798827Q35.3926474734375,141.00057888798827,35.5235833734375,141.13151458798828Q35.6545190734375,141.26245048798827,35.7976584734375,141.37992188798827Q35.9407977734375,141.49739308798829,36.0947620734375,141.60026838798828Q36.2487262734375,141.70314408798828,36.4120326734375,141.7904333879883Q36.5753390734375,141.8777222879883,36.7464148734375,141.94858408798828Q36.9174906734375,142.01944638798827,37.0946883734375,142.07319878798828Q37.2718861734375,142.12695118798828,37.4534994334375,142.16307618798828Q37.6351125234375,142.19920158798828,37.8193920534375,142.2173513879883Q38.0036715834375,142.23550128798828,38.1888427734375,142.23550128798828L38.1888427734375,142.23778438798828Z" fill-rule="evenodd" fill="#000000" fill-opacity="1" style="mix-blend-mode:passthrough"/><path d="M28.737396240234375,106.93627071611328L171.30120624023436,106.93627071611328L171.30120624023436,106.93398761611328Q171.48638624023437,106.93398761611328,171.67068624023437,106.91583751611329Q171.85494624023437,106.89768771611328,172.03655624023438,106.86156221611328Q172.21816624023438,106.82543731611328,172.39536624023438,106.77168491611329Q172.57256624023438,106.71793241611329,172.74362624023436,106.64707021611328Q172.91470624023438,106.57620861611328,173.07801624023438,106.48891921611329Q173.24133624023438,106.40163041611328,173.39527624023438,106.29875471611328Q173.54925624023437,106.19587941611329,173.6923962402344,106.07840821611327Q173.83553624023438,105.96093681611327,173.96645624023438,105.83000091611328Q174.0973962402344,105.69906521611328,174.21485624023438,105.55592581611329Q174.33233624023438,105.41278651611329,174.43519624023438,105.25882221611329Q174.53808624023438,105.10485801611328,174.62536624023437,104.94155161611329Q174.71264624023436,104.77824521611328,174.78350624023437,104.60716941611328Q174.85436624023438,104.43609361611328,174.90814624023437,104.25889591611327Q174.96188624023438,104.08169811611329,174.99801624023436,103.90008485611328Q175.03414624023438,103.71847176611328,175.05229624023437,103.53419223611328Q175.07044624023436,103.34991270611329,175.07044624023436,103.16474151611328Q175.07044624023436,102.97957032611328,175.05230624023437,102.79529079611328Q175.03414624023438,102.61101126611328,174.99801624023436,102.42939817611328Q174.96188624023438,102.24778491611328,174.90814624023437,102.07058711611329Q174.85436624023438,101.89338941611328,174.78350624023437,101.72231361611328Q174.71264624023436,101.55123781611329,174.62536624023437,101.38793131611328Q174.53806624023437,101.22462501611328,174.43517624023437,101.07066081611327Q174.33230624023437,100.91669651611328,174.21484624023438,100.77355721611328Q174.09738624023439,100.63041781611328,173.96644624023438,100.49948211611328Q173.83552624023437,100.36854621611329,173.69238624023438,100.25107481611329Q173.54925624023437,100.13360361611328,173.39526624023438,100.03072831611328Q173.24131624023437,99.92785261611328,173.07800624023437,99.84056331611328Q172.91470624023438,99.75327441611329,172.74362624023436,99.68241261611328Q172.57256624023438,99.61155031611328,172.39536624023438,99.55779791611329Q172.21816624023438,99.50404551611328,172.03654624023437,99.46792051611328Q171.85494624023437,99.43179511611328,171.67066624023437,99.41364531611327Q171.48638624023437,99.39549541611328,171.30120624023436,99.39549541611328L171.30120624023436,99.39321231611328L28.737396240234375,99.39321231611328L28.737396240234375,99.39549541611328Q28.552225050234377,99.39549541611328,28.367945520234375,99.41364551611328Q28.183665990234374,99.43179531611328,28.002052900234375,99.46792081611328Q27.820439640234376,99.50404571611328,27.643241840234374,99.55779811611328Q27.466044140234374,99.61155061611328,27.294968340234377,99.68241281611328Q27.123892540234376,99.75327441611329,26.960586040234375,99.84056381611327Q26.797279740234377,99.92785261611328,26.643315540234376,100.03072831611328Q26.489351240234374,100.13360361611328,26.346211940234376,100.25107481611329Q26.203072540234373,100.36854621611329,26.072136840234375,100.49948211611328Q25.941200940234374,100.63041781611328,25.823729540234375,100.77355721611328Q25.706258340234374,100.91669651611328,25.603383040234377,101.07066081611327Q25.500507340234375,101.22462501611328,25.413218040234376,101.38793141611328Q25.325929140234376,101.55123781611329,25.255067340234376,101.72231361611328Q25.184205040234374,101.89338941611328,25.130452640234374,102.07058711611329Q25.076700240234373,102.24778491611328,25.040575240234375,102.42939817611328Q25.004449840234376,102.61101126611328,24.986300040234376,102.79529079611328Q24.968150140234375,102.97957032611328,24.968150140234375,103.16474151611328Q24.968150140234375,103.34991270611329,24.986300240234375,103.53419223611328Q25.004450040234374,103.71847176611328,25.040575540234375,103.90008485611328Q25.076700440234376,104.08169811611329,25.130452840234376,104.25889591611327Q25.184205340234374,104.43609361611328,25.255067540234375,104.60716941611328Q25.325929140234376,104.77824521611328,25.413218540234375,104.94155171611328Q25.500507340234375,105.10485801611328,25.603383040234377,105.25882221611329Q25.706258340234374,105.41278651611329,25.823729540234375,105.55592581611329Q25.941200940234374,105.69906521611328,26.072136840234375,105.83000091611328Q26.203072540234373,105.96093681611327,26.346211940234376,106.07840821611327Q26.489351240234374,106.19587941611329,26.643315540234376,106.29875471611328Q26.797279740234377,106.40163041611328,26.960586140234376,106.48891971611329Q27.123892540234376,106.57620861611328,27.294968340234377,106.64707041611328Q27.466044140234374,106.71793271611328,27.643241840234374,106.77168511611328Q27.820439640234376,106.82543751611328,28.002052900234375,106.86156251611328Q28.183665990234374,106.89768791611328,28.367945520234375,106.91583771611329Q28.552225050234377,106.93398761611328,28.737396240234375,106.93398761611328L28.737396240234375,106.93627071611328Z" fill-rule="evenodd" fill="#000000" fill-opacity="1" style="mix-blend-mode:passthrough"/><path d="M10.000424338671875,100.00420350927735L10.000424338671875,100.00452450927735Q10.000484438671876,118.31307450927734,17.074912538671875,135.03889450927733Q23.906854138671875,151.19141450927734,36.36192313867188,163.64647450927734Q48.817016138671875,176.10157450927736,64.96951713867188,182.93349450927735Q81.69546513867188,190.00797450927735,100.00421113867188,190.00797450927735Q118.31296213867188,190.00797450927735,135.03890213867186,182.93349450927735Q151.1913921386719,176.10157450927736,163.64648213867187,163.64647450927734Q176.1015821386719,151.19138450927736,182.93350213867188,135.03889450927733Q190.00798213867188,118.31295450927735,190.00798213867188,100.00419650927735Q190.00798213867188,81.69545750927735,182.93350213867188,64.96950950927734Q176.10156213867188,48.816993509277346,163.64648213867187,36.36191150927735Q151.19142213867187,23.906850509277344,135.03889213867188,17.074906809277344Q118.31292213867188,10.000415609277344,100.00452413867187,10.000420609277343Q81.69516013867188,9.998811509277344,64.96834213867187,17.072845209277343Q48.81511713867187,23.904296509277344,36.35971613867187,36.35969950927735Q23.904316138671874,48.81510150927734,17.072857838671876,64.96833450927734Q9.998885438671875,81.69500750927735,10.000424338671875,100.00420350927735ZM41.69567113867188,158.31273450927733Q17.543481838671873,134.16055450927735,17.543478938671875,100.00420350927735L17.543482738671877,100.00386850927734Q17.540496138671877,65.84641650927735,41.69346413867187,41.69344750927735Q65.84643213867187,17.540479709277342,100.00386813867188,17.543479009277345Q134.16056213867188,17.543473009277342,158.31274213867187,41.69565950927735Q182.46492213867188,65.84783950927735,182.46492213867188,100.00419650927735Q182.46492213867188,134.16056450927735,158.31274213867187,158.31273450927733Q134.16057213867188,182.46491450927735,100.00421113867188,182.46491450927735Q65.84785413867188,182.46491450927735,41.69567113867188,158.31273450927733Z" fill-rule="evenodd" fill="#000000" fill-opacity="1" style="mix-blend-mode:passthrough"/></g></svg>